<svg id="Layer_1" data-name="Layer 1" xmlns="http://www.w3.org/2000/svg" viewBox="0 0 240 466.46"><defs><style>.cls-1{fill:"currentColor";}</style></defs><path class="cls-1" d="M121,25.5a95.11,95.11,0,0,1,95,95c0,10.82-5.62,48.4-57.69,163.35C145,313.14,131.69,341,121,362.73,110.31,341,97,313.14,83.69,283.85,31.62,168.9,26,131.32,26,120.5a95.11,95.11,0,0,1,95-95m0-25A120,120,0,0,0,1,120.5c0,66.27,120,298,120,298s120-231.73,120-298A120,120,0,0,0,121,.5Z" transform="translate(-1 -0.5)"/><path class="cls-1" d="M218.25,416c0-20.64-33-32-40-34A66.71,66.71,0,0,0,158.16,379c29.32,6.71,50.09,20.92,50.09,36.92,0,22.19-39.93,40.93-87.25,41s-87.25-18.81-87.25-41c0-16,20.77-30.21,50.09-36.92A66.71,66.71,0,0,0,63.75,382c-7,2-40,13.36-40,34,0,28.51,42.57,50.86,97,51h.5C175.68,466.82,218.25,444.47,218.25,416Z" transform="translate(-1 -0.5)"/><path class="cls-1" d="M174.09,419.16c0-11.27-18-17.47-21.83-18.57a36.66,36.66,0,0,0-11-1.59c16,3.66,27.35,11.42,27.35,20.16,0,12.11-21.8,22.34-47.63,22.38s-47.63-10.27-47.63-22.38c0-8.74,11.33-16.5,27.35-20.16a36.66,36.66,0,0,0-11,1.59c-3.82,1.1-21.83,7.3-21.83,18.57,0,15.56,23.24,27.76,53,27.84h.28C150.85,446.92,174.09,434.72,174.09,419.16Z" transform="translate(-1 -0.5)"/><path class="cls-1" d="M144.23,421.32c0-4.93-7.88-7.64-9.56-8.12a15.81,15.81,0,0,0-4.8-.7c7,1.6,12,5,12,8.82,0,5.3-9.54,9.78-20.84,9.79s-20.84-4.49-20.84-9.79c0-3.82,5-7.22,12-8.82a15.81,15.81,0,0,0-4.8.7c-1.68.48-9.56,3.19-9.56,8.12,0,6.81,10.17,12.15,23.17,12.18h.12C134.06,433.47,144.23,428.13,144.23,421.32Z" transform="translate(-1 -0.5)"/></svg>