<svg id="Layer_1" data-name="Layer 1" xmlns="http://www.w3.org/2000/svg" viewBox="0 0 372 453.21"><defs><style>.cls-1{fill:none;stroke:"currentColor";stroke-miterlimit:10;stroke-width:15px;}.cls-2{fill:"currentColor";}</style></defs><circle class="cls-1" cx="186" cy="186" r="178.5"/><ellipse class="cls-1" cx="186" cy="186" rx="128.5" ry="178.5"/><ellipse class="cls-1" cx="187" cy="186" rx="59.5" ry="178.5"/><line class="cls-1" x1="7.5" y1="185.5" x2="364.5" y2="185.5"/><path class="cls-1" d="M34.5,113q161.51-71,319,0" transform="translate(-8 -7.5)"/><path class="cls-1" d="M34.5,273c105.45,52.71,211.77,53.16,319,0" transform="translate(-8 -7.5)"/><path class="cls-2" d="M305.43,333.55c20.61,11.76,33.13,26.67,33.13,42.66C338.56,413,272.4,444,194,444.14,115.6,444,49.44,413,49.44,376.21c0-15.25,11.39-29.51,30.3-41L74,329.7c-19.07,9.29-41.1,24.8-41.1,46.51,0,47.24,70.52,84.27,160.71,84.49h.82c90.19-.22,160.72-37.25,160.72-84.49,0-23.07-24.89-39.14-44.64-48.17Z" transform="translate(-8 -7.5)"/><path class="cls-2" d="M266.53,360c8.14,5.12,15.44,12.3,15.44,21.53,0,25.78-38.51,46-87.74,46.12h-.46c-49.23-.12-87.74-20.34-87.74-46.12,0-9.41,7.58-16.68,15.91-21.82l8.13.41c-9.4,6.09-15,13.51-15,21.41,0,20.06,36.12,37,78.92,37.08s78.92-17,78.92-37.08c0-6.64-3.95-12.93-10.77-18.38Z" transform="translate(-8 -7.5)"/><path class="cls-2" d="M232.48,385.09c0-8.17-13-12.67-15.82-13.46a26.53,26.53,0,0,0-8-1.15c11.61,2.65,19.83,8.28,19.83,14.61,0,8.78-15.8,16.2-34.53,16.22s-34.53-7.44-34.53-16.22c0-6.33,8.22-12,19.83-14.61a26.53,26.53,0,0,0-8,1.15c-2.77.79-15.82,5.29-15.82,13.46,0,11.28,16.84,20.13,38.38,20.18h.2C215.64,405.22,232.48,396.37,232.48,385.09Z" transform="translate(-8 -7.5)"/></svg>