<svg id="Layer_1" data-name="Layer 1" xmlns="http://www.w3.org/2000/svg" viewBox="0 0 288 380.5"><defs><style>.cls-1{fill:"currentColor";}</style></defs><path class="cls-1" d="M139.5,6.72V116.85c-4.65-22-10.51-49.43-16.62-76.93l-.66-3-2.93-.78a13.57,13.57,0,0,0-3.49-.42c-12.38,0-36.09,13.43-52.64,24.93-11.26,7.83-38,27.88-43.41,45.26-6.08,17.5-7.49,37.39-6.22,62.17-2.8-15.3-5.37-33.79-8-59.35C9.33,90.91,18.76,74.45,33.6,59.83c12.23-12,28.13-22.9,47.27-32.24A294.86,294.86,0,0,1,139.5,6.72m5-6.22s-127,24-144,108c7,69,14,88,25,128-7.45-59.92-11.55-98.73-1-129,7.66-24.89,72.62-66.75,91.3-66.75A8.59,8.59,0,0,1,118,41c14,63,26.5,124.5,26.5,124.5V.5Z" transform="translate(-0.5 -0.5)"/><path class="cls-1" d="M144.5.5V381s116-18.5,144-272.5C268.5,23.5,144.5.5,144.5.5Zm79.63,200.09C179,200.59,157,216,157,216s6.53-56.12,50-56.12S276,139,276,139,269.25,200.59,224.13,200.59Z" transform="translate(-0.5 -0.5)"/></svg>