<svg id="Layer_1" data-name="Layer 1" xmlns="http://www.w3.org/2000/svg" viewBox="0 0 469.38 514.46"><defs><style>.cls-1{fill:"currentColor";}</style></defs><path class="cls-1" d="M238,75.5a95.11,95.11,0,0,1,95,95c0,10.82-5.62,48.4-57.69,163.35C262,363.14,248.69,391,238,412.73c-10.69-21.76-24-49.59-37.31-78.88C148.62,218.9,143,181.32,143,170.5a95.11,95.11,0,0,1,95-95m0-25a120,120,0,0,0-120,120c0,66.27,120,298,120,298s120-231.73,120-298a120,120,0,0,0-120-120Z" transform="translate(-3.62 -2.5)"/><path class="cls-1" d="M335.25,466c-9.25-12-4.25-3-10,0,0,22.19-39.93,40.93-87.25,41s-87.25-18.81-87.25-41c-4.75-5-5.75-5-10,0,0,28.51,42.57,50.86,97,51h.5C292.68,516.82,335.25,494.47,335.25,466Z" transform="translate(-3.62 -2.5)"/><path class="cls-1" d="M291.09,469.16c0-11.27-18-17.47-21.83-18.57a36.66,36.66,0,0,0-11-1.59c16,3.66,27.35,11.42,27.35,20.16,0,12.11-21.8,22.34-47.63,22.38s-47.63-10.27-47.63-22.38c0-8.74,11.33-16.5,27.35-20.16a36.66,36.66,0,0,0-11,1.59c-3.82,1.1-21.83,7.3-21.83,18.57,0,15.56,23.24,27.76,53,27.84h.28C267.85,496.92,291.09,484.72,291.09,469.16Z" transform="translate(-3.62 -2.5)"/><path class="cls-1" d="M261.23,471.32c0-4.93-7.88-7.64-9.56-8.12a15.81,15.81,0,0,0-4.8-.7c7,1.6,12,5,12,8.82,0,5.3-9.54,9.78-20.84,9.79s-20.84-4.49-20.84-9.79c0-3.82,5-7.22,12-8.82a15.81,15.81,0,0,0-4.8.7c-1.68.48-9.56,3.19-9.56,8.12,0,6.81,10.17,12.15,23.17,12.18h.12C251.06,483.47,261.23,478.13,261.23,471.32Z" transform="translate(-3.62 -2.5)"/><path class="cls-1" d="M353,27.5a95.11,95.11,0,0,1,95,95c0,10.82-5.62,48.4-57.69,163.35C377,315.14,363.69,343,353,364.73c-10.69-21.76-42.17-89.66-44.45-94.8L293,296.35c30,66.22,60,124.15,60,124.15s120-231.73,120-298A120,120,0,0,0,243.62,73.07l25,5.79A95.09,95.09,0,0,1,353,27.5" transform="translate(-3.62 -2.5)"/><path class="cls-1" d="M450.25,418c0-20.64-33-32-40-34A66.71,66.71,0,0,0,390.16,381c29.32,6.71,50.09,20.92,50.09,36.92,0,22.19-39.93,40.93-87.25,41s-87.25-18.81-87.25-41c0-16,20.77-30.21,50.09-36.92A66.71,66.71,0,0,0,295.75,384c-7,2-40,13.36-40,34,0,28.51,42.57,50.86,97,51h.5C407.68,468.82,450.25,446.47,450.25,418Z" transform="translate(-3.62 -2.5)"/><path class="cls-1" d="M406.09,421.16c0-11.27-18-17.47-21.83-18.57a36.66,36.66,0,0,0-11-1.59c16,3.66,27.35,11.42,27.35,20.16,0,12.11-21.8,22.34-47.63,22.38s-47.63-10.27-47.63-22.38c0-8.74,11.33-16.5,27.35-20.16a36.66,36.66,0,0,0-11,1.59c-3.82,1.1-21.83,7.3-21.83,18.57,0,15.56,23.24,27.76,52.95,27.84h.28C382.85,448.92,406.09,436.72,406.09,421.16Z" transform="translate(-3.62 -2.5)"/><path class="cls-1" d="M376.23,423.32c0-4.93-7.88-7.64-9.56-8.12a15.81,15.81,0,0,0-4.8-.7c7,1.6,12,5,12,8.82,0,5.3-9.54,9.78-20.84,9.79s-20.84-4.49-20.84-9.79c0-3.82,5-7.22,12-8.82a15.81,15.81,0,0,0-4.8.7c-1.68.48-9.56,3.19-9.56,8.12,0,6.81,10.17,12.15,23.17,12.18h.12C366.06,435.47,376.23,430.13,376.23,423.32Z" transform="translate(-3.62 -2.5)"/><path class="cls-1" d="M314,270" transform="translate(-3.62 -2.5)"/><path class="cls-1" d="M123.62,27.5A95.09,95.09,0,0,1,208,78.86l25-5.79A120,120,0,0,0,3.62,122.5c0,66.27,120,298,120,298s30-57.93,60-124.15l-15.55-26.42c-2.28,5.14-33.76,73-44.45,94.8-10.69-21.76-24-49.59-37.31-78.88C34.24,170.9,28.62,133.32,28.62,122.5a95.11,95.11,0,0,1,95-95" transform="translate(-3.62 -2.5)"/><path class="cls-1" d="M26.37,418c0-20.64,33-32,40-34A66.71,66.71,0,0,1,86.46,381C57.14,387.75,36.37,402,36.37,418c0,22.19,39.93,40.93,87.25,41s87.25-18.81,87.25-41c0-16-20.77-30.21-50.09-36.92A66.71,66.71,0,0,1,180.87,384c7,2,40,13.36,40,34,0,28.51-42.57,50.86-97,51h-.5C68.94,468.82,26.37,446.47,26.37,418Z" transform="translate(-3.62 -2.5)"/><path class="cls-1" d="M70.53,421.16c0-11.27,18-17.47,21.84-18.57a36.55,36.55,0,0,1,11-1.59C87.32,404.66,76,412.42,76,421.16c0,12.11,21.8,22.34,47.63,22.38s47.63-10.27,47.63-22.38c0-8.74-11.33-16.5-27.34-20.16a36.64,36.64,0,0,1,11,1.59c3.82,1.1,21.83,7.3,21.83,18.57,0,15.56-23.24,27.76-52.95,27.84h-.28C93.77,448.92,70.53,436.72,70.53,421.16Z" transform="translate(-3.62 -2.5)"/><path class="cls-1" d="M100.39,423.32c0-4.93,7.88-7.64,9.56-8.12a15.81,15.81,0,0,1,4.8-.7c-7,1.6-12,5-12,8.82,0,5.3,9.54,9.78,20.84,9.79s20.84-4.49,20.84-9.79c0-3.82-5-7.22-12-8.82a15.79,15.79,0,0,1,4.79.7c1.68.48,9.56,3.19,9.56,8.12,0,6.81-10.17,12.15-23.17,12.18h-.12C110.56,435.47,100.39,430.13,100.39,423.32Z" transform="translate(-3.62 -2.5)"/></svg>