<svg id="Layer_1" data-name="Layer 1" xmlns="http://www.w3.org/2000/svg" viewBox="0 0 466 466"><defs><style>.cls-1{fill:"currentColor";}</style></defs><path class="cls-1" d="M267.51,27a19,19,0,0,1,19,19V70l7.53,1.92a178.1,178.1,0,0,1,50.08,21.39l6.74,4.2,5.61-5.62,11.94-11.93a19,19,0,0,1,26.88,0l24.77,24.77a19,19,0,0,1,0,26.88L406.9,144.76l-5.4,5.39,3.79,6.63a178,178,0,0,1,19,48.91l1.76,7.79H454a19,19,0,0,1,19,19v35a19,19,0,0,1-19,19H424.18l-2.05,7.31a178.14,178.14,0,0,1-20.05,45.7l-4.17,6.73,5.6,5.6,16.56,16.56a19,19,0,0,1,0,26.88L395.3,420.07a19,19,0,0,1-26.88,0l-17.61-17.6-5.41-5.42-6.64,3.82A177.88,177.88,0,0,1,294.05,419L286.52,421v33a19,19,0,0,1-19,19h-35a19,19,0,0,1-19-19V421.1l-7.57-1.9a177.57,177.57,0,0,1-45-18.08l-6.64-3.78-5.39,5.4-17.34,17.33a19,19,0,0,1-26.88,0L79.93,395.3a19,19,0,0,1,0-26.88L96,352.32l5.62-5.61L97.44,340a178.12,178.12,0,0,1-20.33-46.14l-2-7.31H46a19,19,0,0,1-19-19v-35a19,19,0,0,1,19-19H73.17l1.77-7.79a178,178,0,0,1,19.27-49.37L98,149.69l-5.41-5.42L79.93,131.58a19,19,0,0,1,0-26.88L104.7,79.93a19,19,0,0,1,26.88,0l11.65,11.64,5.59,5.6L155.56,93a177.8,177.8,0,0,1,50.35-21.29l7.57-1.9V46a19,19,0,0,1,19-19h35M250,367.48A117.48,117.48,0,1,0,132.52,250,117.61,117.61,0,0,0,250,367.48M267.51,17h-35a29,29,0,0,0-29,29V62A187.87,187.87,0,0,0,150.3,84.5L138.66,72.86a29,29,0,0,0-41,0L72.86,97.63a29,29,0,0,0,0,41l12.69,12.68a187.8,187.8,0,0,0-20.37,52.14H46a29,29,0,0,0-29,29v35a29,29,0,0,0,29,29H67.48A187.84,187.84,0,0,0,89,345.25L72.86,361.34a29,29,0,0,0,0,41l24.77,24.77a29,29,0,0,0,41,0L156,409.81a187.6,187.6,0,0,0,47.49,19.09V454a29,29,0,0,0,29,29h35a29,29,0,0,0,29-29V428.72a188,188,0,0,0,47.22-19.18l17.6,17.6a29,29,0,0,0,41,0l24.77-24.77a29,29,0,0,0,0-41l-16.56-16.55a188,188,0,0,0,21.18-48.27H454a29,29,0,0,0,29-29v-35a29,29,0,0,0-29-29H434.06A187.81,187.81,0,0,0,414,151.83l13.17-13.17a29,29,0,0,0,0-41L402.37,72.86a29,29,0,0,0-41,0L349.41,84.79A188.21,188.21,0,0,0,296.52,62.2V46a29,29,0,0,0-29-29ZM250,357.48A107.48,107.48,0,1,1,357.48,250,107.48,107.48,0,0,1,250,357.48Z" transform="translate(-17 -17)"/></svg>