<svg id="Layer_1" data-name="Layer 1" xmlns="http://www.w3.org/2000/svg" viewBox="0 0 497.37 497.37">
  <defs>
    <style>
      .stroke {
        stroke: "currentColor";
        stroke-miterlimit: 10;
        stroke-width: 3px;
      }
    </style>
  </defs>
  <g id="Mask">
    <g id="Shards" class="stroke">
      <g>
        <path class="cls-1" d="M127.14,308a2.49,2.49,0,0,1-2.37-3.29l5.38-16a2.5,2.5,0,0,1,1.82-1.64l5.58-1.26,1.63-1a2.48,2.48,0,0,1,1.31-.37,2.52,2.52,0,0,1,1,.19,2.55,2.55,0,0,1,1.47,1.77l1.37,6.21a2.49,2.49,0,0,1-.84,2.45l-14.73,12.34A2.46,2.46,0,0,1,127.14,308Z" transform="translate(-0.45 -1.31)"/>
        <path d="M140.49,287l1.38,6.22-14.73,12.33,5.38-16,6-1.35,2-1.23m0-5a5,5,0,0,0-2.63.75l-1.27.78-5.18,1.17a5,5,0,0,0-3.64,3.28l-5.38,16a5,5,0,0,0,7.95,5.43L145.08,297a5,5,0,0,0,1.67-4.91l-1.37-6.22A5,5,0,0,0,140.5,282Z" transform="translate(-0.45 -1.31)"/>
      </g>
      <g>
        <path class="cls-1" d="M208.37,313.12h-.3a2.48,2.48,0,0,1-1.71-1l-12.64-17.22a2.52,2.52,0,0,1-.37-2.25l1-3.07A2.45,2.45,0,0,1,196,288a2.27,2.27,0,0,1,.77-.13,2.47,2.47,0,0,1,1.47.49l10.13,7.4,8.72,7a2.5,2.5,0,0,1,0,3.87L210,312.54A2.48,2.48,0,0,1,208.37,313.12Z" transform="translate(-0.45 -1.31)"/>
        <path d="M196.73,290.33l10,7.34,8.72,7-7.11,5.91L195.73,293.4l1-3.07m0-5a4.76,4.76,0,0,0-1.53.25,5,5,0,0,0-3.22,3.21l-1,3.06a5,5,0,0,0,.72,4.5l12.64,17.23a5,5,0,0,0,3.43,2q.3,0,.6,0a5,5,0,0,0,3.2-1.15l7.11-5.92a5,5,0,0,0,1.79-3.88,5,5,0,0,0-1.85-3.86l-8.72-7-.19-.15-10-7.33a5,5,0,0,0-3-1Z" transform="translate(-0.45 -1.31)"/>
      </g>
      <g>
        <path class="cls-1" d="M222.11,340.7a2.5,2.5,0,0,1-1.65-4.38l7.1-6.23,6.7-5.58,2.8-6.44a2.51,2.51,0,0,1,2.3-1.51l.24,0a2.5,2.5,0,0,1,2.2,1.94L245.92,337a2.5,2.5,0,0,1-2.36,3.05Z" transform="translate(-0.45 -1.31)"/>
        <path d="M239.36,319.06l4.12,18.44-21.37.7,7.1-6.23,7.11-5.92,3-7m0-5a5,5,0,0,0-4.59,3L232.2,323,226,328.13l-.09.08-7.11,6.23a5,5,0,0,0,3.3,8.76h.16l21.38-.7a5.05,5.05,0,0,0,3.79-1.93,5,5,0,0,0,.92-4.16L244.24,318a5,5,0,0,0-4.41-3.88l-.47,0Z" transform="translate(-0.45 -1.31)"/>
      </g>
      <g>
        <path class="cls-1" d="M225.54,324.45a2.52,2.52,0,0,1-1.57-.55l-8.72-7a2.5,2.5,0,0,1,1.57-4.45l11.78,0a2.51,2.51,0,0,1,2.28,3.5l-3,7a2.5,2.5,0,0,1-1.69,1.43A2.46,2.46,0,0,1,225.54,324.45Z" transform="translate(-0.45 -1.31)"/>
        <path d="M216.82,314.91l11.76,0-3,7-8.72-7m0-5a5,5,0,0,0-3.14,8.89l8.72,7a5,5,0,0,0,3.14,1.11,5.3,5.3,0,0,0,1.19-.14,5,5,0,0,0,3.4-2.86l3-7a5,5,0,0,0-4.56-7l-11.77,0Z" transform="translate(-0.45 -1.31)"/>
      </g>
      <g>
        <path class="cls-1" d="M259,349.14a2.48,2.48,0,0,1-1-.22,2.51,2.51,0,0,1-1.43-2.69l5-29.46V312.2a2.49,2.49,0,0,1,2.31-2.49H264a2.49,2.49,0,0,1,2.47,2.11l3.78,23.82a2.51,2.51,0,0,1-.55,2l-8.78,10.62A2.53,2.53,0,0,1,259,349.14Z" transform="translate(-0.45 -1.31)"/>
        <path d="M264,312.2,267.78,336,259,346.64,264,317V312.2m0-5h-.4a5,5,0,0,0-4.61,5v4.36l-4.93,29.25a5,5,0,0,0,2.84,5.38,5.09,5.09,0,0,0,2.08.45,5,5,0,0,0,3.86-1.81l8.78-10.62a5,5,0,0,0,1.09-4l-3.78-23.83A5,5,0,0,0,264,307.2Z" transform="translate(-0.45 -1.31)"/>
      </g>
      <g>
        <path class="cls-1" d="M280.5,366.25a2.5,2.5,0,0,1-2.29-1.49l-7.76-17.58a2.5,2.5,0,0,1,.1-2.23L284,320.74a2.49,2.49,0,0,1,2.18-1.29,2.63,2.63,0,0,1,.83.14,2.51,2.51,0,0,1,1.64,2.78l-5,29.52-.68,12a2.5,2.5,0,0,1-2.05,2.31A2.28,2.28,0,0,1,280.5,366.25Z" transform="translate(-0.45 -1.31)"/>
        <path d="M286.19,322l-5,29.66-.69,12.14-7.77-17.58L286.19,322m0-5a5,5,0,0,0-4.37,2.57l-13.46,24.22a5,5,0,0,0-.2,4.45l7.77,17.58a5,5,0,0,0,4.57,3,4.53,4.53,0,0,0,.89-.08,5,5,0,0,0,4.1-4.63l.67-11.87,5-29.39a5,5,0,0,0-4.93-5.83Z" transform="translate(-0.45 -1.31)"/>
      </g>
      <g>
        <path class="cls-1" d="M296.92,324.45a2.57,2.57,0,0,1-.67-.09,2.51,2.51,0,0,1-1.68-1.54l-5-13.6a2.5,2.5,0,0,1,1.48-3.21l21.06-7.79c3.22-3.86,23.7-28.42,29.11-35.37,5.76-7.4,29.22-49.59,29.46-50a2.5,2.5,0,0,1,4.46,2.24,433.73,433.73,0,0,1-36.61,62.69c-22.6,32-39.34,45.57-40,46.13A2.52,2.52,0,0,1,296.92,324.45Z" transform="translate(-0.45 -1.31)"/>
        <path d="M372.86,214.05a425.53,425.53,0,0,1-36.38,62.27c-22.65,32-39.56,45.63-39.56,45.63l-5-13.59,21.69-8s23.66-28.33,29.6-36,29.66-50.33,29.66-50.33m0-5a5,5,0,0,0-4.38,2.57c-6.54,11.78-24.56,43.68-29.24,49.69-5.19,6.66-24.34,29.66-28.63,34.8l-20.44,7.56a5,5,0,0,0-3,6.41l5,13.6a5,5,0,0,0,3.35,3.09,5.09,5.09,0,0,0,1.34.18,5,5,0,0,0,3.13-1.1c.71-.57,17.72-14.41,40.52-46.64a428.08,428.08,0,0,0,36.85-63.09,5,5,0,0,0-4.55-7.07Z" transform="translate(-0.45 -1.31)"/>
      </g>
      <g>
        <path class="cls-1" d="M242,392a2.48,2.48,0,0,1-1.58-.57,2.5,2.5,0,0,1-.49-3.35l10.62-15.48,12.24-22a2.51,2.51,0,0,1,2.19-1.28h.11a2.48,2.48,0,0,1,2.17,1.49L275,368.42a2.53,2.53,0,0,1,0,1.93c-.21.52-5.19,12.73-16.12,13.43-8.35.54-15.09,7.42-15.15,7.49A2.5,2.5,0,0,1,242,392Z" transform="translate(-0.45 -1.31)"/>
        <path d="M265,351.84l7.76,17.59s-4.48,11.25-14,11.86S242,389.54,242,389.54L252.67,374,265,351.84m0-5a5,5,0,0,0-4.37,2.57l-12.18,21.91-10.56,15.39a5,5,0,0,0,7.73,6.29c0-.05,6.17-6.25,13.51-6.72,12.49-.81,18-14.43,18.28-15a5,5,0,0,0-.07-3.87l-7.77-17.59a5,5,0,0,0-4.34-3Z" transform="translate(-0.45 -1.31)"/>
      </g>
      <g>
        <path class="cls-1" d="M316.11,381a19.61,19.61,0,0,1-5.73-.78,2.51,2.51,0,0,1-1.15-4,27.44,27.44,0,0,1,11.9-7.93,41.68,41.68,0,0,1,5.89-1.24c3.42-.55,5.68-.9,8-3.48,3.69-4.17,4.52-6.59,4.53-6.62a2.53,2.53,0,0,1,1.51-1.57,2.49,2.49,0,0,1,2.16.17l4.26,2.54a2.51,2.51,0,0,1,.35,4.05c-.53.44-12.85,11-20.4,15.66A21.4,21.4,0,0,1,316.11,381Z" transform="translate(-0.45 -1.31)"/>
        <path d="M341.91,357.7l4.26,2.54s-12.62,10.84-20.08,15.43a18.8,18.8,0,0,1-10,2.8,17.32,17.32,0,0,1-4.95-.66,25,25,0,0,1,10.69-7.13c6.36-1.91,10.77-.68,15-5.45s5.05-7.53,5.05-7.53m-.21-5.1A4.34,4.34,0,0,0,340,353a4.7,4.7,0,0,0-2.85,3.25,22.68,22.68,0,0,1-4,5.71c-1.61,1.81-2.92,2.1-6.49,2.67a43.4,43.4,0,0,0-6.21,1.32,29.59,29.59,0,0,0-13.1,8.72,5,5,0,0,0,2.29,7.94,21.94,21.94,0,0,0,6.51.91,24,24,0,0,0,12.61-3.54c7.7-4.75,20.18-15.44,20.7-15.9a5,5,0,0,0-.69-8.08l-4.26-2.54a5.46,5.46,0,0,0-2.77-.81Z" transform="translate(-0.45 -1.31)"/>
      </g>
      <g>
        <path class="cls-1" d="M301.28,348a2.46,2.46,0,0,1-1.28-.36l-4.26-2.54a2.49,2.49,0,0,1-1.22-2.28l.69-12.15a2.51,2.51,0,0,1,2.13-2.33,2.31,2.31,0,0,1,.37,0,2.5,2.5,0,0,1,2.34,1.64l5,13.59a2.51,2.51,0,0,1-.83,2.86l-1.44,1.09A2.48,2.48,0,0,1,301.28,348Z" transform="translate(-0.45 -1.31)"/>
        <path d="M297.71,330.85l5,13.6-1.43,1.09L297,343l.69-12.15m0-5a4.62,4.62,0,0,0-.74.06,5,5,0,0,0-4.25,4.66L292,342.71a5,5,0,0,0,2.43,4.58l4.26,2.54a5,5,0,0,0,2.56.71,5,5,0,0,0,3-1l1.44-1.09a5,5,0,0,0,1.67-5.71l-5-13.59a5,5,0,0,0-4.69-3.28Z" transform="translate(-0.45 -1.31)"/>
      </g>
      <g>
        <path class="cls-1" d="M211.92,392.46a2.5,2.5,0,0,1-2.37-3.3l3-8.82a2.52,2.52,0,0,1,1.33-1.48l8-3.69,4-5.89a2.47,2.47,0,0,1,2.06-1.09,2.27,2.27,0,0,1,.63.08,2.49,2.49,0,0,1,1.86,2.19c.18,1.93.9,11.75-2.11,15.82s-14,5.85-16.11,6.15A2,2,0,0,1,211.92,392.46Z" transform="translate(-0.45 -1.31)"/>
        <path d="M228,370.69s1,10.59-1.63,14.1S211.92,390,211.92,390l3-8.82,8.67-4,4.43-6.46m0-5a5,5,0,0,0-4.12,2.17l-3.65,5.33-7.42,3.4a5,5,0,0,0-2.65,3l-3,8.82a5,5,0,0,0,4.74,6.6,5.34,5.34,0,0,0,.69,0c4.19-.58,14.3-2.45,17.77-7.15S233.32,374,233,370.23a5,5,0,0,0-5-4.54Z" transform="translate(-0.45 -1.31)"/>
      </g>
      <g>
        <path class="cls-1" d="M171.28,319.9a7.92,7.92,0,0,1-4.7-1.69,6.7,6.7,0,0,0-3.84-.88,26.61,26.61,0,0,0-7.17,1.23,2.44,2.44,0,0,1-.8.13,2.5,2.5,0,0,1-1.6-4.42l14.73-12.33a2.48,2.48,0,0,1,1.61-.59,2.53,2.53,0,0,1,1.39.43,2.49,2.49,0,0,1,1,2.85l-.59,1.84,5.54,7.56a2.49,2.49,0,0,1,0,2.89A7.1,7.1,0,0,1,171.28,319.9Z" transform="translate(-0.45 -1.31)"/>
        <path d="M169.51,303.85l-1,3.07,6.31,8.59a4.63,4.63,0,0,1-3.54,1.89,5.5,5.5,0,0,1-3.23-1.21,9.06,9.06,0,0,0-5.31-1.36,28.87,28.87,0,0,0-8,1.36l14.74-12.34m0-5A5,5,0,0,0,166.3,300l-14.74,12.34a5,5,0,0,0,4.81,8.57,23.65,23.65,0,0,1,6.37-1.1,4.86,4.86,0,0,1,2.37.4,10.35,10.35,0,0,0,6.17,2.17,9.58,9.58,0,0,0,7.67-4.07,5,5,0,0,0-.1-5.78L174.06,306l.2-.62a5,5,0,0,0-4.75-6.55Z" transform="translate(-0.45 -1.31)"/>
      </g>
      <g>
        <path class="cls-1" d="M196.35,349.93l-.34,0a2.48,2.48,0,0,1-1.75-1.12L184.18,333.3a2.49,2.49,0,0,1,2.1-3.86l.33,0a25,25,0,0,1,3.22.71,6,6,0,0,1,2.21,1.22,2.19,2.19,0,0,0,1.45.58h.18a1.79,1.79,0,0,0,1.35-.77,2.46,2.46,0,0,1,2-1.16h.09a2.53,2.53,0,0,1,2,1l6.33,8.64a2.49,2.49,0,0,1-.37,3.36l-7.1,6.22A2.52,2.52,0,0,1,196.35,349.93Z" transform="translate(-0.45 -1.31)"/>
        <path d="M186.28,331.94a22.15,22.15,0,0,1,2.84.63c1.55.46,1.54,1.61,4.1,1.89a3.54,3.54,0,0,0,.45,0,4.31,4.31,0,0,0,3.45-1.91l6.34,8.64-7.11,6.22-10.07-15.49m0-5a5,5,0,0,0-4.19,7.73l10.08,15.49a5,5,0,0,0,3.51,2.22,3.89,3.89,0,0,0,.68.05,5,5,0,0,0,3.3-1.24l7.1-6.22a5,5,0,0,0,.74-6.72l-6.34-8.64a5,5,0,0,0-4-2h-.2a5,5,0,0,0-3.54,1.68,8.32,8.32,0,0,0-2.84-1.48A25.43,25.43,0,0,0,187,327a3.89,3.89,0,0,0-.68-.05Z" transform="translate(-0.45 -1.31)"/>
      </g>
      <g>
        <path class="cls-1" d="M190.3,387.9a2.54,2.54,0,0,1-.6-.08L171,383.19a2.5,2.5,0,0,1,.6-4.93,3.27,3.27,0,0,1,.44,0l14.45,2.6L183.67,371a2.48,2.48,0,0,1,2.32-3.17l15-.49a2.5,2.5,0,0,1,2.06,3.91l-10.68,15.58A2.52,2.52,0,0,1,190.3,387.9Z" transform="translate(-0.45 -1.31)"/>
        <path d="M201,369.82,190.3,385.4l-18.74-4.64,18.38,3.31-3.87-13.77,14.92-.48m0-5h-.16l-14.92.49a5,5,0,0,0-4.65,6.35l1.71,6.08-10.52-1.9a5.45,5.45,0,0,0-.89-.08,5,5,0,0,0-1.2,9.86l18.74,4.63a5,5,0,0,0,5.33-2l10.68-15.58a5,5,0,0,0-4.12-7.82Z" transform="translate(-0.45 -1.31)"/>
      </g>
      <g>
        <path class="cls-1" d="M242,362.91a2.28,2.28,0,0,1-.45,0l-18.38-3.31a2.5,2.5,0,0,1-.94-4.54,42.35,42.35,0,0,0,6.16-5.16,4.76,4.76,0,0,0,1.18-1.66,2.5,2.5,0,0,1,2-3.85l6.54-.21a2.49,2.49,0,0,1,2.4,1.82l3.87,13.77a2.5,2.5,0,0,1-2.4,3.18Z" transform="translate(-0.45 -1.31)"/>
        <path d="M238.12,346.64,242,360.41l-18.38-3.31a44.77,44.77,0,0,0,6.57-5.5c3.1-3.21,1.48-4.75,1.48-4.75l6.46-.21m0-5H238l-6.45.22a5,5,0,0,0-4.72,6.06l-.19.2a40.24,40.24,0,0,1-5.75,4.81,5,5,0,0,0,1.88,9.09l18.38,3.31a5.35,5.35,0,0,0,.89.08,5,5,0,0,0,3.7-1.64,5,5,0,0,0,1.11-4.71l-3.87-13.77a5,5,0,0,0-4.81-3.65Z" transform="translate(-0.45 -1.31)"/>
      </g>
      <g>
        <path class="cls-1" d="M273,407.37a14.38,14.38,0,0,1-13-7.63,2.55,2.55,0,0,1-.23-1.31s.31-3.31.25-5.14-.17-3.62-.17-3.63a2.5,2.5,0,0,1,2-2.61l10.64-2.29a2.33,2.33,0,0,1,.53-.06,2.47,2.47,0,0,1,.6.08l18.48,4.56a10.77,10.77,0,0,1,1.28.22,17.26,17.26,0,0,0,3.73.45,16.21,16.21,0,0,0,8.37-2.5l.84-.53a2.5,2.5,0,0,1,2.73,4.19l-1,.6c-4.45,2.78-19.65,12-29.69,14.82A20.19,20.19,0,0,1,273,407.37Z" transform="translate(-0.45 -1.31)"/>
        <path d="M273,387.2l18.74,4.64h.06a33,33,0,0,0,5.29.68,18.49,18.49,0,0,0,9.67-2.87c-3.83,2.4-19.21,11.8-29.05,14.54a17.49,17.49,0,0,1-4.73.69,12,12,0,0,1-10.71-6.2s.33-3.45.26-5.46-.17-3.72-.17-3.72L273,387.2m34.65,1.88h0m0,0c-.3.2-.59.38-.89.56l.89-.56M273,382.2a4.72,4.72,0,0,0-1.06.12l-10.64,2.29a5,5,0,0,0-3.93,5.21s.1,1.65.16,3.56c.05,1.38-.16,3.94-.24,4.81a5,5,0,0,0,.46,2.63A16.91,16.91,0,0,0,273,409.87,22.7,22.7,0,0,0,279,409c10.35-2.89,25.78-12.26,30.33-15.1.34-.2.68-.42,1-.65a5,5,0,0,0-5.46-8.38l-.8.51a13.61,13.61,0,0,1-7.06,2.13,14.72,14.72,0,0,1-3.22-.4c-.46-.09-.91-.19-1.37-.24l-18.3-4.52a4.93,4.93,0,0,0-1.2-.15Z" transform="translate(-0.45 -1.31)"/>
      </g>
      <g>
        <path class="cls-1" d="M216.76,413.19a27.58,27.58,0,0,1-5.54-.42,2.5,2.5,0,0,1,.05-4.89c2.28-.45,8.8-1.9,11.5-3.16,2.14-1,2.47-4.63,2.47-4.66a2.52,2.52,0,0,1,2.11-2.29l.39,0a2.49,2.49,0,0,1,2.31,1.55h0a12.07,12.07,0,0,0,3.86,3.66,6.92,6.92,0,0,0,3.9.83,25.73,25.73,0,0,0,6.09-.86,2.35,2.35,0,0,1,.69-.1,2.51,2.51,0,0,1,1.14,4.73c-.18.09-4.45,2.22-16.25,4.37a72.33,72.33,0,0,1-12.72,1.27Z" transform="translate(-0.45 -1.31)"/>
        <path d="M227.74,400.24s.88,2.15,4.77,4.78a9.63,9.63,0,0,0,5.3,1.26,28.13,28.13,0,0,0,6.78-1s-4,2-15.56,4.14a69,69,0,0,1-12.27,1.23,26.38,26.38,0,0,1-5-.36s8.5-1.68,12.08-3.35,3.91-6.74,3.91-6.74m0-5.35q-.32,0-.63,0a5.15,5.15,0,0,0-4.34,5,4.21,4.21,0,0,1-1,2.57c-2.19,1-7.87,2.37-10.93,3a5,5,0,0,0-.09,9.8,30.66,30.66,0,0,0,6.07.47,74.36,74.36,0,0,0,13.16-1.31c12-2.18,16.47-4.36,16.94-4.6a5,5,0,0,0-2.27-9.46,4.92,4.92,0,0,0-1.37.19,22.91,22.91,0,0,1-5.41.77,5,5,0,0,1-2.5-.4,11.67,11.67,0,0,1-3-2.68,4.65,4.65,0,0,0-4.6-3.31Z" transform="translate(-0.45 -1.31)"/>
      </g>
      <g>
        <path class="cls-1" d="M129.19,380.11a2.47,2.47,0,0,1-1.67-.65,2.51,2.51,0,0,1-.7-2.65l12.53-37.17a2.51,2.51,0,0,1,1.46-1.53,22.31,22.31,0,0,1,4.82-1.17,51.22,51.22,0,0,1,5.29-.31h0a2.49,2.49,0,0,1,2.09,1.13c1.66,2.52,9.93,15.17,10.42,16,.7,1.24,1.67,4.65-4.38,9.46-3.84,3.05-4.56,3.58-4.69,3.67a2.49,2.49,0,0,1-.9.39l-9.66,2.08L139.93,375a2.58,2.58,0,0,1-1,.86l-8.67,4A2.58,2.58,0,0,1,129.19,380.11Z" transform="translate(-0.45 -1.31)"/>
        <path d="M150.92,339.13s9.86,15.05,10.33,15.89.32,3-3.75,6.27-4.56,3.58-4.56,3.58l-10.64,2.29-4.43,6.46-8.68,4,12.53-37.17a19.68,19.68,0,0,1,4.22-1,47.32,47.32,0,0,1,5-.29m0-5h0a53.62,53.62,0,0,0-5.58.33,24.39,24.39,0,0,0-5.43,1.32,5,5,0,0,0-2.92,3.06L124.46,376a5,5,0,0,0,6.82,6.14l8.67-4a4.94,4.94,0,0,0,2-1.72l3.31-4.82,8.69-1.88a4.92,4.92,0,0,0,1.79-.77c.51-.35,2.91-2.25,4.83-3.78,7.76-6.17,5.79-11.23,5-12.63-.48-.86-6.79-10.51-10.51-16.18a5,5,0,0,0-4.18-2.26Z" transform="translate(-0.45 -1.31)"/>
      </g>
      <g id="Side_Bit" data-name="Side Bit">
        <path d="M257.22,89.31a194.9,194.9,0,0,1,24.26,1.37s-25.24,74.87-38.55,114.38c.1-.78,5.74-45.95,10.71-92.49-1.55-1-4.45-1.51-8.26-1.51-19.39,0-62.38,12.26-72.09,25.77-14.38,18.51-20.61,46.38-29.44,89.66,1.72-30.3,1.3-45.11,12.57-94.58,21.22-36.65,70.84-42.6,100.8-42.6M242.93,205.06h0c-5.68,16.86-8,23.76-8,23.76l8-23.77M257.22,84.31c-14.17,0-35.25,1.35-55.21,7.8-23.12,7.46-39.91,20-49.92,37.3a5.24,5.24,0,0,0-.55,1.39c-10,44-10.91,61.29-12.14,85.2-.17,3.24-.34,6.61-.54,10.2a5,5,0,0,0,4.35,5.25c.21,0,.43,0,.64,0a5,5,0,0,0,4.9-4c8.73-42.82,14.78-70,28.49-87.6l.11-.15c3.68-5.11,14.87-11.14,29.93-16.11,13.9-4.6,28.86-7.57,38.1-7.57a27.22,27.22,0,0,1,2.85.13c-4.6,42.61-9.56,82.59-10.2,87.75l-5.63,16.71-1.64,4.86c-.84,2.5-1.39,4.15.1,6.24a5,5,0,0,0,4.06,2.08c1.34,0,3.76-.5,4.88-3.83l.44-1.31,1.85-5.47,5.58-16.56,0-.13,38.5-114.25a5,5,0,0,0-4-6.55,197.71,197.71,0,0,0-24.95-1.42Z" transform="translate(-0.45 -1.31)"/>
      </g>
      <g id="Main_Mask_Half" data-name="Main Mask Half">
        <path class="cls-1" d="M248.73,324.45l-.35,0a2.52,2.52,0,0,1-2.09-1.93L242.6,306l-9.76,0a2.51,2.51,0,0,1-1.47-.48l-10-7.33a2.51,2.51,0,0,1-1-1.48l-.67-3L214,294.93a2.13,2.13,0,0,1-.55.07,2.5,2.5,0,0,1-2.37-3.3l68-201.82a2.48,2.48,0,0,1,1.47-1.53,2.52,2.52,0,0,1,.9-.17,2.46,2.46,0,0,1,1.21.32,205.57,205.57,0,0,1,40.09,30.81c25.93,25.64,38.3,53.34,35.78,80.12a2.63,2.63,0,0,1-.22.82c-11.2,24.11-22.78,44.65-34.4,61-5.85,7.6-29.83,36.35-30.85,37.57a2.52,2.52,0,0,1-1,.74l-21.69,8a2.39,2.39,0,0,1-.87.16,2.5,2.5,0,0,1-1.92-4.1l8.06-9.74-1.88-11.84-22.82,41.07A2.51,2.51,0,0,1,248.73,324.45ZM253.79,239c11.54,0,24,2.22,36.94,6.59a29.38,29.38,0,0,0,9.38,1.59c17.43,0,29.91-17.08,35.15-25.84a82.87,82.87,0,0,1-17.88,1.87,95.64,95.64,0,0,1-30.58-5.1,29.67,29.67,0,0,0-9.49-1.62c-16.42,0-27.93,15.25-32.74,23.05A75.54,75.54,0,0,1,253.79,239Z" transform="translate(-0.45 -1.31)"/>
        <path d="M281.48,90.68s80.58,44.91,74.59,108.51c-11.77,25.36-23.22,45.22-34.17,60.65-5.83,7.57-30.73,37.42-30.73,37.42l-21.69,8,8.79-10.62-3.78-23.83v4.79L248.73,322l-4.12-18.43-11.76,0-10-7.33-1.38-6.21-2,1.22-6,1.35,8.63-25.62c6.22-18.46,13.33-39.57,20.83-61.81L281.48,90.68M239.8,243s4.95-1.46,14-1.46c8.6,0,20.89,1.32,36.14,6.46a31.93,31.93,0,0,0,10.18,1.72c25.19,0,40.18-32.33,40.18-32.33s-8.86,3.36-22.91,3.36a93.06,93.06,0,0,1-29.78-5A32,32,0,0,0,277.31,214c-23.84,0-37.51,29-37.51,29M281.48,85.68a5,5,0,0,0-4.74,3.41L238.19,203.47l-20.83,61.81-2.73,8.11-5.9,17.51a5,5,0,0,0,4.74,6.6,4.65,4.65,0,0,0,1.1-.13l3.24-.73.13.58a4.93,4.93,0,0,0,1.93,2.95l10,7.34a5,5,0,0,0,2.93,1l7.77,0L243.85,323A5,5,0,0,0,248,326.9a5.81,5.81,0,0,0,.72.05,5,5,0,0,0,4.36-2.57l19.31-34.73.56,3.56-7.34,8.88a5,5,0,0,0,5.59,7.88l21.69-8a5.06,5.06,0,0,0,2.1-1.49c1-1.22,25-30,30.85-37.56l.12-.16c11.71-16.52,23.36-37.19,34.63-61.44a4.93,4.93,0,0,0,.44-1.64c1.46-15.47-1.79-31.12-9.65-46.53-6.18-12.11-15.22-24.09-26.86-35.6a209.54,209.54,0,0,0-40.63-31.22,5.09,5.09,0,0,0-2.43-.63Zm-32,151C255,229,264.66,219,277.31,219a27.52,27.52,0,0,1,8.69,1.49,98,98,0,0,0,31.38,5.24,89.65,89.65,0,0,0,12.65-.88c-6,8.59-16.46,19.85-29.92,19.85a27,27,0,0,1-8.58-1.46c-13.23-4.46-25.93-6.72-37.74-6.72-1.53,0-2.95,0-4.26.1Z" transform="translate(-0.45 -1.31)"/>
      </g>
    </g>
    <g id="Side_Bit-2" data-name="Side Bit">
      <path class="cls-1" d="M257.22,89.31v5c7.25,0,13.34.36,17.52.7l-21.09,62.57c1.58-13.58,3.31-28.93,5-44.48l.32-3-2.53-1.68c-2.41-1.59-5.91-2.34-11-2.34-10.22,0-26.4,3.17-41.24,8.07-10.11,3.34-28,10.33-34.85,19.7a95.38,95.38,0,0,0-13.39,24.72c1.37-7.2,3.08-15.34,5.22-24.78,20.43-34.31,68.91-39.46,96.1-39.46v-5m0,0c-30,0-79.58,6-100.8,42.6-11.27,49.47-10.85,64.28-12.57,94.58,8.83-43.28,15.06-71.15,29.44-89.66,9.71-13.51,52.7-25.77,72.09-25.77,3.81,0,6.71.48,8.26,1.51-5,46.54-10.61,91.71-10.71,92.49,13.31-39.51,38.55-114.38,38.55-114.38a194.9,194.9,0,0,0-24.26-1.37ZM242.93,205.06l-8,23.77s2.33-6.9,8-23.76Z" transform="translate(-0.45 -1.31)"/>
    </g>
  </g>
</svg>
