<svg id="Layer_1" data-name="Layer 1" xmlns="http://www.w3.org/2000/svg" viewBox="0 0 901 901">
  <defs>
    <style>
      .cls-1 {
        opacity: 0.51;
      }

      .cls-2 {
        fill: #fff;
      }
    </style>
  </defs>
  <g class="cls-1">
    <circle cx="450" cy="450.5" r="450.5"/>
  </g>
  <g class="cls-1">
    <path class="cls-2" d="M668.73,398.26H642.56c.5-5.7.78-11.47.78-17.31V364.36C643.34,257.58,556.78,171,450,171h0c-106.78,0-193.34,86.56-193.34,193.34V381c0,5.84.28,11.61.78,17.31H231.27a27.61,27.61,0,0,0-27.61,27.62V702.36A27.62,27.62,0,0,0,231.27,730H668.73a27.62,27.62,0,0,0,27.61-27.62V425.88A27.61,27.61,0,0,0,668.73,398.26ZM510,635.71H390a7.76,7.76,0,0,1-6.72-11.63l29.69-67.54a58.84,58.84,0,1,1,74.12,0l29.69,67.54A7.76,7.76,0,0,1,510,635.71ZM541.77,398H358.5s-24-119,92-127C564.5,281,541.77,398,541.77,398Z"/>
  </g>
</svg>
