<svg id="Layer_1" data-name="Layer 1" xmlns="http://www.w3.org/2000/svg" viewBox="0 0 500 500"><defs><style>.cls-1{fill:"currentColor";}.cls-2,.cls-3{fill:#fff;}.cls-3{font-size:92.32px;font-family:MyriadPro-Regular, Myriad Pro;}</style></defs><circle class="cls-1" cx="250" cy="250" r="250"/><path class="cls-2" d="M292.28,161.22h0a182.81,182.81,0,0,1,27.9,2.22l-18.49,42.89c1.84-9.27,3.79-19.26,5.72-29.36l.56-3-2.38-1.88c-1.66-1.32-4.94-3.06-14.1-3.06-16,0-51.14,6.33-61.56,18.43a72.74,72.74,0,0,0-9.36,13c1.15-3.89,2.43-8.09,3.87-12.67,15.69-21.92,45.5-26.55,67.84-26.55m0-5c-24.5,0-55.74,5.33-72.38,29.31-12.81,40.57-13.48,53-17,78.18,10.35-35.56,17.46-58.43,30.76-72.92,8.33-9.78,40.18-16.74,57.82-16.74,5.28,0,9.28.62,11,2-7.34,38.53-15.15,75.87-15.3,76.57l40.07-92.95a177.86,177.86,0,0,0-35-3.43Zm-5.09,96.38-8.32,19.32,8.32-19.31Z" transform="translate(0 -0.5)"/><path class="cls-2" d="M327.26,159.65l-40.07,93L234.86,374s69.85,17.75,147.3-118.55C391.53,202.72,327.26,159.65,327.26,159.65Zm-3.73,132.07c-25.42-11-41.56-7.62-41.56-7.62s17.31-30,41.82-19.47,43.93,5,43.93,5S349,302.67,323.53,291.72Z" transform="translate(0 -0.5)"/><text class="cls-3" transform="translate(173.48 186.27)">+</text></svg>