<svg id="Layer_1" data-name="Layer 1" xmlns="http://www.w3.org/2000/svg" viewBox="0 0 497.37 497.37">
  <defs>
    <style>
    .cls-1 {
      fill: #fff;
    }
    .cls-2 {
      fill: none;
      stroke: "currentColor";
      stroke-miterlimit: 10;
      stroke-width: 3px;
    }
    .fill {
      fill: "currentColor";
    }
    .stroke {
      stroke: "currentColor";
      stroke-width: 5px;
    }
    </style>
  </defs>
  <path class="cls-1" d="M249.13,8.38,490.75,250,249.13,491.62,7.52,250,249.13,8.38m0-7.07L.45,250,249.13,498.69,497.82,250,249.13,1.31Z" transform="translate(-0.45 -1.31)"/><path class="cls-1" d="M420,79.15v341.7H78.29V79.15H420m5-5H73.29v351.7H425V74.15Z" transform="translate(-0.45 -1.31)"/>
  <g id="Skull" class="stroke">
    <path class="cls-1" d="M262.85,449.22c-6.78,0-11.66-.45-12.85-.57-1.19.12-6.07.57-12.85.57-13.4,0-32.17-1.73-45.46-10-17.22-10.66-24.59-31.69-28.56-43a47.51,47.51,0,0,0-2.27-5.85c-3.42-5.7-18.89-67.35-21.29-77.72-2.26-9.8-3.68-10.69-6-12.18-.6-.38-1.29-.81-2-1.38-3.8-2.85-5.19-8.5-7.12-16.33-.55-2.22-1.11-4.52-1.79-7-1-3.6-1.84-6.16-2.67-8.64a89.89,89.89,0,0,1-4.4-18.66c-1.26-8.84-.23-12.9.76-16.82a30.76,30.76,0,0,0,1.22-8.53c0-6.16-.72-6.54-1.29-6.84a7.45,7.45,0,0,1-2-1.4c-2.52-2.52-2.56-20.86-1-36.42,1.76-17.69,6.5-44.32,19.14-70.7,10.26-21.43,31.46-37.43,63-47.57,24.42-7.85,47.72-9.57,54.64-9.57s30.23,1.72,54.65,9.57c31.54,10.14,52.74,26.14,63,47.57,12.64,26.38,17.38,53,19.14,70.7,1.54,15.56,1.5,33.9-1,36.42a7.45,7.45,0,0,1-2,1.4c-.57.3-1.29.68-1.29,6.84a30.76,30.76,0,0,0,1.22,8.53c1,3.92,2,8,.76,16.82a89.89,89.89,0,0,1-4.4,18.66c-.83,2.48-1.68,5-2.67,8.64-.68,2.5-1.24,4.8-1.79,7-1.93,7.83-3.32,13.48-7.12,16.33-.75.57-1.44,1-2,1.38-2.34,1.49-3.76,2.38-6,12.18-2.4,10.37-17.87,72-21.29,77.72a47.51,47.51,0,0,0-2.27,5.85c-4,11.3-11.34,32.33-28.56,43-13.29,8.23-32.06,10-45.46,10Zm55.72-79.52a10,10,0,0,1,2.19,1.67,20.47,20.47,0,0,1,2.27,2.71c1.57-1.29,5-5.44,8.55-18.6,4.58-16.78,11.54-38.4,14.56-47.64a34.33,34.33,0,0,1-7.15.8c-5.72,0-10.66,0-13.92,4.88-3.08,4.63-4.58,9.08-4.58,13.62a13.4,13.4,0,0,1-1.35,5.46c-.71,1.65-1.06,2.58-.72,3.93a27.32,27.32,0,0,0,1.69,4.38c1.17,2.6,2.38,5.29,2.38,8.23a7.8,7.8,0,0,1-2.69,6.2,38.78,38.78,0,0,1-.33,9.11A44.19,44.19,0,0,1,318.57,369.7ZM153.86,307.84c3,9.24,10,30.86,14.56,47.64,3.57,13.1,6.94,17.27,8.56,18.58a20.93,20.93,0,0,1,2.26-2.69,10,10,0,0,1,2.19-1.67,44.19,44.19,0,0,1-.9-5.25,38.78,38.78,0,0,1-.33-9.11,7.8,7.8,0,0,1-2.69-6.2c0-2.94,1.21-5.63,2.38-8.23a27.32,27.32,0,0,0,1.69-4.38c.34-1.35,0-2.28-.72-3.93a13.4,13.4,0,0,1-1.35-5.46c0-4.54-1.5-9-4.58-13.62-3.26-4.88-8.2-4.88-13.92-4.88A34.33,34.33,0,0,1,153.86,307.84ZM250,273.53c.45,0,6.47,1.32,9.07,5.22.26.38.51.79.77,1.21.56.91,1.73,2.8,2.32,2.8.07,0,.71,0,2.06-1.39,1.24-2.41-5.24-15.46-14.22-28.8-9,13.34-15.46,26.4-14.17,28.86,1.3,1.29,1.94,1.33,2,1.33.59,0,1.76-1.89,2.32-2.81.26-.41.51-.82.77-1.2C243.53,274.85,249.55,273.53,250,273.53ZM315.92,193c-15.42,0-31.71,5.38-37.54,9.27a18.38,18.38,0,0,0-8.15,14.25,24.85,24.85,0,0,0,3.84,15.28c5.55,8.32,28.73,27.81,48.5,27.81a27.22,27.22,0,0,0,6.79-.84c8.86-2.31,15.08-6.94,18.49-13.76,4.64-9.25,3.89-22-2.17-36.88C340.58,195.57,326.68,193,315.92,193Zm-131.84,0c-10.76,0-24.66,2.62-29.76,15.13-6.06,14.87-6.81,27.63-2.17,36.88,3.41,6.82,9.63,11.45,18.49,13.76a27.16,27.16,0,0,0,6.79.84c19.77,0,42.95-19.49,48.5-27.81,5.16-7.74,6.53-22.31-4.31-29.53C215.79,198.33,199.5,193,184.08,193Z" transform="translate(-0.45 -1.31)"/><path d="M250,53.14c13.34,0,91.88,6.62,115.4,55.72C389,158.14,386,211.14,384,213.14s-4,0-4,10,4,11,2,25-4,16-7,27-4,19-8,22-6,2-9,15-18,72-21,77-9,35-30,48c-13,8.05-31.75,9.58-44.14,9.58-7.58,0-12.79-.58-12.85-.58s-5.27.58-12.85.58c-12.39,0-31.14-1.54-44.14-9.58-21-13-27-43-30-48s-18-64-21-77-5-12-9-15-5-11-8-22-5-13-7-27,2-15,2-25-2-8-4-10-5-55,18.6-104.28c23.52-49.1,102-55.72,115.38-55.72m72.58,208.92a29.29,29.29,0,0,0,7.42-.92c23-6,29-27,18-54-5.12-12.58-18.27-16.69-32.07-16.69-15.83,0-32.52,5.41-38.93,9.69-12,8-11,24-5,33,5.37,8.05,29.16,28.92,50.58,28.92m-145.14,0c21.42,0,45.21-20.87,50.58-28.92,6-9,7-25-5-33-6.41-4.28-23.1-9.69-38.93-9.69-13.8,0-27,4.11-32.07,16.69-11,27-5,48,18,54a29.35,29.35,0,0,0,7.42.92m60.41,23.2c2.39,0,3.78-3,5.17-5.12,2-2.95,7-4.11,7-4.11h0s5,1.16,7,4.11c1.39,2.08,2.78,5.12,5.17,5.12,1,0,2.3-.59,3.83-2.12,5-5-15.83-34.76-16-35-.16.23-21,30-16,35,1.53,1.53,2.78,2.12,3.83,2.12m77.36,85.89H315a.19.19,0,0,0,.11,0,.2.2,0,0,0,.1,0,6.49,6.49,0,0,1,3.79,2,17.27,17.27,0,0,1,3,4h.12c.88,0,6.38-.84,11.88-21,6-22,16-52,16-52a33,33,0,0,1-11,2c-6,0-12,0-16,6s-5,11-5,15-3,6-2,10,4,8,4,12-3,5-3,5,1,2,0,10c-.73,5.82-1.45,6.87-1.79,7m-137.31,6H178a17.27,17.27,0,0,1,3-4,6.49,6.49,0,0,1,3.79-2,.2.2,0,0,0,.1,0,.19.19,0,0,0,.11,0h-.21c-.34-.14-1.06-1.19-1.79-7-1-8,0-10,0-10s-3-1-3-5,3-8,4-12-2-6-2-10-1-9-5-15-10-6-16-6a33,33,0,0,1-11-2s10,30,16,52c5.5,20.16,11,21,11.88,21m72.1-329c-7,0-30.68,1.74-55.4,9.69-14.2,4.56-26.56,10.45-36.75,17.5-12.61,8.73-22,19.28-27.74,31.37-12.79,26.71-17.59,53.64-19.37,71.53a193.52,193.52,0,0,0-1,24.86c.37,11.23,1.67,12.53,2.72,13.58a9.89,9.89,0,0,0,2.24,1.66,27,27,0,0,1,.3,4.81,28.19,28.19,0,0,1-1.15,7.92c-1,4-2.14,8.45-.8,17.78a91.17,91.17,0,0,0,4.5,19.1c.82,2.45,1.66,5,2.62,8.51.68,2.47,1.24,4.75,1.78,7,2.06,8.33,3.54,14.34,8,17.73.83.62,1.59,1.1,2.2,1.49,1.87,1.18,2.9,1.84,4.93,10.63,1.77,7.69,17.81,72.17,21.58,78.45a54.8,54.8,0,0,1,2.05,5.39c4.07,11.59,11.64,33.16,29.61,44.29,13.79,8.54,33.05,10.33,46.77,10.33,6.48,0,11.27-.4,12.85-.56,1.58.16,6.37.56,12.85.56,13.73,0,33-1.79,46.77-10.33,18-11.13,25.54-32.7,29.61-44.29a54.8,54.8,0,0,1,2-5.39c3.77-6.28,19.81-70.76,21.58-78.45,2-8.79,3.06-9.45,4.93-10.63.61-.39,1.37-.87,2.2-1.49,4.51-3.39,6-9.4,8.05-17.73.54-2.21,1.1-4.49,1.78-7,1-3.53,1.8-6.06,2.62-8.51a91.17,91.17,0,0,0,4.5-19.1c1.34-9.33.2-13.82-.8-17.78a28.19,28.19,0,0,1-1.15-7.92,27,27,0,0,1,.3-4.81,9.89,9.89,0,0,0,2.24-1.66c1.05-1,2.35-2.35,2.72-13.58a193.52,193.52,0,0,0-1-24.86c-1.78-17.89-6.58-44.82-19.37-71.53-5.79-12.09-15.13-22.64-27.75-31.37-10.18-7-22.55-12.94-36.75-17.5C280.68,49.88,257,48.14,250,48.14Zm72.58,208.92c-18.59,0-41.25-18.95-46.42-26.7-4.57-6.86-5.87-19.74,3.62-26.06,5.56-3.71,21.22-8.85,36.15-8.85,10,0,22.87,2.35,27.44,13.57,5.7,14,6.5,26.35,2.26,34.82-3.08,6.15-8.76,10.34-16.89,12.46a24.58,24.58,0,0,1-6.16.76Zm-145.14,0a24.58,24.58,0,0,1-6.16-.76c-8.13-2.12-13.81-6.31-16.89-12.46-4.24-8.47-3.44-20.83,2.26-34.82,4.57-11.22,17.44-13.57,27.44-13.57,14.93,0,30.59,5.14,36.15,8.85,9.49,6.32,8.19,19.2,3.62,26.06-5.17,7.75-27.83,26.7-46.42,26.7Zm61.8,19.77c1.79-4.63,5.85-12.07,10.77-19.71,4.92,7.64,9,15.08,10.78,19.71-2.46-3.21-6.64-4.87-9.07-5.5h0a4.07,4.07,0,0,0-1.57-.31H250a13.07,13.07,0,0,0-4.77,1.37,14.86,14.86,0,0,0-6,4.43Zm83.16,79.47a10.41,10.41,0,0,0,2.6-7.16c0-3.48-1.38-6.55-2.6-9.25a27.63,27.63,0,0,1-1.55-4c-.13-.52,0-.82.6-2.34a15.77,15.77,0,0,0,1.55-6.44c0-4,1.36-8,4.16-12.23,2.41-3.61,5.72-3.77,11.84-3.77a33,33,0,0,0,3.51-.19c-3.42,10.56-9.3,29.09-13.33,43.87-2.36,8.67-4.59,13.11-6.1,15.35q-.26-.29-.54-.57a13.16,13.16,0,0,0-1.15-1c.21-1.13.4-2.4.57-3.82a48.3,48.3,0,0,0,.44-8.46ZM176.93,370.17c-1.51-2.24-3.74-6.68-6.1-15.35-4-14.78-9.91-33.31-13.33-43.87a33,33,0,0,0,3.51.19c6.12,0,9.43.16,11.84,3.77,2.8,4.2,4.16,8.2,4.16,12.23a15.77,15.77,0,0,0,1.55,6.44c.65,1.52.73,1.82.6,2.34a26.5,26.5,0,0,1-1.55,4c-1.22,2.7-2.6,5.77-2.6,9.25a10.41,10.41,0,0,0,2.6,7.16,48.3,48.3,0,0,0,.44,8.46c.17,1.42.36,2.69.57,3.82a13.16,13.16,0,0,0-1.15,1q-.28.28-.54.57Z" transform="translate(-0.45 -1.31)"/>
  </g>
  <g id="blackStroke" class="stroke">
    <path class="cls-2" d="M245.7,355.94a19.15,19.15,0,0,1,2.77.24c2,.28,1.53,15.45,1.53,15.45a6.67,6.67,0,0,1-6,4c-4.45,0-8.21-4-8.21-4s-4.69,4.75-9.57,4.75-7.7-4.75-7.7-4.75-4.1,6.17-9.37,6.3-5.49-7.22-5.21-6.3-3.23,3.43-5.27,3.15-3.76-3.15-3.76-3.15-.79,2.8-2.71,2.74a3.78,3.78,0,0,1-2.7-1s-.53,1.51-2.5.59a5.11,5.11,0,0,1-2.58-2.83s-1.4-4-1.2-5.49-.88-5.79-.49-8.06a5.94,5.94,0,0,0-.35-3.63" transform="translate(-0.45 -1.31)"/><path class="cls-2" d="M216.1,341.66s-2.24,12.66,0,13.78,3.43.27,5.8,0,9.5,1.26,12.79-.13" transform="translate(-0.45 -1.31)"/><path class="cls-2" d="M216.1,355.44s-4.48,2.11-6.86,1.59-7.78.19-8.7-2-.46-6.33.92-13.84" transform="translate(-0.45 -1.31)"/><path class="cls-2" d="M200.54,355s-.94,2.21-4.9,1.62a14.64,14.64,0,0,0-5.09-.2c-1,0-4-3.86-2.92-6.48s1.83-11.55,1.83-11.55" transform="translate(-0.45 -1.31)"/><path class="cls-2" d="M185.7,338.63c.27.62-2.92,10.63-3,10.85-.36,2,1.58,5.88,2.52,5.88s4,.16,4,.16" transform="translate(-0.45 -1.31)"/><path class="cls-2" d="M184.23,354.47a4.14,4.14,0,0,1-3.64-2.32c-1.32-2.44-.46-5.51.3-7.35s3.56-8.94,3.56-8.94c1.06.13,1.25,2.77,1.25,2.77a2.8,2.8,0,0,1,1.39-1.71c1-.46,2.37,1.45,2.37,1.45s1.32-2.18,5.94-1.65a7.44,7.44,0,0,1,6.06,4.42s4.16-3.43,8-4,6.66,4.48,6.66,4.48,1.58-3.23,2.83-3.49a60.11,60.11,0,0,1,10.22-1c4.36,0,6,6.46,6,6.46s1.39-5.67,8.44-5.67S250,348.52,250,348.52a10.44,10.44,0,0,1-.87,6.27c-.59,1.38-2.37,1-6.06,1.31s-8-.46-8.38-.79.46-11.67.46-11.67" transform="translate(-0.45 -1.31)"/><path class="cls-2" d="M235.75,371.63s-2.24-15.64,0-16" transform="translate(-0.45 -1.31)"/><path class="cls-2" d="M218.48,371.63s-.4-7.75-1.26-9.39-2.45-6.39-.67-6.59" transform="translate(-0.45 -1.31)"/><path class="cls-2" d="M203.9,371.63s-2.82-9.2-2.77-10.48-2.4-4.6-1.84-5" transform="translate(-0.45 -1.31)"/><path class="cls-2" d="M194.87,371.63s-1-4.65-2.49-6.33-1.39-4.15-1.68-6.08a18.81,18.81,0,0,0-.69-3" transform="translate(-0.45 -1.31)"/><path class="cls-2" d="M189.46,373.38s-.82-5-2.06-6.69a11.06,11.06,0,0,1-2.14-6.58c.05-2.47-.81-4.33-.26-4.84" transform="translate(-0.45 -1.31)"/><path class="cls-2" d="M123,238s9.69,20.83,9.3-39.83" transform="translate(-0.45 -1.31)"/><circle class="cls-2" cx="133.36" cy="259.19" r="1.38"/><circle class="cls-2" cx="148.92" cy="279.27" r="6.87"/><path class="cls-2" d="M254.28,355.94a19.24,19.24,0,0,0-2.77.24c-2,.28-1.53,15.45-1.53,15.45a6.69,6.69,0,0,0,6,4c4.45,0,8.21-4,8.21-4s4.69,4.75,9.56,4.75,7.71-4.75,7.71-4.75,4.09,6.17,9.36,6.3,5.49-7.22,5.21-6.3,3.23,3.43,5.28,3.15,3.76-3.15,3.76-3.15.79,2.8,2.7,2.74a3.78,3.78,0,0,0,2.7-1s.53,1.51,2.51.59a5.07,5.07,0,0,0,2.57-2.83s1.4-4,1.2-5.49.88-5.79.49-8.06a5.89,5.89,0,0,1,.36-3.63" transform="translate(-0.45 -1.31)"/><path class="cls-2" d="M283.89,341.66s2.24,12.66,0,13.78-3.43.27-5.81,0-9.49,1.26-12.79-.13" transform="translate(-0.45 -1.31)"/><path class="cls-2" d="M283.89,355.44s4.48,2.11,6.85,1.59,7.78.19,8.71-2,.46-6.33-.93-13.84" transform="translate(-0.45 -1.31)"/><path class="cls-2" d="M299.45,355s.94,2.21,4.89,1.62a14.69,14.69,0,0,1,5.1-.2c1,0,4-3.86,2.91-6.48s-1.83-11.55-1.83-11.55" transform="translate(-0.45 -1.31)"/><path class="cls-2" d="M314.28,338.63c-.27.62,2.93,10.63,3,10.85.36,2-1.58,5.88-2.52,5.88s-4,.16-4,.16" transform="translate(-0.45 -1.31)"/><path class="cls-2" d="M315.75,354.47a4.14,4.14,0,0,0,3.64-2.32c1.32-2.44.46-5.51-.3-7.35s-3.56-8.94-3.56-8.94c-1,.13-1.25,2.77-1.25,2.77a2.8,2.8,0,0,0-1.38-1.71c-1.06-.46-2.38,1.45-2.38,1.45s-1.32-2.18-5.93-1.65a7.45,7.45,0,0,0-6.07,4.42s-4.15-3.43-8-4-6.66,4.48-6.66,4.48-1.59-3.23-2.84-3.49a60,60,0,0,0-10.22-1c-4.35,0-6,6.46-6,6.46s-1.38-5.67-8.44-5.67S250,348.52,250,348.52a10.6,10.6,0,0,0,.87,6.27c.59,1.38,2.38,1,6.07,1.31s8-.46,8.37-.79-.46-11.67-.46-11.67" transform="translate(-0.45 -1.31)"/><path class="cls-2" d="M264.24,371.63s2.24-15.64,0-16" transform="translate(-0.45 -1.31)"/><path class="cls-2" d="M281.51,371.63s.4-7.75,1.25-9.39,2.46-6.39.67-6.59" transform="translate(-0.45 -1.31)"/><path class="cls-2" d="M296.08,371.63s2.82-9.2,2.77-10.48,2.4-4.6,1.85-5" transform="translate(-0.45 -1.31)"/><path class="cls-2" d="M305.12,371.63s1-4.65,2.49-6.33,1.38-4.15,1.68-6.08a18.29,18.29,0,0,1,.68-3" transform="translate(-0.45 -1.31)"/><path class="cls-2" d="M310.52,373.38s.82-5,2.07-6.69a11.06,11.06,0,0,0,2.14-6.58c-.05-2.47.81-4.33.25-4.84" transform="translate(-0.45 -1.31)"/><path class="cls-2" d="M377,238s-9.69,20.83-9.29-39.83" transform="translate(-0.45 -1.31)"/><circle class="cls-2" cx="365.74" cy="259.19" r="1.38"/><circle class="cls-2" cx="363.33" cy="268.53" r="3.02"/><circle class="cls-2" cx="350.17" cy="279.27" r="6.87"/><circle class="cls-2" cx="135.76" cy="268.53" r="3.02"/>
  </g>
  <g id="blackFill" class="fill">
    <path d="M240,213.19c0-1-2-4-2-5s-2-2-2-2,1-1,0-4-5-3-5-3a7.74,7.74,0,0,0-1-3c-1-2-4-2-4-2s0-4-4-4c-2.66,0-6.65,3.1-9,5.18-.1-2.41-.68-9.35-4-10.18-1.65-.41-3.23.75-4.52,2.25a35.32,35.32,0,0,0-3.48-4.25c-2-2-3,0-3,0a3.7,3.7,0,0,0-3-2c-2,0,0-1-2-1s-3,4-3,4-2-4-6-5-7,5-7,5-2-2-2-1a3.49,3.49,0,0,1-1,2s-4-5-5-4-4,7-4,7-2-2-3-1a3.1,3.1,0,0,0-1,2s-4-5-7-2c-2.23,2.23-1.7,8.33-1.28,11.31-3.12-1.25-6.67-1.94-7.72.69-1.79,4.47-.37,5.76,5,12.42-3.18.68-9,2.13-9,3.58,0,1.21,2.92,5,5.24,7.77-3.33,1.91-6.77,4.57-6.24,7.23.59,2.94,4.29,5.88,7.24,7.81-1.16,1.27-3.24,3.75-3.24,5.19,0,2,2,4,4,5a3,3,0,0,0,1.3.27,6.63,6.63,0,0,0-.3,4.73s1,3,0,4-4,10-3,11,9-6,9-5,5,2,5,2,4-1,5,0,1-2,2-1,1,6,2,8c.74,1.48,3.66-3,5.13-5.51a5,5,0,0,0,.87,1.51c1,1,3-2,3-2l1,1a4.94,4.94,0,0,0,3,1s1-2,2-2a1,1,0,0,0,1-1,3.55,3.55,0,0,1,3,2c1,2,3,0,3,0s3,2,4-1a17.65,17.65,0,0,1,3.58-5.55,34.9,34.9,0,0,0,2.42,3.55c1,1,4-1,6-2s4-6,4-6,7,3,9,2,0-4,2-3,1-4,1-4l1-4a7.74,7.74,0,0,0,3-1,7.47,7.47,0,0,0,3-3s1,1,3-1-2-4-2-4h2l-4-2s3,1,5-1,1-7,1-7a3.55,3.55,0,0,0,3-2c1-2-3-2-3-2v-1a1,1,0,0,0-1-1s6-3,6-4a10.07,10.07,0,0,0-1-3A3.49,3.49,0,0,0,240,213.19Zm-12,20c-6,9-35,34-58,28s-29-27-18-54,59-15,71-7S234,224.19,228,233.19Z" transform="translate(-0.45 -1.31)"/><path d="M219,157.19s15,6,13,17c-2.2,12.1,4,24,18,24v-15s-9,0-10-10S219,157.19,219,157.19Z" transform="translate(-0.45 -1.31)"/><path d="M250,205.44s-4-5.25-8,.75,8,3.67,8,12.84" transform="translate(-0.45 -1.31)"/><path d="M187,83.19s2,17-8,27-35,31.14-18,45c12.67,10.31,47.9,1,53,23,0,0,8-16-5-25S176.93,139,189,117.1,187,83.19,187,83.19Z" transform="translate(-0.45 -1.31)"/><path d="M223.75,446.14S247,432.19,238,418.19s-18,10-29,2-5-19-5-19,3,12,15,9,20-11,27-1-4,25.05,4,25.05v11.95A124.45,124.45,0,0,1,223.75,446.14Z" transform="translate(-0.45 -1.31)"/><circle cx="229.29" cy="423.9" r="6.85"/><circle cx="229.29" cy="433.73" r="1.52"/><circle cx="219.55" cy="422.71" r="1.52"/><circle cx="224.22" cy="432.21" r="1.52"/><circle cx="220.46" cy="428" r="1.52"/><path d="M166.38,304.19s19-20.28,13.85-25.3-11.34-1.45-11.21,2.77,5.41,6.73,1.45,11.48-7.51-1.85-7.51-1.85,3.55,2.77,4.54-.26-2.7-6.86-3-10.29,4.75-9.26,12-8.26,7.65,6.41,9.49,10,6.46,10.54,14.11-2.64,15.3-2.77,15.3-2.77-7.52-1.45-10,2-3.82,10.5-13.45,11.34-13.72,4.48-13.72,4.48Z" transform="translate(-0.45 -1.31)"/><path d="M169.35,405.84a18.9,18.9,0,1,1,22.3,30.48,46.48,46.48,0,0,1-7.21-6.06,53.07,53.07,0,0,1-8.69-11.5A93.7,93.7,0,0,1,169.35,405.84Z" transform="translate(-0.45 -1.31)"/><circle cx="174.51" cy="281.04" r="4.09"/><circle cx="242.94" cy="294.57" r="3.88"/><path d="M204.06,392.08s6.08,9.1,11.27,7.09,9.2,3.05,7.26,6.05S210.1,412.55,204.06,392.08Z" transform="translate(-0.45 -1.31)"/><path d="M229.15,402.52s-7-8.45-11.93-5.93-9.46-2.12-7.83-5.29S221.08,382.75,229.15,402.52Z" transform="translate(-0.45 -1.31)"/><circle cx="210.01" cy="329.5" r="3.07"/><circle cx="218.03" cy="321.49" r="3.07"/><circle cx="227.01" cy="317.13" r="3.07"/><circle cx="235.99" cy="317.13" r="3.07"/><path d="M261,215.19a10.07,10.07,0,0,0-1,3c0,1,6,4,6,4a1,1,0,0,0-1,1v1s-4,0-3,2a3.55,3.55,0,0,0,3,2s-1,5,1,7,5,1,5,1l-4,2h2s-4,2-2,4,3,1,3,1a7.47,7.47,0,0,0,3,3,7.74,7.74,0,0,0,3,1l1,4s-1,5,1,4,0,2,2,3,9-2,9-2,2,5,4,6,5,3,6,2a34.36,34.36,0,0,0,2.43-3.55,17.48,17.48,0,0,1,3.57,5.55c1,3,4,1,4,1s2,2,3,0a3.55,3.55,0,0,1,3-2,1,1,0,0,0,1,1c1,0,2,2,2,2a4.94,4.94,0,0,0,3-1l1-1s2,3,3,2a5,5,0,0,0,.87-1.51c1.48,2.47,4.4,7,5.13,5.51,1-2,1-7,2-8s1,2,2,1,5,0,5,0,5-1,5-2,8,6,9,5-2-10-3-11,0-4,0-4a6.58,6.58,0,0,0-.3-4.73,3,3,0,0,0,1.3-.27c2-1,4-3,4-5,0-1.44-2.08-3.92-3.23-5.19,2.94-1.93,6.65-4.87,7.23-7.81.54-2.66-2.9-5.32-6.23-7.23,2.31-2.79,5.23-6.56,5.23-7.77,0-1.45-5.77-2.9-9-3.58,5.32-6.66,6.74-8,5-12.42-1.05-2.63-4.59-1.94-7.72-.69.42-3,1-9.08-1.28-11.31-3-3-7,2-7,2a3.1,3.1,0,0,0-1-2c-1-1-3,1-3,1s-3-6-4-7-5,4-5,4a3.49,3.49,0,0,1-1-2c0-1-2,1-2,1s-3-6-7-5-6,5-6,5-1-4-3-4,0,1-2,1a3.7,3.7,0,0,0-3,2s-1-2-3,0a37.38,37.38,0,0,0-3.48,4.25c-1.28-1.5-2.86-2.66-4.52-2.25-3.29.83-3.87,7.77-4,10.18-2.37-2.08-6.36-5.18-9-5.18-4,0-4,4-4,4s-3,0-4,2a7.74,7.74,0,0,0-1,3s-4,0-5,3,0,4,0,4-2,1-2,2-2,4-2,5A3.49,3.49,0,0,0,261,215.19Zm16-15c12-8,60-20,71,7s5,48-18,54-52-19-58-28S265,208.19,277,200.19Z" transform="translate(-0.45 -1.31)"/><path d="M250,205.44s4-5.25,8,.75-8,3.67-8,12.84" transform="translate(-0.45 -1.31)"/><path d="M313,83.19s-2,17,8,27,35,31.14,18,45c-12.66,10.31-47.89,1-53,23,0,0-8-16,5-25S323.05,139,311,117.1,313,83.19,313,83.19Z" transform="translate(-0.45 -1.31)"/><path d="M276.24,446.14S253,432.19,262,418.19s18,10,29,2,5-19,5-19-3,12-15,9-20-11-27-1,4,25.05-4,25.05v11.95A124.54,124.54,0,0,0,276.24,446.14Z" transform="translate(-0.45 -1.31)"/><circle cx="269.8" cy="423.9" r="6.85"/><circle cx="269.8" cy="433.73" r="1.52"/><circle cx="279.54" cy="422.71" r="1.52"/><circle cx="274.88" cy="432.21" r="1.52"/><circle cx="278.63" cy="428" r="1.52"/><path d="M333.6,304.19s-19-20.28-13.85-25.3,11.34-1.45,11.21,2.77-5.4,6.73-1.45,11.48,7.52-1.85,7.52-1.85-3.55,2.77-4.55-.26,2.7-6.86,3-10.29-4.75-9.26-12-8.26-7.65,6.41-9.5,10-6.46,10.54-14.11-2.64-15.29-2.77-15.29-2.77,7.51-1.45,10,2,3.82,10.5,13.45,11.34,13.71,4.48,13.71,4.48Z" transform="translate(-0.45 -1.31)"/><path d="M330.63,405.84a18.9,18.9,0,1,0-22.29,30.48,46.89,46.89,0,0,0,7.2-6.06,53.12,53.12,0,0,0,8.7-11.5A93.72,93.72,0,0,0,330.63,405.84Z" transform="translate(-0.45 -1.31)"/><circle cx="324.58" cy="281.04" r="4.09"/><circle cx="256.15" cy="294.57" r="3.88"/><path d="M295.93,392.08s-6.08,9.1-11.28,7.09-9.19,3.05-7.26,6.05S289.89,412.55,295.93,392.08Z" transform="translate(-0.45 -1.31)"/><path d="M270.84,402.52s7-8.45,11.93-5.93,9.45-2.12,7.83-5.29S278.9,382.75,270.84,402.52Z" transform="translate(-0.45 -1.31)"/><circle cx="289.08" cy="329.5" r="3.07"/><circle cx="281.06" cy="321.49" r="3.07"/><circle cx="272.08" cy="317.13" r="3.07"/><circle cx="263.1" cy="317.13" r="3.07"/><path d="M256,290.19c2.4,1.51,7,2,11.5-2.5s8.5-17.5-1.5-21.5-5-15-10-16c-5.19,0-5.89-14.22-6-18.05v-.95s0,.22,0,.61c0-.39,0-.61,0-.61v.95c-.09,3.83-.79,18.05-6,18.05-5,1,0,12-10,16s-6,17-1.5,21.5,9.11,4,11.5,2.5c9.76-6.17.95,24.79-10,46,.51,1.3,15.33-3.29,16-.05v0c.66-3.24,15.47,1.35,16,.05C255,315,246.22,284,256,290.19Zm-6-15h0c-.16.06-5,2-7,5s-4,8-9,3,15.83-34.75,16-35c.17.24,21,30,16,35s-7,0-9-3S250.16,275.26,250,275.2Z" transform="translate(-0.45 -1.31)"/>
    <g id="Rose">
      <path d="M255.88,160.43c-14.57,3.09-23.48-28.38-42.83-26.84s-6.13-39.8-6.13-39.8-4.06,15.42,8.2,21.74,20.12,13.23,25.93,23.48,27.22,8,27.22,8S264.4,158.62,255.88,160.43Z" transform="translate(-0.45 -1.31)"/><path d="M256.4,142.88s35.09,10.32,39.73-5.93-4.12-14.45-4.64-24.26c-.27-5.2,1.85-10.92,3.89-15.14,1.81-3.72-.78-11.16-.78-11.16a26.67,26.67,0,0,1-3.72,9.34c-3.48,5.21-9.17,10.29-9.45,15.93C280.91,122,295.62,141.08,256.4,142.88Z" transform="translate(-0.45 -1.31)"/><path d="M271.41,67.91s18.82,1.8,21,15.34S281.11,97,279.59,104.68s2.09,15,2.09,15S269.31,101,274,91.73,271.41,67.91,271.41,67.91Z" transform="translate(-0.45 -1.31)"/><path d="M214.47,82.76s-9.87,13.94,0,24.77c10.74,9,14.9,7.74,14.9,7.74s-.9-13.25-10.54-19.73C216.55,90.46,217.16,83.91,214.47,82.76Z" transform="translate(-0.45 -1.31)"/><path d="M226,117.79a26.67,26.67,0,0,1,19.35,8.84c8.39,9.29,29.42,7.61,29.81-.78a19.25,19.25,0,0,0-5.29-13.8s20.12,16.77,7,24-28.12,7.23-31.6,3.36S238.08,124.7,226,117.79Z" transform="translate(-0.45 -1.31)"/><path d="M270.47,72.25S269,69.68,261,67.37s-13.41,2.54-17.45-.7a19.39,19.39,0,0,0-7.33-3.93s2.56-6.07,10.92-2.13,11.46-2.24,18.84,1.32S270.47,72.25,270.47,72.25Z" transform="translate(-0.45 -1.31)"/><path d="M218.86,88.18s-5.68-7.74-.91-14.32S237.69,63.8,237.69,63.8s-3.67,9-8.32,11.22S219.57,74.89,218.86,88.18Z" transform="translate(-0.45 -1.31)"/><path d="M269,73.57c3.8,5.2,1.33,14.23,2,22.45a89.66,89.66,0,0,1,.4,11.71s-6.24-11.52-6.53-19.55-10.61-11.29-15.32-13.41-10.45-7.87-10.45-7.87,6.58,4.64,10.19,4.19S264.59,67.48,269,73.57Z" transform="translate(-0.45 -1.31)"/><path d="M272.72,125.34c-.14,3.73-4.94,5.71-10.35,5.42a13.5,13.5,0,0,1-8.77-4.17s-4.59,1.46-7.1-1.25a17.45,17.45,0,0,1-3.49-7s3.1,3.69,10.07,4.55S273.4,107.15,272.72,125.34Z" transform="translate(-0.45 -1.31)"/><path d="M231.5,77.25a10.31,10.31,0,0,1-2.61,7c-2.81,2.9,1.84,13.15,1.31,17.22s-9.12-5.75-8.67-14.61S229.57,74.64,231.5,77.25Z" transform="translate(-0.45 -1.31)"/><path d="M257,82.76S256,77.93,249.11,76s-7.45,1.84-7.45,1.84-3.83-1.84-6.27.87-2,8.61-2,8.61S246.3,77.06,257,82.76Z" transform="translate(-0.45 -1.31)"/><path d="M248.21,100.83s13.69-2.55,13.59,4.77-4.14,9.24-11.15,8.49c-16.56,1.24-20.06-24.2-20.06-24.2s-.42,19.85,6.58,22.93,11,7.17,14.76,7.85c8.7,1.6,21.23-16.57,10.51-23.93S248.21,100.83,248.21,100.83Z" transform="translate(-0.45 -1.31)"/><path d="M263.71,92.28a10.46,10.46,0,0,0-9.77-8c-8.22-.48-24.17,1.61-17.09,16.4s21.23,11.57,22.45,8.33.75-6.26-6.84-6.16-14.28-3-13.85-8.12S256,80.23,263.71,92.28Z" transform="translate(-0.45 -1.31)"/><path d="M261.16,92.92s-7.1-1.17-11.22,1.17-4.68,9.25-9.64,3.55S258.51,82.09,261.16,92.92Z" transform="translate(-0.45 -1.31)"/>
    </g>
  <path d="M281,157.19s-15,6-13,17c2.21,12.1-4,24-18,24v-15s9,0,10-10S281,157.19,281,157.19Z" transform="translate(-0.45 -1.31)"/>
  </g>
</svg>