<svg id="Layer_1" data-name="Layer 1" xmlns="http://www.w3.org/2000/svg" xmlns:xlink="http://www.w3.org/1999/xlink" viewBox="0 0 497.37 497.37">
  <defs>
    <style>
      .cls-1, .cls-7, .cls-8 {
        fill: none;
      }

      .cls-2, .cls-3 {
        fill: #fff;
      }

      .cls-3, .cls-5, .cls-7, .cls-8 {
        stroke: "currentColor";
        stroke-miterlimit: 10;
      }

      .cls-3, .cls-7 {
        stroke-width: 5px;
      }

      .cls-4 {
        clip-path: url(#clip-path);
      }

      .cls-5 {
        stroke-width: 3px;
      }

      .cls-6 {
        clip-path: url(#clip-path-2);
      }

      .cls-8 {
        stroke-linecap: round;
      }
      .fill {
        fill: "currentColor";
      }
    </style>
    <clipPath id="clip-path" transform="translate(-0.45 -1.31)">
      <path class="cls-1" d="M250,441.6c-6.84,0-3.41-19.69-10.07-21s-12.24,19.49-16.06,16.85-5.51-21.16-13.63-24.68-12.82,17.92-18.69,15-7.94-16.75-14.4-18.22-5,6.47-8.82,3.53-2.64-16.16-9.1-17.92-7.06,7.93-10.29,4.11S137.44,367.56,137.15,364s46.44-9.11,56.42-8.23,56.41-.09,56.41-.09l56.45.09c10-.88,56.72,4.7,56.42,8.23s-8.52,31.44-11.75,35.26-3.82-5.88-10.29-4.11-5.28,15-9.1,17.92-2.36-5-8.82-3.53-8.52,15.28-14.4,18.22-10.58-18.51-18.69-15-9.81,22-13.63,24.68-7.09-18.81-14.24-17.24S256.8,441.6,250,441.6Z"/>
    </clipPath>
    <clipPath id="clip-path-2" transform="translate(-0.45 -1.31)">
      <path class="cls-1" d="M319.7,279.4c-.89-59.64-31.52-70.68-31.52-70.68-11.06-1-23.65.53-38.16,11h0c-14.52-10.51-27.1-12-38.16-11,0,0-30.64,11-31.52,70.68s43.2,96.77,43.2,96.77-12.74-24.87-4.71-47.6,19.61-26.47,19.61-26.47-.8,2.87,1.55,8.74,10,12.05,10,12.05,7.74-6.17,10.09-12.05,1.54-8.74,1.54-8.74,11.58,3.75,19.61,26.47-4.7,47.6-4.7,47.6S320.58,339.05,319.7,279.4Zm-85.73,15s-2.94-8.52-16.75-7.93-23.8.29-30.12-25.86c0,0,9,8.67,27,8.67s21.45,7.39,22.33,15.57S234,294.39,234,294.39Zm48.77-7.93c-13.81-.59-16.74,7.93-16.74,7.93s-3.38-1.37-2.5-9.55,4.31-15.57,22.33-15.57,27-8.67,27-8.67C306.54,286.75,296.55,287,282.74,286.46Z"/>
    </clipPath>
  </defs>
  <g>
    <path class="cls-2" d="M249.13,8.38,490.75,250,249.13,491.62,7.52,250,249.13,8.38m0-7.07L.45,250,249.13,498.69,497.82,250,249.13,1.31Z" transform="translate(-0.45 -1.31)"/>
    <path class="cls-2" d="M420,79.15v341.7H78.29V79.15H420m5-5H73.29v351.7H425V74.15Z" transform="translate(-0.45 -1.31)"/>
  </g>
  <path id="Collar_BG" data-name="Collar BG" class="cls-3" d="M250,441.6c-6.84,0-3.41-19.69-10.07-21s-12.24,19.49-16.06,16.85-5.51-21.16-13.63-24.68-12.82,17.92-18.69,15-7.94-16.75-14.4-18.22-5,6.47-8.82,3.53-2.64-16.16-9.1-17.92-7.06,7.93-10.29,4.11S137.44,367.56,137.15,364s46.44-9.11,56.42-8.23,56.41-.09,56.41-.09l56.45.09c10-.88,56.72,4.7,56.42,8.23s-8.52,31.44-11.75,35.26-3.82-5.88-10.29-4.11-5.28,15-9.1,17.92-2.36-5-8.82-3.53-8.52,15.28-14.4,18.22-10.58-18.51-18.69-15-9.81,22-13.63,24.68-7.09-18.81-14.24-17.24S256.8,441.6,250,441.6Z" transform="translate(-0.45 -1.31)"/>
  <g id="Collar_Brim" data-name="Collar Brim">
    <g class="cls-4 fill">
      <path d="M350.18,358.15a71.66,71.66,0,0,1-1.32,17.63c-1.91,8.67-3.09,10.73-3.09,10.73l-15.28-6.91s-7.2.44-8.08,6.91,10.14,25.32,3.09,20.81-15,14.59-19.69,10.63-16.46-12.54-22.63-10.58c-7.35,2.34-5.64,18.51-6.24,19.91-1.1,2.57-10.34-16.54-15.5-15.06-6.32,1-5.4,12.85-8.08,12.85s-4.06-14.62-10.24-14.81-12.24,11.36-16.25,10.28-7.25-16.35-12.74-16.75-13.37,9.6-16.3,9.75-7.94-11-14.55-12.78-10.14,2.94-10.87,2.06-2.65-12.05-7.35-14.55-9.25.29-9.25.29-5.44-11-6.76-15.86-4.12-24.1-4.12-24.1l-28.06,23.8,12.49,43.93,181.54,62.1,65.82-85.8-13.87-50.15Z" transform="translate(-0.45 -1.31)"/>
    </g>
  </g>
  <g id="Side_fins" data-name="Side fins">
    <path class="cls-3" d="M220,175.39s-24.68-81.1-73.46-88.74-67,47.6-65.23,57.59a16.89,16.89,0,0,0,10,12.93s10-5.88,8.23-13.52-8.67-17.33-7.35-19.24,20-11.61,36.14-2.5,37.17,40.55,42.09,55.24,3.46,19.69,3.46,19.69-7.35-9.7-25.86-20.28-48.19-16.16-61.12-9.4S66,183.61,64.57,189.2s-4.7,22.33-3.23,26.44,6.76,9.43,10,8.83,2.35-17.94,2.35-17.94,29.68,4.12,42.61,12.05,57,56.12,57,56.12l41.14-63.47Z" transform="translate(-0.45 -1.31)"/>
    <path class="cls-3" d="M280.19,175.32s24.68-81.1,73.46-88.74,67,47.6,65.23,57.59a16.89,16.89,0,0,1-10,12.93s-10-5.87-8.23-13.51,8.67-17.34,7.35-19.25-20-11.61-36.15-2.5-37.16,40.55-42.08,55.24-3.46,19.69-3.46,19.69,7.35-9.7,25.86-20.27,48.19-16.16,61.12-9.41,20.86,16.46,22.33,22,4.7,22.33,3.23,26.45-6.76,9.43-10,8.83-2.35-17.94-2.35-17.94-29.68,4.11-42.61,12-57,56.13-57,56.13l-41.14-63.47Z" transform="translate(-0.45 -1.31)"/>
  </g>
  <path id="Face" class="cls-3" d="M316.41,223.28C287,192.73,250,219.76,250,219.76s-37-27-66.4,3.52S181.2,352.57,195.31,365.5s30,30,54.65,30,40.59-17,54.69-30S345.79,253.84,316.41,223.28ZM234,294.39s-2.94-8.52-16.75-7.93-23.8.29-30.12-25.86c0,0,9,8.67,27,8.67s21.45,7.39,22.33,15.57S234,294.39,234,294.39Zm78.89-33.79c-1.9,13-8.45,24.35-18.68,25.46s-25.65.7-28.18,8.33c-4-9.79-.52-19.69,6.14-22.86,4.37-1.8,9.93-2.52,16.48-2.34C296.3,269.53,304.45,266.11,312.86,260.6Z" transform="translate(-0.45 -1.31)"/>
  <g id="Top_fin" data-name="Top fin">
    <g>
      <path class="cls-3" d="M250,59l-20.71,0s-11.61-1.69-11.61,24.16S210.2,211.4,210.2,211.4s7.46,26.9,39.78,11" transform="translate(-0.45 -1.31)"/>
      <path class="cls-3" d="M250,222.43c32.32,15.87,39.82-11,39.82-11S282.34,109,282.34,83.15s-12.95-24-12.95-24L250,59" transform="translate(-0.45 -1.31)"/>
    </g>
  </g>
  <path id="Lips" d="M268.68,347.57a47.29,47.29,0,0,1-10,.36c1.4-1.56,5.08-3.56.78-6.23-5.19-3.23-7.93,1.76-9.5,1.76s-4.31-5-9.5-1.76c-4.29,2.67-.61,4.67.79,6.23a47.4,47.4,0,0,1-10-.36l10.15,2.75c-.66,2-1.9,4.95.15,7.15,2.64,2.84,8.42,2.15,8.42,2.15s5.78.69,8.43-2.15c2-2.2.81-5.15.14-7.15Z" transform="translate(-0.45 -1.31)" class="fill" />
  <path id="Fin_bottom_cleanline_left" data-name="Fin bottom cleanline left" class="cls-3" d="M73.68,206.53s-10-13.54-6-23.44" transform="translate(-0.45 -1.31)"/>
  <path id="Fin_bottom_cleanline" data-name="Fin bottom cleanline" class="cls-3" d="M426.5,206.53s10-13.54,6-23.44" transform="translate(-0.45 -1.31)"/>
  <path id="Mask_black" data-name="Mask black" class="cls-5 fill" d="M319.7,279.4c-.89-59.64-31.52-70.68-31.52-70.68-11.06-1-23.65.53-38.16,11h0c-14.52-10.51-27.1-12-38.16-11,0,0-30.64,11-31.52,70.68s43.2,96.77,43.2,96.77-12.74-24.87-4.71-47.6,19.61-26.47,19.61-26.47-.8,2.87,1.55,8.74,10,12.05,10,12.05,7.74-6.17,10.09-12.05,1.54-8.74,1.54-8.74,11.58,3.75,19.61,26.47-4.7,47.6-4.7,47.6S320.58,339.05,319.7,279.4Zm-85.73,15s-2.94-8.52-16.75-7.93-23.8.29-30.12-25.86c0,0,9,8.67,27,8.67s21.45,7.39,22.33,15.57S234,294.39,234,294.39Zm48.77-7.93c-13.81-.59-16.74,7.93-16.74,7.93s-3.38-1.37-2.5-9.55,4.31-15.57,22.33-15.57,27-8.67,27-8.67C306.54,286.75,296.55,287,282.74,286.46Z" transform="translate(-0.45 -1.31)"/>
  <g id="Rose">
    <g class="cls-6">
      <g id="Rose-2" data-name="Rose">
        <path class="cls-2" d="M281.8,349.34c-18.17,3.86-29.29-35.4-53.43-33.47s-7.64-49.64-7.64-49.64-5.07,19.23,10.22,27.11,25.1,16.5,32.34,29.29,34,10,34,10S292.42,347.09,281.8,349.34Z" transform="translate(-0.45 -1.31)"/>
        <path class="cls-2" d="M282.44,327.46s43.77,12.87,49.57-7.41-5.15-18-5.8-30.25c-.34-6.49,2.31-13.62,4.86-18.88,2.26-4.65-1-13.93-1-13.93a33.22,33.22,0,0,1-4.63,11.65c-4.35,6.5-11.45,12.84-11.8,19.87C313,301.39,331.36,325.2,282.44,327.46Z" transform="translate(-0.45 -1.31)"/>
        <path class="cls-2" d="M301.16,233.94s23.48,2.24,26.17,19.14-14.06,17.19-16,26.72S314,298.52,314,298.52s-15.43-23.27-9.53-34.87S301.16,233.94,301.16,233.94Z" transform="translate(-0.45 -1.31)"/>
        <path class="cls-2" d="M230.14,252.47s-12.31,17.38,0,30.89c13.4,11.23,18.59,9.66,18.59,9.66s-1.13-16.53-13.16-24.62C232.74,262.06,233.49,253.89,230.14,252.47Z" transform="translate(-0.45 -1.31)"/>
        <path class="cls-2" d="M244.47,296.16a33.24,33.24,0,0,1,24.13,11c10.46,11.59,36.69,9.49,37.18-1a24,24,0,0,0-6.6-17.21s25.1,20.92,8.69,29.93-35.08,9-39.43,4.18S259.59,304.77,244.47,296.16Z" transform="translate(-0.45 -1.31)"/>
        <path class="cls-2" d="M300,239.36s-1.81-3.22-11.84-6.09-16.73,3.17-21.78-.88a24.14,24.14,0,0,0-9.14-4.9s3.2-7.57,13.63-2.66,14.29-2.8,23.49,1.65S300,239.36,300,239.36Z" transform="translate(-0.45 -1.31)"/>
        <path class="cls-2" d="M235.61,259.23s-7.08-9.66-1.12-17.87,24.62-12.55,24.62-12.55-4.59,11.27-10.38,14S236.5,242.65,235.61,259.23Z" transform="translate(-0.45 -1.31)"/>
        <path class="cls-2" d="M298.21,241c4.73,6.48,1.66,17.74,2.46,28a113,113,0,0,1,.49,14.61s-7.78-14.37-8.14-24.38-13.23-14.08-19.11-16.74-13-9.81-13-9.81,8.21,5.79,12.71,5.23S292.66,233.4,298.21,241Z" transform="translate(-0.45 -1.31)"/>
        <path class="cls-2" d="M302.8,305.57c-.17,4.66-6.16,7.12-12.92,6.76A16.78,16.78,0,0,1,279,307.14s-5.72,1.81-8.86-1.57-4.34-8.69-4.34-8.69,3.86,4.6,12.55,5.67S303.64,282.88,302.8,305.57Z" transform="translate(-0.45 -1.31)"/>
        <path class="cls-2" d="M251.38,245.59a12.78,12.78,0,0,1-3.25,8.69c-3.5,3.62,2.29,16.41,1.63,21.48s-11.37-7.17-10.81-18.22S249,242.33,251.38,245.59Z" transform="translate(-0.45 -1.31)"/>
        <path class="cls-2" d="M283.25,252.47s-1.33-6-9.9-8.45-9.29,2.29-9.29,2.29-4.78-2.29-7.82,1.09-2.56,10.74-2.56,10.74S269.85,245.35,283.25,252.47Z" transform="translate(-0.45 -1.31)"/>
        <path class="cls-2" d="M272.23,275s17.08-3.18,16.95,5.95-5.17,11.52-13.9,10.6c-20.66,1.54-25-30.19-25-30.19s-.53,24.76,8.21,28.6,13.76,9,18.4,9.8c10.86,2,26.48-20.68,13.11-29.86S272.23,275,272.23,275Z" transform="translate(-0.45 -1.31)"/>
        <path class="cls-2" d="M291.56,264.34a13.06,13.06,0,0,0-12.18-10c-10.26-.59-30.15,2-21.32,20.46s26.48,14.43,28,10.39.92-7.81-8.54-7.68-17.81-3.77-17.28-10.13S281.91,249.31,291.56,264.34Z" transform="translate(-0.45 -1.31)"/>
        <path class="cls-2" d="M288.38,265.13s-8.85-1.45-14,1.46-5.84,11.54-12,4.43S285.07,251.63,288.38,265.13Z" transform="translate(-0.45 -1.31)"/>
      </g>
    </g>
  </g>
  <path id="Fin_cleanline" data-name="Fin cleanline" class="cls-7" d="M407.2,128.22c2.28-5.76,3.37-10,2.83-12.06" transform="translate(-0.45 -1.31)"/>
  <g id="Fin_detail" data-name="Fin detail">
    <path class="cls-8" d="M213.2,160.58s-.1-7.78-8.9-9.29-12.66.29-7.62,5.93,8.21-7.68,1.09-3.76" transform="translate(-0.45 -1.31)"/>
    <path class="cls-8" d="M201.92,154.94s-3.85,12.33.89,14,5.94-5.93,2.57-7-1.51,4.06-1.51,4.06" transform="translate(-0.45 -1.31)"/>
    <path class="cls-8" d="M196,212.8s-26.51-19.68-14.34-35.6,25.81,2.07,18.3,10.48-15.14-.39-10.79-4.35" transform="translate(-0.45 -1.31)"/>
    <path class="cls-8" d="M190.28,171s8.73,4.06,7.14,10.34-9.79-.09-6.67-2.57,3.51,2.67,3.51,2.67" transform="translate(-0.45 -1.31)"/>
    <path class="cls-8" d="M194.23,191.13s-7.8,5.49-6.75,8.32,5.39,2.42,5.39-.69-3-2.52-2.82-.3" transform="translate(-0.45 -1.31)"/>
    <path class="cls-8" d="M199.3,210.33s9.1-9.84,3.61-16.07-8.8,2.42-6.48,3.9,4.8.32,3.32-1.92" transform="translate(-0.45 -1.31)"/>
    <path class="cls-8" d="M196.84,198.4s5.2,3.28,3.34,5.75-5.13-.4-3.55-1.63" transform="translate(-0.45 -1.31)"/>
    <path class="cls-8" d="M210.06,183.51c.29.21,1.22,3-2.42,5.39s-7.06-4.24-3.25-5.65,2,3,2,3" transform="translate(-0.45 -1.31)"/>
    <path class="cls-8" d="M171.76,175.81s-6.13-13.74,3-14.73,8.4,10,6.23,11.77-7.27.1-4.92-6.33" transform="translate(-0.45 -1.31)"/>
    <path class="cls-8" d="M180.78,163.18s3.93,7.67,10,5.23,2.68-9.21-.52-9.76-6.16,1.29-4.82,4.36,6.12,2.42,4.82-.55" transform="translate(-0.45 -1.31)"/>
    <path class="cls-8" d="M203.87,169.22s4.53.79,4.18,4.55-5.53,3.3-6.82.4,3.27-3.5,3.44-1" transform="translate(-0.45 -1.31)"/>
    <path class="cls-8" d="M201,150.85s4.12-5.68.3-9.94-8.51-.17-6.46,2.66,5.08.53,3.79-1.25" transform="translate(-0.45 -1.31)"/>
    <path class="cls-8" d="M189.36,158.57a8.44,8.44,0,0,1-6.52-6.69c-1-5.67,7.51-10.41,10.48-6.09s-2,8.85-6.46,5.06,4.61-6.75,3.95-2.27" transform="translate(-0.45 -1.31)"/>
    <path class="cls-8" d="M158,151.34s7.32,15.22,15,8.11-2.18-11.07-4.36-7.77.27,5.54,3,4.62" transform="translate(-0.45 -1.31)"/>
    <path class="cls-8" d="M175.77,153.38s-.42,7.23,5.46,6.35.9-7.09-1.38-4.78.1,3.26,1.55,2.71" transform="translate(-0.45 -1.31)"/>
    <path class="cls-8" d="M199.25,134.27a21.46,21.46,0,0,1-13.55,7.32c-8.5.89-6.72-10.58-.49-8.9s4.15,6.42.69,5.83" transform="translate(-0.45 -1.31)"/>
    <path class="cls-8" d="M188.7,134.72s5.87-4.5,0-11-9.82,3-5.17,4.16,4.35-2,2.37-2.87" transform="translate(-0.45 -1.31)"/>
    <path class="cls-8" d="M180.78,139.89s-8-12.95-18-2.81,10.61,17.18,13.28,8.71-10.4-7.08-7.84-1.68" transform="translate(-0.45 -1.31)"/>
    <path class="cls-8" d="M176.33,142.88s-1.51,7.83,4.23,6.69.61-7.45-1.53-4.37,1.75,2.33,1.75,2.33" transform="translate(-0.45 -1.31)"/>
    <path class="cls-8" d="M181.83,133.21s-19-.58-26.42-9.35,16.84-19.75,19.71-3.3c2.33,13.31-23,3.65-10.48-.26" transform="translate(-0.45 -1.31)"/>
    <path class="cls-8" d="M164.48,112.12c9.55,3.17,10.38,10.43,6.65,12.36s-5.47-3.75-1.88-3.06" transform="translate(-0.45 -1.31)"/>
    <path class="cls-8" d="M162.45,92.29s11.88,18.3-1.57,18.37-9.1-14.27-2.9-12.11,5,8.31,0,6.69" transform="translate(-0.45 -1.31)"/>
    <path class="cls-8" d="M148.79,87.14s-15.47,3.42-12.44,10.28,13.19,6.46,14.77,2.24-7.94-10.91-8.31-4.09" transform="translate(-0.45 -1.31)"/>
    <path class="cls-8" d="M155.39,116.74s-6-15.15-23.92-11.5,1.58,19.51,9.23,12.11-6.33-13.34-10-6.09,8.44,4.3,6.46,1.75" transform="translate(-0.45 -1.31)"/>
    <path class="cls-8" d="M185.72,112S175,105.33,171.3,108.1s6.29,10.81,9.48,8.7-3.94-7.75-6.58-6.14,3.91,3.39,3.91,3.39" transform="translate(-0.45 -1.31)"/>
    <path class="cls-8" d="M160.05,142.45s0-10.51-4.12-15.16-7.64-1.66-8.7.78-3,5.6,4.15,4.45.47-6.38-1.12-3.19" transform="translate(-0.45 -1.31)"/>
    <path class="cls-8" d="M155,149.19s-15-13.52-3.89-15,6.51,8.75,2.1,6.92-4-5.91,2.05-4.13" transform="translate(-0.45 -1.31)"/>
    <path class="cls-8" d="M142.37,115.23s-7,9.67.54,11.1,6.46-9.2,1.44-7.77-1.44,7.17,1.49,5.08-1.06-3.7-2-2.15" transform="translate(-0.45 -1.31)"/>
    <path class="cls-8" d="M136.12,96.76s-3.53,10.91-15.49,7.7,2.72-15.58,8-10-.2,8-5.79,6-.11-5.83,3.28-3.31" transform="translate(-0.45 -1.31)"/>
    <path class="cls-8" d="M129.43,87.69s7.22,1.79,4.94,5.35-6.28,0-4.94-1.69,3.14-.73,2.56.94" transform="translate(-0.45 -1.31)"/>
    <path class="cls-8" d="M118.79,117.29c.29-.52,3.39-2.4,3.69-5,.34-3-3-7.72-8.21-3s8.39,5.19,5.57,1.65c-2.26-2.83-4.08-.22-4.08-.22" transform="translate(-0.45 -1.31)"/>
    <path class="cls-8" d="M103.37,101.74s11.32-5,11.57,1.48-8.6,5.59-8.85,3.31,3.66-6.38,5.34-3.21-2.87,1.73-2.87,1.73" transform="translate(-0.45 -1.31)"/>
    <path class="cls-8" d="M113.14,110.83s-1.71,6-8.78,4.9,1.09-8,2.91-5.07-2.67,3.79-2.81,2.65" transform="translate(-0.45 -1.31)"/>
    <path class="cls-8" d="M100.7,108.24s-.4,3.88-2,2.15,1-5.29,4.1-4.5-1.25,7-1.25,7-3.64,6.44-6.25,3.7.69-6.11,2.61-3.7-1.29,2.65-1.88,2" transform="translate(-0.45 -1.31)"/>
    <path class="cls-8" d="M182.7,198.72s9.7,13.42,1.59,18.5-14-4.55-10.95-7.85S185,207.73,183,212.8s-8.3,2.24-6.19-1.05" transform="translate(-0.45 -1.31)"/>
    <path class="cls-8" d="M181.75,208.7s-6.63-2.29-5.44-6.94,8.57-2.44,6.39,2.34-7.65-1.12-3.13-1.65" transform="translate(-0.45 -1.31)"/>
    <path class="cls-8" d="M172.53,211.8s1.47-11.47-3.67-13.12-15.63,4.22-11.34,10.09,10.81,5.14,9.29-.73-5.8-1.25-4.88.66" transform="translate(-0.45 -1.31)"/>
    <path class="cls-8" d="M182.79,223.58s-12.12,12.86-23.2,1.54,15-15.58,13.65-3.76-16.76-1.34-8.36-1.19" transform="translate(-0.45 -1.31)"/>
    <path class="cls-8" d="M164,228.42s10.2,5.74,5.81,12.67-12.17-1.19-7.42-4.82,7.45,2.91,4.61,3.7" transform="translate(-0.45 -1.31)"/>
    <path class="cls-8" d="M168.59,255.46a7,7,0,0,1-9.69-1.58c-4.42-5.41,3.89-9,5.41-4.42s-4,4.09-3.4,1.45" transform="translate(-0.45 -1.31)"/>
    <path class="cls-8" d="M160.91,239.11s.76,7.71-5.77,8-4.68-6.27-1.51-6.46,4.48,3.49,1.51,4" transform="translate(-0.45 -1.31)"/>
    <path class="cls-8" d="M159.59,225.12s5.65,6.47-.56,10.1-8-3.23-6-5.87,7.32-2,6.33,2.24S152.27,234,155,230.3" transform="translate(-0.45 -1.31)"/>
    <path class="cls-8" d="M150.77,243.8s3.58-11.81-2.15-14.38-9.5,5.93-5.21,8.5,8.07-2.77,4.15-5.34-4.35,2.31-2.44,2.38" transform="translate(-0.45 -1.31)"/>
    <path class="cls-8" d="M158,185.44s7.85,7.88,3.69,11.8-8.7,4-11.27.33.92-8.6,4.68-9.13,6.92,4,5,7.09-7.65,1.88-5.47-1.88" transform="translate(-0.45 -1.31)"/>
    <path class="cls-8" d="M150.75,198s9.27,12.71,3.73,19.17-17.53-1.47-13.18-8.68,15-2.75,11.27,4.35-10.35.71-6.39-2.49" transform="translate(-0.45 -1.31)"/>
    <path class="cls-8" d="M158.7,224.12s-12.06-6.57-12.92,0,8.11,3.57,8.11.43-6.66-1.1-6.73.57,4,.67,4,.67" transform="translate(-0.45 -1.31)"/>
    <path class="cls-8" d="M136.05,234.07a14.68,14.68,0,0,0,5-10.65c.1-6.76-5.24-11.67-10.68-9.12s-4.75,10.27.49,11.85,8.51-4.74,5.05-7-6.78.21-4,3.46" transform="translate(-0.45 -1.31)"/>
    <path class="cls-8" d="M153,189.23s-8.43,7-13.84,2.59S140.7,180,146,185.9s-8.31,7-4.48,1.65" transform="translate(-0.45 -1.31)"/>
    <path class="cls-8" d="M143.7,205.93s7.11-5.55,1.37-8-13.53,2.16-9.18,5.33,7.91,1.21,7.71-1.69-3.29-3.4-5.86-.26" transform="translate(-0.45 -1.31)"/>
    <path class="cls-8" d="M131.51,170.37s14.34,7.93,6.72,12.72-13.55-2.77-10.88-5.57,10.39-2.53,8.61,2.73-9-.88-5.25-1.87" transform="translate(-0.45 -1.31)"/>
    <path class="cls-8" d="M129.91,214.57s-14.92,3.54-16.64-5.81,9.1-9.22,11.68-3.15-13.26,7.13-6.93.93" transform="translate(-0.45 -1.31)"/>
    <path class="cls-8" d="M131.93,213.62s4.36-.72,4.09-4.92-4.48-8.06-7.65-4.75,2.39,8.13,3.83,3.25" transform="translate(-0.45 -1.31)"/>
    <path class="cls-8" d="M137.3,189.16s1.4,6.8-7.39,8.82-6.94-11.82-.61-8.82.71,7.36-1.89,5.05" transform="translate(-0.45 -1.31)"/>
    <path class="cls-8" d="M116.18,201.75s4.84-2.58,5.32-6.94-6.22-5.81-8.41-2.84,1.24,8.41,4.54,6,.59-5.29-1.65-3.57" transform="translate(-0.45 -1.31)"/>
    <path class="cls-8" d="M120.93,192.42s-7.85-7.71-1.59-11.2,8.7,3,6.07,5.6-8.64,1.06-4.36-2.77" transform="translate(-0.45 -1.31)"/>
    <path class="cls-8" d="M128.17,176.86s-2.37-6-10.68-6.49-8,6.89-3.56,7.62,6.6-.59,7.12-2.44-4.74-4.48-6.13-.2" transform="translate(-0.45 -1.31)"/>
    <path class="cls-8" d="M109.57,213.62c-.26.3-10.42-4.84-8.57-9.46s11.57-1.58,10.4,3.57-8.09.48-6.51-1.8,4.29-.73,3.56,1.6" transform="translate(-0.45 -1.31)"/>
    <path class="cls-8" d="M103.57,202.05s9.67-.42,6.77-6.13-6.89-2.72-7.38-.23,2.7,5,4.78,1.55-3-3.1-2.41-1.32" transform="translate(-0.45 -1.31)"/>
    <path class="cls-8" d="M112.12,177.17s6,6.88,1.48,11.56-10.61-.65-8.17-3.62,7.15-2.83,7.66.4-5.55,3.27-3.9.81" transform="translate(-0.45 -1.31)"/>
    <path class="cls-8" d="M97.53,166.32s11.38,1.19,11.72,7.27-9.49,6.18-10.43,2,7.12-7.08,8.5-1.88-9.83,2.67-3.92.34" transform="translate(-0.45 -1.31)"/>
    <path class="cls-8" d="M106.32,184.24s-8.59,5.32-11.9-.56,6.55-6,7.76-2.72-4,4.55-5.69,2.91.94-4.84,2.53-2.22" transform="translate(-0.45 -1.31)"/>
    <path class="cls-8" d="M102.93,196.53s1.33-6.18-3.81-6.52-2,7.54.91,5.34-.37-4.22-1.21-2.93" transform="translate(-0.45 -1.31)"/>
    <path class="cls-8" d="M92.29,208.16s7-.9,7.74-5.15-6-4.5-7.39-2.37,2.77,6.13,5.09,2.77-3.91-3.17-2.67-1.14" transform="translate(-0.45 -1.31)"/>
    <path class="cls-8" d="M97.53,178.81s-11.42,1.75-11-6S99,169.83,97,174s-5.54,2.77-7.42,1.68-1.38-2.91-.49-4.15,6.08-.25,4.94,1.58-4.2,1-3.56-.15" transform="translate(-0.45 -1.31)"/>
    <path class="cls-8" d="M93.34,200s4.24-1.53,1.37-5.39-5.48,2.53-3.41,3.07,2.92-1.19,1.83-2" transform="translate(-0.45 -1.31)"/>
    <path class="cls-8" d="M96.77,190.88a5.83,5.83,0,0,0-2.3-4.56c-2.52-2.2-6.13.08-6.68,1.61s1.53,6.58,5.69,4-.94-6.28-2.52-4.84S90.2,190.48,92,190" transform="translate(-0.45 -1.31)"/>
    <path class="cls-8" d="M87.34,176.16s7.3,5.05.37,8.48-6.15-2.93-5-4.43,6.33-2.29,5.54,1.34-4.75,2-3.49.4" transform="translate(-0.45 -1.31)"/>
    <path class="cls-8" d="M90.31,207.76s-9.59-3-6.62-8.43,9.7.5,6.76,4.21-6.37-1.09-4.65-3,4.42.43,3.1,2.16" transform="translate(-0.45 -1.31)"/>
    <path class="cls-8" d="M87.75,189s2.71,5.7-2.28,7-5.94-4-5-6.09,6.78-.87,5.64,2.29-5,1.34-3.31-1.09" transform="translate(-0.45 -1.31)"/>
    <path class="cls-8" d="M82.5,180.52s4.28-4.11,1.82-5.89-6.67.59-4.89,2.94,4.6-.57,3.37-1.41" transform="translate(-0.45 -1.31)"/>
    <path class="cls-8" d="M83.69,199.33s-1.49,6.2-6.14,4.13.1-6.43,1.88-4.75.65,4-1.68,2.64" transform="translate(-0.45 -1.31)"/>
    <path class="cls-8" d="M76.38,176.16s-6.39,6.69-1.81,8.42,5.58-.46,5.58-2.9-2.92-3.86-4.58-2.21,0,4.69,2.13,3.15-.54-2.93-1.08-1.72" transform="translate(-0.45 -1.31)"/>
    <path class="cls-8" d="M73.88,184.23s7.28,3.8,4,8.4-8.31-.55-6.92-3.27,6-1.28,5.55,1.54-4,1-3-.91" transform="translate(-0.45 -1.31)"/>
    <path class="cls-8" d="M76.42,194s-8.46.18-6.73,4.29,4.8,2,5.17.4-1.9-3.45-3.36-1.57.71,2.51,1.42,1.47" transform="translate(-0.45 -1.31)"/>
    <path class="cls-8" d="M67.29,188.7s2.2-5.44,3-3.72.16,5.17-2.15,5.34" transform="translate(-0.45 -1.31)"/>
    <line class="cls-8" x1="155.4" y1="388.32" x2="194.86" y2="364.19"/>
    <line class="cls-8" x1="169.96" y1="403.36" x2="204.13" y2="372.76"/>
    <line class="cls-8" x1="194.86" y1="414.63" x2="219.56" y2="384.89"/>
    <line class="cls-8" x1="225.67" y1="424.19" x2="235.43" y2="391.23"/>
    <line class="cls-8" x1="251.78" y1="425.25" x2="251.78" y2="395.31"/>
    <path class="cls-8" d="M277.68,429.2c-.13-.66-15.3-33.73-15.3-33.73" transform="translate(-0.45 -1.31)"/>
    <line class="cls-8" x1="308.88" y1="417.86" x2="277.23" y2="388.72"/>
    <line class="cls-8" x1="329.11" y1="407.71" x2="288.58" y2="379.88"/>
    <line class="cls-8" x1="345.32" y1="385.19" x2="302.4" y2="365.86"/>
    <path class="cls-8" d="M286.29,160.58s.09-7.78,8.9-9.29,12.66.29,7.61,5.93-8.21-7.68-1.09-3.76" transform="translate(-0.45 -1.31)"/>
    <path class="cls-8" d="M297.57,154.94s3.85,12.33-.9,14-5.93-5.93-2.57-7,1.51,4.06,1.51,4.06" transform="translate(-0.45 -1.31)"/>
    <path class="cls-8" d="M303.49,212.8s26.51-19.68,14.35-35.6-25.82,2.07-18.3,10.48,15.13-.39,10.78-4.35" transform="translate(-0.45 -1.31)"/>
    <path class="cls-8" d="M309.21,171s-8.73,4.06-7.15,10.34,9.79-.09,6.68-2.57-3.51,2.67-3.51,2.67" transform="translate(-0.45 -1.31)"/>
    <path class="cls-8" d="M305.25,191.13s7.8,5.49,6.75,8.32-5.39,2.42-5.39-.69,3-2.52,2.83-.3" transform="translate(-0.45 -1.31)"/>
    <path class="cls-8" d="M300.18,210.33s-9.1-9.84-3.61-16.07,8.8,2.42,6.48,3.9-4.8.32-3.31-1.92" transform="translate(-0.45 -1.31)"/>
    <path class="cls-8" d="M302.64,198.4s-5.2,3.28-3.33,5.75,5.12-.4,3.54-1.63" transform="translate(-0.45 -1.31)"/>
    <path class="cls-8" d="M289.43,183.51c-.3.21-1.23,3,2.41,5.39s7.07-4.24,3.25-5.65-2,3-2,3" transform="translate(-0.45 -1.31)"/>
    <path class="cls-8" d="M327.73,175.81s6.13-13.74-3-14.73-8.41,10-6.23,11.77,7.26.1,4.91-6.33" transform="translate(-0.45 -1.31)"/>
    <path class="cls-8" d="M318.71,163.18s-3.94,7.67-10,5.23-2.68-9.21.52-9.76,6.15,1.29,4.82,4.36-6.13,2.42-4.82-.55" transform="translate(-0.45 -1.31)"/>
    <path class="cls-8" d="M295.61,169.22s-4.53.79-4.18,4.55,5.54,3.3,6.82.4-3.27-3.5-3.44-1" transform="translate(-0.45 -1.31)"/>
    <path class="cls-8" d="M298.48,150.85s-4.12-5.68-.29-9.94,8.5-.17,6.46,2.66-5.09.53-3.8-1.25" transform="translate(-0.45 -1.31)"/>
    <path class="cls-8" d="M310.12,158.57a8.46,8.46,0,0,0,6.53-6.69c1-5.67-7.52-10.41-10.49-6.09s2,8.85,6.47,5.06-4.62-6.75-4-2.27" transform="translate(-0.45 -1.31)"/>
    <path class="cls-8" d="M341.51,151.34s-7.32,15.22-15,8.11,2.17-11.07,4.35-7.77-.26,5.54-3,4.62" transform="translate(-0.45 -1.31)"/>
    <path class="cls-8" d="M323.71,153.38s.43,7.23-5.45,6.35-.9-7.09,1.38-4.78-.11,3.26-1.55,2.71" transform="translate(-0.45 -1.31)"/>
    <path class="cls-8" d="M300.23,134.27a21.46,21.46,0,0,0,13.55,7.32c8.51.89,6.73-10.58.49-8.9s-4.15,6.42-.69,5.83" transform="translate(-0.45 -1.31)"/>
    <path class="cls-8" d="M310.78,134.72s-5.87-4.5,0-11,9.82,3,5.18,4.16-4.36-2-2.38-2.87" transform="translate(-0.45 -1.31)"/>
    <path class="cls-8" d="M318.71,139.89s8-12.95,18-2.81-10.61,17.18-13.29,8.71,10.41-7.08,7.85-1.68" transform="translate(-0.45 -1.31)"/>
    <path class="cls-8" d="M323.15,142.88s1.51,7.83-4.23,6.69-.61-7.45,1.54-4.37-1.75,2.33-1.75,2.33" transform="translate(-0.45 -1.31)"/>
    <path class="cls-8" d="M317.66,133.21s19-.58,26.42-9.35-16.84-19.75-19.72-3.3c-2.32,13.31,23,3.65,10.49-.26" transform="translate(-0.45 -1.31)"/>
    <path class="cls-8" d="M335,112.12c-9.55,3.17-10.37,10.43-6.65,12.36s5.47-3.75,1.88-3.06" transform="translate(-0.45 -1.31)"/>
    <path class="cls-8" d="M337,92.29s-11.88,18.3,1.57,18.37,9.1-14.27,2.91-12.11-5,8.31,0,6.69" transform="translate(-0.45 -1.31)"/>
    <path class="cls-8" d="M350.69,87.14s15.47,3.42,12.44,10.28-13.18,6.46-14.77,2.24,7.95-10.91,8.31-4.09" transform="translate(-0.45 -1.31)"/>
    <path class="cls-8" d="M344.1,116.74s6-15.15,23.91-11.5-1.58,19.51-9.23,12.11,6.33-13.34,10-6.09-8.44,4.3-6.46,1.75" transform="translate(-0.45 -1.31)"/>
    <path class="cls-8" d="M313.76,112s10.73-6.65,14.43-3.88-6.3,10.81-9.48,8.7,3.94-7.75,6.58-6.14-3.91,3.39-3.91,3.39" transform="translate(-0.45 -1.31)"/>
    <path class="cls-8" d="M339.44,142.45s0-10.51,4.11-15.16,7.65-1.66,8.7.78,3,5.6-4.15,4.45-.46-6.38,1.12-3.19" transform="translate(-0.45 -1.31)"/>
    <path class="cls-8" d="M344.54,149.19s15-13.52,3.89-15-6.51,8.75-2.11,6.92,4-5.91-2.05-4.13" transform="translate(-0.45 -1.31)"/>
    <path class="cls-8" d="M357.11,115.23s7,9.67-.54,11.1-6.45-9.2-1.43-7.77,1.43,7.17-1.5,5.08,1.06-3.7,2-2.15" transform="translate(-0.45 -1.31)"/>
    <path class="cls-8" d="M363.37,96.76s3.52,10.91,15.49,7.7-2.72-15.58-8-10,.19,8,5.78,6,.12-5.83-3.28-3.31" transform="translate(-0.45 -1.31)"/>
    <path class="cls-8" d="M370.05,87.69s-7.21,1.79-4.94,5.35,6.28,0,4.94-1.69-3.14-.73-2.56.94" transform="translate(-0.45 -1.31)"/>
    <path class="cls-8" d="M380.7,117.29c-.3-.52-3.4-2.4-3.7-5-.34-3,3-7.72,8.21-3s-8.39,5.19-5.57,1.65c2.26-2.83,4.09-.22,4.09-.22" transform="translate(-0.45 -1.31)"/>
    <path class="cls-8" d="M396.12,101.74s-11.33-5-11.58,1.48,8.61,5.59,8.86,3.31-3.66-6.38-5.35-3.21,2.87,1.73,2.87,1.73" transform="translate(-0.45 -1.31)"/>
    <path class="cls-8" d="M386.34,110.83s1.71,6,8.79,4.9-1.09-8-2.92-5.07,2.67,3.79,2.82,2.65" transform="translate(-0.45 -1.31)"/>
    <path class="cls-8" d="M398.79,108.24s.39,3.88,2,2.15-1-5.29-4.1-4.5,1.25,7,1.25,7,3.64,6.44,6.25,3.7-.68-6.11-2.61-3.7,1.29,2.65,1.88,2" transform="translate(-0.45 -1.31)"/>
    <path class="cls-8" d="M316.78,198.72s-9.69,13.42-1.58,18.5,14-4.55,10.94-7.85-11.67-1.64-9.69,3.43,8.31,2.24,6.2-1.05" transform="translate(-0.45 -1.31)"/>
    <path class="cls-8" d="M317.73,208.7s6.63-2.29,5.45-6.94-8.58-2.44-6.4,2.34,7.65-1.12,3.13-1.65" transform="translate(-0.45 -1.31)"/>
    <path class="cls-8" d="M327,211.8s-1.47-11.47,3.68-13.12,15.62,4.22,11.34,10.09-10.82,5.14-9.3-.73,5.8-1.25,4.88.66" transform="translate(-0.45 -1.31)"/>
    <path class="cls-8" d="M316.69,223.58s12.12,12.86,23.2,1.54-15-15.58-13.65-3.76S343,220,334.6,220.17" transform="translate(-0.45 -1.31)"/>
    <path class="cls-8" d="M335.47,228.42s-10.2,5.74-5.81,12.67,12.18-1.19,7.43-4.82-7.45,2.91-4.62,3.7" transform="translate(-0.45 -1.31)"/>
    <path class="cls-8" d="M330.89,255.46a7,7,0,0,0,9.69-1.58c4.42-5.41-3.89-9-5.4-4.42s4,4.09,3.39,1.45" transform="translate(-0.45 -1.31)"/>
    <path class="cls-8" d="M338.57,239.11s-.76,7.71,5.77,8,4.68-6.27,1.52-6.46-4.49,3.49-1.52,4" transform="translate(-0.45 -1.31)"/>
    <path class="cls-8" d="M339.89,225.12s-5.64,6.47.56,10.1,8-3.23,6-5.87-7.32-2-6.33,2.24,7.09,2.37,4.42-1.29" transform="translate(-0.45 -1.31)"/>
    <path class="cls-8" d="M348.72,243.8s-3.59-11.81,2.15-14.38,9.49,5.93,5.21,8.5-8.08-2.77-4.16-5.34,4.35,2.31,2.44,2.38" transform="translate(-0.45 -1.31)"/>
    <path class="cls-8" d="M341.47,185.44s-7.84,7.88-3.69,11.8,8.7,4,11.27.33-.92-8.6-4.68-9.13-6.92,4-5,7.09,7.64,1.88,5.47-1.88" transform="translate(-0.45 -1.31)"/>
    <path class="cls-8" d="M348.73,198s-9.27,12.71-3.73,19.17,17.54-1.47,13.19-8.68-15-2.75-11.28,4.35,10.35.71,6.4-2.49" transform="translate(-0.45 -1.31)"/>
    <path class="cls-8" d="M340.79,224.12s12.06-6.57,12.91,0-8.11,3.57-8.11.43,6.66-1.1,6.73.57-4,.67-4,.67" transform="translate(-0.45 -1.31)"/>
    <path class="cls-8" d="M363.43,234.07a14.68,14.68,0,0,1-5.05-10.65c-.09-6.76,5.25-11.67,10.69-9.12s4.74,10.27-.5,11.85-8.5-4.74-5-7,6.77.21,4,3.46" transform="translate(-0.45 -1.31)"/>
    <path class="cls-8" d="M346.52,189.23s8.44,7,13.84,2.59-1.57-11.79-6.92-5.92,8.31,7,4.49,1.65" transform="translate(-0.45 -1.31)"/>
    <path class="cls-8" d="M355.78,205.93s-7.11-5.55-1.36-8,13.53,2.16,9.17,5.33-7.91,1.21-7.71-1.69,3.3-3.4,5.87-.26" transform="translate(-0.45 -1.31)"/>
    <path class="cls-8" d="M368,170.37s-14.34,7.93-6.73,12.72,13.55-2.77,10.88-5.57-10.38-2.53-8.6,2.73,9-.88,5.24-1.87" transform="translate(-0.45 -1.31)"/>
    <path class="cls-8" d="M369.58,214.57s14.91,3.54,16.63-5.81-9.1-9.22-11.67-3.15,13.25,7.13,6.92.93" transform="translate(-0.45 -1.31)"/>
    <path class="cls-8" d="M367.55,213.62s-4.35-.72-4.09-4.92,4.49-8.06,7.65-4.75-2.39,8.13-3.83,3.25" transform="translate(-0.45 -1.31)"/>
    <path class="cls-8" d="M362.18,189.16s-1.39,6.8,7.4,8.82,6.94-11.82.61-8.82-.72,7.36,1.88,5.05" transform="translate(-0.45 -1.31)"/>
    <path class="cls-8" d="M383.31,201.75s-4.85-2.58-5.33-6.94,6.22-5.81,8.41-2.84-1.24,8.41-4.53,6-.6-5.29,1.65-3.57" transform="translate(-0.45 -1.31)"/>
    <path class="cls-8" d="M378.55,192.42s7.86-7.71,1.59-11.2-8.7,3-6.06,5.6,8.63,1.06,4.35-2.77" transform="translate(-0.45 -1.31)"/>
    <path class="cls-8" d="M371.31,176.86s2.37-6,10.68-6.49,8,6.89,3.56,7.62-6.59-.59-7.12-2.44,4.75-4.48,6.13-.2" transform="translate(-0.45 -1.31)"/>
    <path class="cls-8" d="M389.91,213.62c.27.3,10.42-4.84,8.57-9.46s-11.57-1.58-10.4,3.57,8.1.48,6.51-1.8-4.29-.73-3.56,1.6" transform="translate(-0.45 -1.31)"/>
    <path class="cls-8" d="M395.91,202.05s-9.67-.42-6.77-6.13,6.89-2.72,7.39-.23-2.71,5-4.78,1.55,3-3.1,2.4-1.32" transform="translate(-0.45 -1.31)"/>
    <path class="cls-8" d="M387.36,177.17s-6,6.88-1.48,11.56,10.61-.65,8.17-3.62-7.15-2.83-7.66.4,5.56,3.27,3.91.81" transform="translate(-0.45 -1.31)"/>
    <path class="cls-8" d="M402,166.32s-11.37,1.19-11.72,7.27,9.5,6.18,10.43,2-7.12-7.08-8.5-1.88,9.83,2.67,3.93.34" transform="translate(-0.45 -1.31)"/>
    <path class="cls-8" d="M393.16,184.24s8.59,5.32,11.91-.56-6.55-6-7.77-2.72,4,4.55,5.69,2.91-.94-4.84-2.52-2.22" transform="translate(-0.45 -1.31)"/>
    <path class="cls-8" d="M396.56,196.53s-1.33-6.18,3.81-6.52,1.94,7.54-.92,5.34.37-4.22,1.21-2.93" transform="translate(-0.45 -1.31)"/>
    <path class="cls-8" d="M407.19,208.16s-7-.9-7.74-5.15,6-4.5,7.4-2.37-2.77,6.13-5.1,2.77,3.91-3.17,2.67-1.14" transform="translate(-0.45 -1.31)"/>
    <path class="cls-8" d="M402,178.81s11.42,1.75,11-6-12.41-3-10.48,1.18,5.53,2.77,7.41,1.68,1.39-2.91.5-4.15-6.09-.25-4.95,1.58,4.21,1,3.56-.15" transform="translate(-0.45 -1.31)"/>
    <path class="cls-8" d="M406.14,200s-4.24-1.53-1.37-5.39,5.49,2.53,3.41,3.07-2.92-1.19-1.83-2" transform="translate(-0.45 -1.31)"/>
    <path class="cls-8" d="M402.71,190.88a5.82,5.82,0,0,1,2.31-4.56c2.52-2.2,6.13.08,6.67,1.61s-1.53,6.58-5.68,4,.94-6.28,2.52-4.84.75,3.34-1.08,2.85" transform="translate(-0.45 -1.31)"/>
    <path class="cls-8" d="M412.15,176.16s-7.31,5.05-.37,8.48,6.14-2.93,5-4.43-6.33-2.29-5.54,1.34,4.75,2,3.5.4" transform="translate(-0.45 -1.31)"/>
    <path class="cls-8" d="M409.17,207.76s9.59-3,6.62-8.43-9.7.5-6.76,4.21,6.37-1.09,4.66-3-4.42.43-3.1,2.16" transform="translate(-0.45 -1.31)"/>
    <path class="cls-8" d="M411.73,189s-2.71,5.7,2.29,7,5.93-4,5-6.09-6.77-.87-5.64,2.29,4.95,1.34,3.32-1.09" transform="translate(-0.45 -1.31)"/>
    <path class="cls-8" d="M417,180.52s-4.28-4.11-1.82-5.89,6.66.59,4.88,2.94-4.6-.57-3.36-1.41" transform="translate(-0.45 -1.31)"/>
    <path class="cls-8" d="M415.79,199.33s1.49,6.2,6.14,4.13-.1-6.43-1.88-4.75-.64,4,1.68,2.64" transform="translate(-0.45 -1.31)"/>
    <path class="cls-8" d="M423.1,176.16s6.4,6.69,1.81,8.42-5.57-.46-5.57-2.9,2.91-3.86,4.57-2.21,0,4.69-2.13,3.15.54-2.93,1.08-1.72" transform="translate(-0.45 -1.31)"/>
    <path class="cls-8" d="M425.6,184.23s-7.28,3.8-4,8.4,8.31-.55,6.93-3.27-6-1.28-5.56,1.54,4,1,3-.91" transform="translate(-0.45 -1.31)"/>
    <path class="cls-8" d="M423.06,194s8.46.18,6.73,4.29-4.8,2-5.17.4,1.91-3.45,3.37-1.57-.72,2.51-1.42,1.47" transform="translate(-0.45 -1.31)"/>
    <path class="cls-8" d="M432.2,188.7s-2.21-5.44-3-3.72-.17,5.17,2.14,5.34" transform="translate(-0.45 -1.31)"/>
    <path class="cls-8" d="M260.67,218s20.57-10.93,20.57-23.14S266,180,262,190.52s10.11,10.28,11.25,5.27" transform="translate(-0.45 -1.31)"/>
    <path class="cls-8" d="M264.3,198.55s4.18,6.14-2.34,9.11-13.75-5.44-9.2-11.08,10.72,2.63,5.72,5.85" transform="translate(-0.45 -1.31)"/>
    <path class="cls-8" d="M267.8,184.52s7.61-7.82,1-12.37S250,171.76,253.55,181s14.54,1.6,9.4-3.55" transform="translate(-0.45 -1.31)"/>
    <path class="cls-8" d="M275.45,184.91s1.44,8.41-3.21,7.42-1.28-5.54,0-4.55" transform="translate(-0.45 -1.31)"/>
    <path class="cls-8" d="M271.49,177s4,10.22,9.09,5.6,2.05-9-.59-8.83a2.48,2.48,0,0,0-2,4" transform="translate(-0.45 -1.31)"/>
    <path class="cls-8" d="M280.22,199.65s-1,7.35,2.6,6.43,3.56-5.08,1.59-5.74-2.71,2.24-2,3" transform="translate(-0.45 -1.31)"/>
    <path class="cls-8" d="M262.85,170.3S252,166.81,258,154.75s18.79-1.39,16,3.36-9.2,6.43-11.82,1.19,6.82-7.36,6.68-2.18" transform="translate(-0.45 -1.31)"/>
    <path class="cls-8" d="M280,173.77s-10.24,2.54-10.13-5.18,10-4.74,8.71-.89-5.34,2.57-4.84.3" transform="translate(-0.45 -1.31)"/>
    <path class="cls-8" d="M274.34,155.91s5.91-1.16,7.3,2.3-3.38,6.65-6,3.95a2.33,2.33,0,1,1,3.8-2.41" transform="translate(-0.45 -1.31)"/>
    <path class="cls-8" d="M262.05,150.12s16.19-6.83,11.4-19.09-18.63-9.39-18.14.5,11.66,15,15.34,5.43-11.5-15.32-12.51-6.62,9,9,9.11,6.72" transform="translate(-0.45 -1.31)"/>
    <path class="cls-8" d="M264,126.14c1.65.55,8.16,8.5,1.25,9.77-5.58,1-6.62-5.44-3.19-5.94s3.42,2,3.42,2" transform="translate(-0.45 -1.31)"/>
    <path class="cls-8" d="M273.9,138.52s8.92,3.07,7.34,9.67-7.38,5.71-8.08,1.93,3.33-4.83,4.39-2.33" transform="translate(-0.45 -1.31)"/>
    <path class="cls-8" d="M278.2,140.91s5.86-18-.72-18-4.3,8.24-1.08,8.44a2.54,2.54,0,0,0,.86-5" transform="translate(-0.45 -1.31)"/>
    <path class="cls-8" d="M264.82,123.06s-9.68-.49-9.52-10.35,13.76-9.92,14.17-1.87-9.39,6.23-9.79,2.07,4.21-4.56,5.61-1.18" transform="translate(-0.45 -1.31)"/>
    <path class="cls-8" d="M267.94,115.36s-2.72,2.56-1.73,5.4,6,3.37,6.13,0-3.29-2.2-3.29-.86" transform="translate(-0.45 -1.31)"/>
    <path class="cls-8" d="M269.46,110.66s-1.38-7.12,2.89-7.34,5.12,3.46,2.94,4.92-4.58-1-2-2.47" transform="translate(-0.45 -1.31)"/>
    <path class="cls-8" d="M273.92,108.68s-4.6,4.73-1.75,7.45,6.43.47,6.23-2.5S273,111.3,274.82,115" transform="translate(-0.45 -1.31)"/>
    <path class="cls-8" d="M275.69,123.18s4.41-1.48,3.43-4-4-.87-3.71.59,2,.34,2,0" transform="translate(-0.45 -1.31)"/>
    <path class="cls-8" d="M261.08,105.24s8.19-3.21,6-9.37-7.85-3.43-8.18-3.2-5.44,3.43-2.67,8.24,8.08.33,6.89-1.88S260,98.8,260,98.8" transform="translate(-0.45 -1.31)"/>
    <path class="cls-8" d="M267.47,99.26s10.94,3.63,10.94-2.44-7.77-3.62-6.46-.39,5.62.59,3.43-.79" transform="translate(-0.45 -1.31)"/>
    <path class="cls-8" d="M272,95s-5.41-1.24-6.27-5.66,2.5-5.47,4.88-5,3.68,8.44-.67,6.33.27-3.76.27-3.76" transform="translate(-0.45 -1.31)"/>
    <path class="cls-8" d="M276.45,93.1s5.73-9.59.48-11-5.42,5-1.55,4.42.77-4-.56-2.51" transform="translate(-0.45 -1.31)"/>
    <path class="cls-8" d="M267.82,84.51s-5.34-.94-4.25-5.09,4.58-2.61,4.75-.83-2.08,3.17-2.94.89" transform="translate(-0.45 -1.31)"/>
    <path class="cls-8" d="M267.7,80.25s8.07,2.2,9-2.22-5.41-3.06-5-.36,3.1,1.58,2.64-.16" transform="translate(-0.45 -1.31)"/>
    <path class="cls-8" d="M274.42,75.18s-2.21-2.72-.73-4.89,4.22.59,3.2,1.78-2.2.19-1.74-.66" transform="translate(-0.45 -1.31)"/>
    <path class="cls-8" d="M273.37,70.91s-4.13-.66-4.89,2.28,3.53,2.69,3.5,1-1.68-.8-1.68-.8" transform="translate(-0.45 -1.31)"/>
    <path class="cls-8" d="M274.85,69.5s2-1.55,1.07-3-3.91-.78-3.17,1.09,2.34.56,2-.24" transform="translate(-0.45 -1.31)"/>
    <path class="cls-8" d="M239,218S218.44,207,218.44,194.81s15.29-14.84,19.25-4.29-10.11,10.28-11.25,5.27" transform="translate(-0.45 -1.31)"/>
    <path class="cls-8" d="M235.37,198.55s-4.18,6.14,2.35,9.11,13.75-5.44,9.2-11.08-10.72,2.63-5.72,5.85" transform="translate(-0.45 -1.31)"/>
    <path class="cls-8" d="M231.87,184.52s-7.6-7.82-1-12.37,18.79-.39,15.23,8.81-14.54,1.6-9.4-3.55" transform="translate(-0.45 -1.31)"/>
    <path class="cls-8" d="M224.23,184.91s-1.44,8.41,3.21,7.42,1.28-5.54,0-4.55" transform="translate(-0.45 -1.31)"/>
    <path class="cls-8" d="M228.18,177s-4,10.22-9.09,5.6-2-9,.6-8.83a2.48,2.48,0,0,1,2,4" transform="translate(-0.45 -1.31)"/>
    <path class="cls-8" d="M219.46,199.65s.95,7.35-2.61,6.43-3.56-5.08-1.58-5.74,2.7,2.24,2,3" transform="translate(-0.45 -1.31)"/>
    <path class="cls-8" d="M236.83,170.3s10.88-3.49,4.85-15.55-18.79-1.39-16,3.36,9.21,6.43,11.83,1.19-6.82-7.36-6.68-2.18" transform="translate(-0.45 -1.31)"/>
    <path class="cls-8" d="M219.69,173.77s10.24,2.54,10.13-5.18-10-4.74-8.71-.89,5.34,2.57,4.84.3" transform="translate(-0.45 -1.31)"/>
    <path class="cls-8" d="M225.34,155.91s-5.92-1.16-7.3,2.3,3.38,6.65,6,3.95a2.33,2.33,0,1,0-3.8-2.41" transform="translate(-0.45 -1.31)"/>
    <path class="cls-8" d="M237.63,150.12s-16.19-6.83-11.4-19.09,18.63-9.39,18.14.5S232.7,146.55,229,137s11.5-15.32,12.52-6.62-9,9-9.12,6.72" transform="translate(-0.45 -1.31)"/>
    <path class="cls-8" d="M235.69,126.14c-1.65.55-8.17,8.5-1.26,9.77,5.59,1,6.63-5.44,3.19-5.94s-3.41,2-3.41,2" transform="translate(-0.45 -1.31)"/>
    <path class="cls-8" d="M225.78,138.52s-8.93,3.07-7.34,9.67,7.38,5.71,8.07,1.93-3.32-4.83-4.38-2.33" transform="translate(-0.45 -1.31)"/>
    <path class="cls-8" d="M221.48,140.91s-5.86-18,.71-18,4.31,8.24,1.09,8.44a2.54,2.54,0,0,1-.86-5" transform="translate(-0.45 -1.31)"/>
    <path class="cls-8" d="M234.86,123.06s9.68-.49,9.52-10.35-13.76-9.92-14.18-1.87,9.4,6.23,9.8,2.07-4.21-4.56-5.62-1.18" transform="translate(-0.45 -1.31)"/>
    <path class="cls-8" d="M231.74,115.36s2.72,2.56,1.73,5.4-6,3.37-6.13,0,3.29-2.2,3.29-.86" transform="translate(-0.45 -1.31)"/>
    <path class="cls-8" d="M230.22,110.66s1.38-7.12-2.89-7.34-5.13,3.46-2.94,4.92,4.58-1,2-2.47" transform="translate(-0.45 -1.31)"/>
    <path class="cls-8" d="M225.75,108.68s4.6,4.73,1.76,7.45-6.43.47-6.23-2.5,5.42-2.33,3.57,1.33" transform="translate(-0.45 -1.31)"/>
    <path class="cls-8" d="M224,123.18s-4.42-1.48-3.43-4,4-.87,3.71.59-2,.34-2.05,0" transform="translate(-0.45 -1.31)"/>
    <path class="cls-8" d="M238.59,105.24s-8.19-3.21-6-9.37,7.84-3.43,8.17-3.2,5.44,3.43,2.67,8.24-8.07.33-6.89-1.88,3.17-.23,3.17-.23" transform="translate(-0.45 -1.31)"/>
    <path class="cls-8" d="M232.21,99.26s-10.94,3.63-10.94-2.44,7.77-3.62,6.46-.39-5.62.59-3.44-.79" transform="translate(-0.45 -1.31)"/>
    <path class="cls-8" d="M227.73,95s5.4-1.24,6.27-5.66-2.51-5.47-4.88-5-3.68,8.44.67,6.33-.28-3.76-.28-3.76" transform="translate(-0.45 -1.31)"/>
    <path class="cls-8" d="M223.23,93.1s-5.73-9.59-.48-11,5.42,5,1.54,4.42-.76-4,.56-2.51" transform="translate(-0.45 -1.31)"/>
    <path class="cls-8" d="M231.86,84.51s5.33-.94,4.25-5.09-4.59-2.61-4.75-.83,2.08,3.17,2.93.89" transform="translate(-0.45 -1.31)"/>
    <path class="cls-8" d="M232,80.25s-8.07,2.2-9-2.22,5.4-3.06,4.94-.36-3.1,1.58-2.63-.16" transform="translate(-0.45 -1.31)"/>
    <path class="cls-8" d="M225.26,75.18s2.21-2.72.72-4.89-4.22.59-3.19,1.78,2.2.19,1.74-.66" transform="translate(-0.45 -1.31)"/>
    <path class="cls-8" d="M226.31,70.91s4.13-.66,4.88,2.28-3.52,2.69-3.49,1,1.68-.8,1.68-.8" transform="translate(-0.45 -1.31)"/>
    <path class="cls-8" d="M224.83,69.5s-2-1.55-1.08-3,3.92-.78,3.18,1.09-2.34.56-2-.24" transform="translate(-0.45 -1.31)"/>
  </g>
  <g id="Fin_covers" data-name="Fin covers">
    <path class="cls-5 fill" d="M248,93.77c11.17,0,12.73,0,14.89-13.12s10.38-19.19,10.38-20.77-46.23-2.35-47.8,0,7.05,1.38,8.43,11.17S230.73,93.77,248,93.77Z" transform="translate(-0.45 -1.31)"/>
    <path class="cls-5 fill" d="M91.34,120.64l6.82,20.75,1.29,4.46-4,8.85-6.26.72-6-7.87-2-7.74S86.4,117.28,91.34,120.64Z" transform="translate(-0.45 -1.31)"/>
    <path class="cls-5 fill" d="M65.71,191.64c0,.2-3.3,7-3.3,7L62,211.15l1.85,9.43,6.79,2.84s3.56-6.73,3.43-6.93-1.19-11.86-1.19-11.86Z" transform="translate(-0.45 -1.31)"/>
    <path class="cls-5 fill" d="M409.71,120.64l-6.82,20.75-1.29,4.46,4.06,8.85,6.25.72,6-7.87,2-7.74S414.66,117.28,409.71,120.64Z" transform="translate(-0.45 -1.31)"/>
    <path class="cls-5 fill" d="M434.34,191.64c0,.2,3.31,7,3.31,7l.38,12.47-1.84,9.43-6.79,2.84s-3.56-6.73-3.43-6.93,1.18-11.86,1.18-11.86Z" transform="translate(-0.45 -1.31)"/>
  </g>
</svg>
