<svg id="Layer_1" data-name="Layer 1" xmlns="http://www.w3.org/2000/svg" viewBox="0 0 497.37 497.37">
  <defs>
    <style>
      .cls-1 {
        fill: #fff;
      }
      .cls-2 {
        stroke: "currentColor";
        stroke-miterlimit: 10;
        stroke-width: 5px;
      }
    </style>
  </defs>
  <g>
    <path class="cls-1" d="M249.13,8.38,490.75,250,249.13,491.62,7.52,250,249.13,8.38m0-7.07L.45,250,249.13,498.69,497.82,250,249.13,1.31Z" transform="translate(-0.45 -1.31)"/>
    <path class="cls-1" d="M420,79.15v341.7H78.29V79.15H420m5-5H73.29v351.7H425V74.15Z" transform="translate(-0.45 -1.31)"/>
  </g>
  <g>
    <g id="Strokes" class="cls-2">
      <path d="M250,69.78s117.47,21.78,136.41,102.3C359.89,412.7,250,430.23,250,430.23V380.41c27.86,0,29.6-4.31,41-14.25s20.79-39,20.79-39-33.22,12-42,15.53c-6.34,2.53-13.93,2.88-17.62,2.88-1.4,0-2.24-.05-2.24-.05V69.78m11.84,204.14s20.85-14.6,63.59-14.6S374.57,201,374.57,201s-24.12,19.8-65.33,19.8-47.4,53.17-47.4,53.17M250,64.77a5,5,0,0,0-5,5V345.55a5,5,0,0,0,4.7,5c.1,0,1,.06,2.54.06,4.25,0,12.42-.42,19.47-3.24,5.53-2.21,21.19-8,31.7-11.79-3.84,9.48-9.71,21.65-15.66,26.82-1.16,1-2.22,2-3.22,2.85-8.26,7.4-11.35,10.17-34.53,10.17a5,5,0,0,0-5,5v49.82a5,5,0,0,0,5,5,5.27,5.27,0,0,0,.79-.07c1.19-.19,29.59-5.07,61.2-40.44,18.27-20.45,33.94-47,46.57-79,15.68-39.65,26.72-87.81,32.82-143.14a5.06,5.06,0,0,0-.1-1.69c-4.54-19.31-14.87-36.93-30.68-52.39-12.48-12.2-28.4-23.07-47.3-32.31a269,269,0,0,0-62.39-21.38,4.68,4.68,0,0,0-.91-.09Zm18.88,199.86a80.35,80.35,0,0,1,5.78-15.27c8-15.66,19.6-23.61,34.58-23.61,27,0,47-8.12,58.16-14.25a92.92,92.92,0,0,1-6,16.7c-8.31,17.34-20.41,26.12-36,26.12-27.35,0-46.11,5.8-56.55,10.31Z" transform="translate(-0.45 -1.31)"/>
      <path d="M250,69.78v156.3s-11.84-58.26-25.1-117.94a8.23,8.23,0,0,0-2.09-.24c-17.7,0-79.23,39.65-86.49,63.24-10,28.67-6.11,65.44,1,122.2-10.42-37.89-17.05-55.89-23.68-121.26C129.69,92.51,250,69.78,250,69.78m0-5a4.87,4.87,0,0,0-.93.08,279,279,0,0,0-63.43,21.73c-19.12,9.32-35.08,20.21-47.45,32.37-15.7,15.45-25.63,33-29.5,52.13a5,5,0,0,0-.08,1.5c5.89,58,11.93,79.54,20.28,109.32,1.14,4.06,2.32,8.26,3.56,12.76a5,5,0,0,0,4.82,3.67,4.57,4.57,0,0,0,1-.1,5,5,0,0,0,4-5.52c-7-56.36-10.82-92.31-1.19-119.94l.06-.17c2.86-9.28,17.19-23.78,37.41-37.83,18.61-12.93,34.9-20.45,42.36-21.69,12.12,54.73,23,107.84,24.13,113.49v32a5,5,0,0,0,10,0V69.78a5,5,0,0,0-5-5Z" transform="translate(-0.45 -1.31)"/>
    </g>
    <path class="cls-1" d="M245,76V177.47c-4.32-20.45-9.66-45.38-15.22-70.41l-.66-3-2.94-.78a13.07,13.07,0,0,0-3.37-.41c-19.95,0-83.18,40.87-91.24,66.67-5.44,15.66-6.94,33.32-6.08,55-2.38-13.71-4.6-30.19-6.85-52.21,3.57-16.84,12.48-32.37,26.48-46.17,11.56-11.39,26.61-21.65,44.7-30.49A279.24,279.24,0,0,1,245,76m5-6.23S129.69,92.51,113.59,172.08c6.63,65.37,13.26,83.37,23.68,121.26-7.06-56.76-10.94-93.53-1-122.2,7.26-23.59,68.79-63.23,86.49-63.24a8.23,8.23,0,0,1,2.09.24C238.16,167.82,250,226.08,250,226.08V69.78Z" transform="translate(-0.45 -1.31)"/>
    <path class="cls-1" d="M250,69.78V345.55s11.11.67,19.86-2.83,42-15.53,42-15.53-9.36,29-20.79,39-13.17,14.25-41,14.25v49.81S359.89,412.7,386.41,172.08C367.47,91.56,250,69.78,250,69.78Zm75.43,189.54c-42.74,0-63.59,14.6-63.59,14.6s6.19-53.17,47.4-53.17S374.57,201,374.57,201,368.17,259.32,325.43,259.32Z" transform="translate(-0.45 -1.31)"/>
  </g>
</svg>
