<svg id="Layer_1" data-name="Layer 1" xmlns="http://www.w3.org/2000/svg" xmlns:xlink="http://www.w3.org/1999/xlink" viewBox="0 0 497.37 497.37">
  <defs>
    <style>
      .cls-1, .cls-6, .cls-7, .cls-8 {
        fill: none;
      }

      .cls-1, .cls-3, .cls-8 {
        stroke: "currentColor";
        stroke-width: 5px;
      }

      .cls-1, .cls-6 {
        stroke-linecap: round;
      }

      .cls-1 {
        stroke-linejoin: round;
      }

      .cls-2, .cls-3 {
        fill: #fff;
      }

      .cls-3, .cls-6, .cls-7, .cls-8 {
        stroke-miterlimit: 10;
      }

      .cls-4 {
        clip-path: url(#clip-path);
      }

      .cls-5 {
        clip-path: url(#clip-path-2);
      }

      .cls-6, .cls-7 {
        stroke: #fff;
      }

      .cls-6 {
        stroke-width: 2px;
      }
      .fill {
        fill: "currentColor";
      }
    </style>
    <clipPath id="clip-path" transform="translate(-0.45 -1.31)">
      <circle class="cls-1" cx="175.24" cy="254.45" r="45.6"/>
    </clipPath>
    <clipPath id="clip-path-2" transform="translate(-0.45 -1.31)">
      <circle id="SVGID" class="cls-1" cx="324.76" cy="254.45" r="45.6"/>
    </clipPath>
  </defs>
  <g>
    <path class="cls-2" d="M249.13,8.38,490.75,250,249.13,491.62,7.52,250,249.13,8.38m0-7.07L.45,250,249.13,498.69,497.82,250,249.13,1.31Z" transform="translate(-0.45 -1.31)"/>
    <path class="cls-2" d="M420,79.15v341.7H78.29V79.15H420m5-5H73.29v351.7H425V74.15Z" transform="translate(-0.45 -1.31)"/>
  </g>
  <g>
    <path id="BG" class="cls-3" d="M249.92,82.21A168.16,168.16,0,1,0,418.08,250.36,168.15,168.15,0,0,0,249.92,82.21Zm-31.2,183.53H131.53l-2.21-10.54s-.74-10.53,2.51-10.53h87s1.18,8.21,1.18,8.43S218.72,265.74,218.72,265.74Zm149.75,0H281.28S280,253.32,280,253.1s1.18-8.43,1.18-8.43h87c3.25,0,2.51,10.53,2.51,10.53Z" transform="translate(-0.45 -1.31)"/>
    <path id="black_head_bot" data-name="black head bot" class="fill" d="M390.76,158.46s4.95,3.54,6.66,11.95c-31.45,23.7-85.77,39.35-147.5,39.35s-115.87-15.6-147.35-39.24c2.16-9,6-11.28,6-11.28S149.75,147.86,247,147.86,390.76,158.46,390.76,158.46Z" transform="translate(-0.45 -1.31)"/>
    <path class="cls-2" d="M382.46,146.86a21,21,0,0,1,7.25,11.71c-32.2,20.67-82.84,34-139.79,34-57.2,0-108-13.45-140.21-34.28A23.17,23.17,0,0,1,117,147.4s35.67,9.58,133,9.58S382.46,146.86,382.46,146.86Z" transform="translate(-0.45 -1.31)"/>
    <path id="black_head_mid" data-name="black head mid" class="fill" d="M373.12,135.91a26.93,26.93,0,0,1,9.58,11.93c-32.29,18.24-79.8,29.77-132.78,29.77-52.69,0-100-11.41-132.26-29.49a20.68,20.68,0,0,1,8.5-11.59s26.48-1.41,123.76-1.41S373.12,135.91,373.12,135.91Z" transform="translate(-0.45 -1.31)"/>
    <path class="cls-2" d="M350.88,115.88S368,126,372.33,136c-31.7,15.1-74.85,24.4-122.41,24.4s-90.49-9.25-122.16-24.28c2-6.08,19.88-19.26,19.88-19.26s5-1.91,102.28-1.91S350.88,115.88,350.88,115.88Z" transform="translate(-0.45 -1.31)"/>
    <path id="black_head_top" data-name="black head top" class="fill" d="M319.85,97.39s29.74,11.77,33.26,21.15c-29,10.35-64.65,16.46-103.19,16.46s-74.12-6.1-103.11-16.43c-.23-5.17,32.31-20.77,32.31-20.77l70.8-3.33Z" transform="translate(-0.45 -1.31)"/>
    <path class="cls-2" d="M322.51,98.14a334.71,334.71,0,0,1-72.59,7.7,336.44,336.44,0,0,1-70.63-7.27c6.53-10.12,70.63-16.36,70.63-16.36S293.29,82.21,322.51,98.14Z" transform="translate(-0.45 -1.31)"/>
    <polygon id="Head_bar" data-name="Head bar" class="cls-2" points="255.57 81 249.48 81 243.39 81 241.08 205.58 249.48 205.58 257.87 205.58 255.57 81"/>
    <g id="Black_fill" data-name="Black fill" class="fill">
      <path d="M230.67,313.81c-6-4.74-15.4-16.64-7.43-27.75a47.55,47.55,0,0,1,4.84-5.57c6.79-6.94,12.15-12.43,12.15-72.18H244c0,61.27-5.83,67.24-13.21,74.8a42.47,42.47,0,0,0-4.48,5.13c-7.88,11,6.1,22.16,6.7,22.63Z" transform="translate(-0.45 -1.31)"/>
      <path d="M269.16,313.82l-2.29-3,1.15,1.48-1.15-1.48c.6-.46,14.56-11.53,6.7-22.37a41.73,41.73,0,0,0-4.48-5.08c-7.38-7.49-13.22-13.4-13.22-74.1h3.74c0,59.16,5.36,64.59,12.15,71.47a46.72,46.72,0,0,1,4.84,5.52C284.59,297.32,275.23,309.12,269.16,313.82Z" transform="translate(-0.45 -1.31)"/>
      <path d="M249.92,302.27c-12,0-72.61,44.36-72.61,58s23,50.13,23,50.13L217,415l32.92,3.54L282.85,415l16.71-4.62s23-36.53,23-50.13S261.9,302.27,249.92,302.27Z" transform="translate(-0.45 -1.31)"/>
      <path d="M172.27,319.15A61.19,61.19,0,1,1,233.45,258,61.26,61.26,0,0,1,172.27,319.15Zm0-118.63A57.45,57.45,0,1,0,229.71,258,57.51,57.51,0,0,0,172.27,200.52Z" transform="translate(-0.45 -1.31)"/>
      <path d="M172.74,350.68a92.73,92.73,0,0,1-44.39-174.13,1.87,1.87,0,0,1,1.79,3.28,89,89,0,0,0,64.17,164.48,1.87,1.87,0,0,1,.9,3.63A93.09,93.09,0,0,1,172.74,350.68Z" transform="translate(-0.45 -1.31)"/>
      <path d="M241.53,236.1a1.87,1.87,0,0,1-1.77-1.27,71.06,71.06,0,0,0-25.61-34.61,1.87,1.87,0,0,1,2.19-3,74.82,74.82,0,0,1,27,36.43,1.88,1.88,0,0,1-1.16,2.38A2.22,2.22,0,0,1,241.53,236.1Z" transform="translate(-0.45 -1.31)"/>
      <path d="M172.27,333a75.08,75.08,0,0,1-16.65-148.28,1.87,1.87,0,0,1,.83,3.65A71.34,71.34,0,1,0,223.09,308l2.29-2.24a1.87,1.87,0,1,1,2.62,2.67l-2.27,2.22A74.5,74.5,0,0,1,172.27,333Z" transform="translate(-0.45 -1.31)"/>
      <path d="M104.4,173.46a30.13,30.13,0,0,0,5.22,3.94c3.26,2,7.59,4.34,7.59,4.34a107.46,107.46,0,0,0-14.09,13c-8.27,8.81-14.4,22.53-14.4,22.53A158,158,0,0,1,104.4,173.46Z" transform="translate(-0.45 -1.31)"/>
      <polygon points="234.84 273.34 249.48 292.48 264.12 273.34 261.02 264.43 249.48 280.35 237.94 264.43 234.84 273.34"/>
      <polygon points="238.03 262.57 249.48 277.53 260.67 262.89 259.03 252.22 249.48 265.4 239.92 252.22 238.03 262.57"/>
      <polygon points="241.66 244.87 249.48 255.09 257.77 244.25 256.85 232.8 249.48 242.97 242.16 232.87 241.66 244.87"/>
      <polygon points="239.82 227.52 249.48 240.14 258.02 228.97 257.95 216.32 249.48 228.01 240.74 215.95 239.82 227.52"/>
      <polygon points="241.08 206.74 249.48 217.71 257.77 206.87 249.48 205.58 241.08 206.74"/>
      <path d="M327.74,319.15A61.19,61.19,0,1,1,388.92,258,61.26,61.26,0,0,1,327.74,319.15Zm0-118.63A57.45,57.45,0,1,0,385.18,258,57.51,57.51,0,0,0,327.74,200.52Z" transform="translate(-0.45 -1.31)"/>
      <path d="M327.26,350.68A93.81,93.81,0,0,1,309.45,349a1.87,1.87,0,1,1,.72-3.67,89,89,0,0,0,59.69-165.47,1.87,1.87,0,0,1,1.79-3.28,92.73,92.73,0,0,1-44.39,174.13Z" transform="translate(-0.45 -1.31)"/>
      <path d="M258.47,236.1a2.09,2.09,0,0,1-.6-.1,1.88,1.88,0,0,1-1.17-2.38,74.82,74.82,0,0,1,27-36.43,1.87,1.87,0,0,1,2.2,3,71,71,0,0,0-25.62,34.61A1.87,1.87,0,0,1,258.47,236.1Z" transform="translate(-0.45 -1.31)"/>
      <path d="M327.74,333a74.53,74.53,0,0,1-53.49-22.39l-2.25-2.2a1.87,1.87,0,1,1,2.62-2.67l2.26,2.22A71.34,71.34,0,1,0,343.55,188.4a1.87,1.87,0,0,1,.83-3.65A75.08,75.08,0,0,1,327.74,333Z" transform="translate(-0.45 -1.31)"/>
      <path d="M395.52,173.21a30.49,30.49,0,0,1-5.23,3.94c-3.25,2-7.59,4.34-7.59,4.34A178,178,0,0,1,397,194.9c7.42,7.81,14.24,22.09,14.24,22.09A157.75,157.75,0,0,0,395.52,173.21Z" transform="translate(-0.45 -1.31)"/>
      <polygon points="249.48 192.65 243.18 203.55 255.77 203.55 249.48 192.65"/>
      <polygon points="249.48 178.06 243.18 190.84 255.77 190.84 249.48 178.06"/>
      <polygon points="249.48 161.13 243.18 176.64 255.77 176.64 249.48 161.13"/>
      <polygon points="249.48 136.11 243.18 158.8 255.77 158.8 249.48 136.11"/>
      <polygon points="249.48 106.48 243.18 133.81 255.77 133.81 249.48 106.48"/>
      <polygon points="247.38 80.45 243.18 104.18 255.77 104.18 251.52 80.17 247.38 80.45"/>
      <path d="M175.5,353.38l-44.33,11.88c11.43,11.59,22.8,20.5,34.08,26.36Z" transform="translate(-0.45 -1.31)"/>
      <path d="M183.78,382.22l-14.13,12a171.9,171.9,0,0,0,17.86,8.4Z" transform="translate(-0.45 -1.31)"/>
      <path d="M135.36,344.71l-18.87,2.34a101,101,0,0,0,11.61,14.84Z" transform="translate(-0.45 -1.31)"/>
      <path d="M324.55,353.38l44.33,11.88c-11.43,11.59-22.79,20.5-34.08,26.36Z" transform="translate(-0.45 -1.31)"/>
      <path d="M316.27,382.22l14.14,12a172,172,0,0,1-17.87,8.4Z" transform="translate(-0.45 -1.31)"/>
      <path d="M364.69,344.71l18.87,2.34A100.25,100.25,0,0,1,372,361.89Z" transform="translate(-0.45 -1.31)"/>
    </g>
    <path id="Mouth" class="cls-2" d="M275.53,348.12s-4.32-4.81-8.88-5.32-16.73-1.48-16.73-1.48-12.16,1-16.72,1.48-8.88,5.32-8.88,5.32c2.52,6.08,4.57,46.38,4.57,46.38s-.51,5.07,5.52,8.87,15.51,5.83,15.51,5.83,9.48-2,15.51-5.83S271,394.5,271,394.5,273,354.2,275.53,348.12Z" transform="translate(-0.45 -1.31)"/>
    <polygon id="Mouth_hole" data-name="Mouth hole" class="fill" points="263.16 351.25 278.72 348.75 278.13 345.06 258.94 348.14 242.69 348.14 223.5 345.06 222.91 348.75 235.8 350.82 235.8 389.3 225.56 392.65 226.73 396.2 238.61 392.31 260.4 392.31 272.29 396.2 273.45 392.65 263.16 389.28 263.16 351.25"/>
    <g id="Eyes">
      <g>
        <g class="cls-4">
          <g>
            <polygon class="cls-1" points="174.79 208.36 155.03 242.59 194.55 242.59 174.79 208.36"/>
            <polygon class="cls-1" points="194.55 242.59 214.31 208.36 174.79 208.36 194.55 242.59"/>
            <polygon class="cls-1" points="155.03 242.59 174.79 208.36 135.27 208.36 155.03 242.59"/>
            <polygon class="cls-1" points="174.79 299.25 194.55 265.02 155.03 265.02 174.79 299.25"/>
            <polygon class="cls-1" points="155.03 265.02 135.27 299.25 174.79 299.25 155.03 265.02"/>
            <polygon class="cls-1" points="194.55 265.02 174.79 299.25 214.31 299.25 194.55 265.02"/>
          </g>
        </g>
        <circle class="cls-1" cx="174.79" cy="253.14" r="45.6"/>
      </g>
      <g id="Left_Eye" data-name="Left Eye">
        <g class="cls-5">
          <g>
            <polygon class="cls-1" points="324.31 208.36 344.07 242.59 304.55 242.59 324.31 208.36"/>
            <polygon class="cls-1" points="304.55 242.59 284.79 208.36 324.31 208.36 304.55 242.59"/>
            <polygon class="cls-1" points="344.07 242.59 324.31 208.36 363.83 208.36 344.07 242.59"/>
            <polygon class="cls-1" points="324.31 299.25 304.55 265.02 344.07 265.02 324.31 299.25"/>
            <polygon class="cls-1" points="344.07 265.02 363.83 299.25 324.31 299.25 344.07 265.02"/>
            <polygon class="cls-1" points="304.55 265.02 324.31 299.25 284.79 299.25 304.55 265.02"/>
          </g>
        </g>
        <circle id="SVGID-2" data-name="SVGID" class="cls-1" cx="324.31" cy="253.14" r="45.6"/>
      </g>
    </g>
    <g id="Cheeks">
      <line class="cls-6" x1="205.28" y1="364.55" x2="205.28" y2="387.48"/>
      <line class="cls-6" x1="210.51" y1="364.55" x2="210.51" y2="387.48"/>
      <line class="cls-6" x1="215.75" y1="364.55" x2="215.75" y2="387.48"/>
      <line class="cls-6" x1="286.03" y1="364.55" x2="286.03" y2="387.48"/>
      <line class="cls-6" x1="291.26" y1="364.55" x2="291.26" y2="387.48"/>
      <line class="cls-6" x1="296.5" y1="364.55" x2="296.5" y2="387.48"/>
      <path class="cls-7" d="M290.22,412.64S308.87,383,308.87,372s-49.22-47-59-47S191,360.91,191,372s18.65,40.69,18.65,40.69" transform="translate(-0.45 -1.31)"/>
      <path class="cls-7" d="M294.91,412.64s20.82-33.1,20.82-45.43-55-52.51-65.81-52.51-65.8,40.19-65.8,52.51,20.82,45.43,20.82,45.43" transform="translate(-0.45 -1.31)"/>
    </g>
    <circle id="Outline" class="cls-8" cx="249.48" cy="249.05" r="168.15"/>
  </g>
</svg>
