<svg id="Layer_1" data-name="Layer 1" xmlns="http://www.w3.org/2000/svg" viewBox="0 0 497.37 497.37">
  <defs>
    <style>
      .cls-1, .cls-2, .cls-3 {
        fill: #fff;
      }

      .cls-2, .cls-3, .cls-4 {
        stroke: "currentColor";
        stroke-miterlimit: 10;
      }

      .cls-2 {
        stroke-width: 10px;
      }

      .cls-4 {
        fill: none;
        stroke-linecap: round;
      }
      .cls-5 {
        fill: "currentColor";
      }
      .cls-6 {
        fill: #FFF;
      }
    </style>
  </defs>
  <g>
    <path class="cls-1" d="M249.13,8.38,490.75,250,249.13,491.62,7.52,250,249.13,8.38m0-7.07L.45,250,249.13,498.69,497.82,250,249.13,1.31Z" transform="translate(-0.45 -1.31)"/>
    <path class="cls-1" d="M420,79.15v341.7H78.29V79.15H420m5-5H73.29v351.7H425V74.15Z" transform="translate(-0.45 -1.31)"/>
  </g>
  <g>
    <path id="Outline" class="cls-2" d="M412,175c2.33-22.29-3.24-40.38-22.28-73.91S345,33.3,345,33.3C361.72,75,385.33,140.63,374.29,155.74c-5.2,7.1-13.47,16.17-22.92,25.12-.59-1.44-5.92-13.4-27.53-32.09-23.08-20-56.86-25.28-56.86-25.28,22.35,19.17,14.35,38.85-16.9,42.39h-.16c-31.25-3.54-39.25-23.22-16.9-42.39,0,0-33.78,5.33-56.86,25.28-21.61,18.69-26.94,30.65-27.53,32.09-9.45-9-17.72-18-22.92-25.12-11-15.11,12.57-80.78,29.34-122.44,0,0-25.72,34.25-44.77,67.77S85.67,152.69,88,175c1.54,14.78,25.5,39.33,41.47,54.19-.68,5.54,2.16,11,7.06,15.62a21.89,21.89,0,0,1,3.28,12.09c-.29,10.58-2,11.53-2,11.53s-2.53-1.34-3.86,1-1.81,5.52-3.33,8a17.84,17.84,0,0,1-4.91,4.57s.42,4.54.48,7.74-.45,4.8.19,6.64,8.6,14.76,13.43,44.35c1.48,9.11,2.45,16.5,3.15,22.56-.45.43-.9.83-1.37,1.2-9.4,7.25-31,9.51-31,9.51s20.55,5.83,34,5a35.58,35.58,0,0,0,1.77,8.82c2.41,6,18.41,17.78,33,36.06S194.86,453.36,197,456s9.14,5.87,28.64,8.41,24.33,2.29,24.33,2.29h.16s4.84.25,24.33-2.29S301,458.7,303.05,456s3.05-13.81,17.59-32.1,30.54-30.09,32.95-36.06a35.58,35.58,0,0,0,1.77-8.82c13.49.81,34-5,34-5s-21.59-2.26-31-9.51c-.47-.37-.92-.77-1.37-1.2.7-6.06,1.67-13.45,3.15-22.56,4.83-29.59,12.8-42.51,13.43-44.35s.13-3.43.19-6.64.48-7.74.48-7.74a17.84,17.84,0,0,1-4.91-4.57c-1.52-2.48-2-5.62-3.33-8s-3.86-1-3.86-1-1.71-1-2-11.53a21.81,21.81,0,0,1,3.29-12.09c4.9-4.59,7.73-10.08,7-15.62C386.5,214.31,410.46,189.76,412,175Z" transform="translate(-0.45 -1.31)"/>
    <g id="Mouth_cover" data-name="Mouth cover">
      <path class="cls-3" d="M250.06,281.93,277.2,258l52.38-8.75s41.08-16.14,39.3-13.35-8.92,8.67-8.63,19.24,2,11.52,2,11.52,2.52-1.33,3.85,1.05,1.81,5.53,3.34,8a17.54,17.54,0,0,0,4.9,4.57s-.41,4.54-.47,7.75.44,4.79-.19,6.63-8.61,14.77-13.43,44.35-4.19,41.15-6.61,47.12-18.41,17.77-32.95,36.06-15.49,29.43-17.59,32.09-9.14,5.88-28.63,8.42S250.14,465,250.14,465H250s-4.83.26-24.33-2.28S199.1,457,197,454.31s-3-13.8-17.59-32.09-30.54-30.1-32.95-36.06-1.78-17.53-6.61-47.12-12.79-42.5-13.42-44.35-.13-3.42-.19-6.63-.48-7.75-.48-7.75a17.54,17.54,0,0,0,4.9-4.57c1.53-2.47,2-5.62,3.34-8s3.85-1.05,3.85-1.05,1.72-.95,2-11.52-6.85-16.44-8.63-19.24,39.3,13.35,39.3,13.35L222.91,258l27.15,23.9" transform="translate(-0.45 -1.31)"/>
    </g>
    <g id="Under_eyes" data-name="Under eyes" class="cls-5">
      <path id="left_Under_Eye" data-name="left Under Eye" d="M134.86,268.69s1.52-.28,6.47,4.77,18.86,28.19,27,33.42,11.43,7.24,25.52,7.62,24.48-1.33,28.58,3.34-2.7,27.62-1.78,31.24,16.82-7.34,16.82-7.34L241,283.55l-15.68-24.19-46.89,15.43-26-11.43-11.19,4.86-3.38.19A5.6,5.6,0,0,0,134.86,268.69Z" transform="translate(-0.45 -1.31)"/>
      <path id="Right_Under_Eye" data-name="Right Under Eye" d="M365.14,268.69s-1.52-.28-6.47,4.77-18.86,28.19-27.05,33.42-11.43,7.24-25.52,7.62-24.48-1.33-28.58,3.34,2.7,27.62,1.78,31.24-16.82-7.34-16.82-7.34l-3.43-58.19,15.68-24.19,46.89,15.43,26-11.43,13.77,5h.8A3.5,3.5,0,0,1,365.14,268.69Z" transform="translate(-0.45 -1.31)"/>
    </g>
    <g id="Eyes_ockets" data-name="Eyes ockets">
      <path id="left_Eye_Socket" data-name="left Eye Socket" class="cls-1" d="M138.43,247.12s5.44,4.94,16.62,6.46,30.28,5.4,44.31,12.7,21.34,13.4,21.34,18.29S214,297,209.24,301.08s-17.05,6.38-29.43,2.47S158.76,289.84,153.52,284s-7.9-9.81-10.38-12.19a20.43,20.43,0,0,0-4.7-3.46C139.71,268.14,144.38,254.57,138.43,247.12Z" transform="translate(-0.45 -1.31)"/>
      <path id="Right_eye_Socket" data-name="Right eye Socket" class="cls-1" d="M360.46,247.87s-4.33,4.19-15.51,5.71-30.28,5.4-44.31,12.7-21.34,13.4-21.34,18.29S286,297,290.76,301.08s17.05,6.38,29.43,2.47,21.05-13.71,26.29-19.52,8-9.75,10.38-12.19a18.39,18.39,0,0,1,4.69-3.44C360.37,268.42,354.51,255.39,360.46,247.87Z" transform="translate(-0.45 -1.31)"/>
    </g>
    <g id="Left_eyes" data-name="Left eyes" class="cls-5">
      <path id="left_lower_eye" class="cls-5" data-name="left lower eye" d="M151,266.12a20.92,20.92,0,0,0,4.26,6.19c2.66,2.48,7.28,5.43,9.95,8.29s4.29,6.52,8.52,9.62,9.34,7.38,18.43,8.9,8.67-2.76,12.57-2.66,4.43.66,4.43.66a30.51,30.51,0,0,1-3.43-3.09c-2-2.1-6.52-6.43-15.47-10.57s-24.72-8.67-29.34-10.91A66,66,0,0,1,151,266.12Z" transform="translate(-0.45 -1.31)"/>
      <path id="left_upper_eye"  class="cls-5" data-name="left upper eye" d="M151,251s15.75,10.28,20.57,14,6.48,9.39,21,14.09,11.81-1.14,18.66-2.66,14.1,1.39,14.1,1.39S180.44,244.27,151,251Z" transform="translate(-0.45 -1.31)"/>
    </g>
    <g id="Lips">
      <g>
        <path class="cls-1" d="M249.94,404.87Z" transform="translate(-0.45 -1.31)"/>
        <polygon points="249.5 403.56 249.5 403.56 249.5 403.56 249.5 403.56"/>
      </g>
      <g>
        <path class="cls-1" d="M250.06,404.87Z" transform="translate(-0.45 -1.31)"/>
        <polygon points="249.61 403.56 249.61 403.56 249.61 403.56 249.61 403.56"/>
      </g>
      <path class="cls-3" d="M249.94,404.87l-.62.06c-.69.09-3.83,2.11-5.57,2.53s-.94-.67-3.51-.57-3.24,2.14-5,2.81-1.39-.58-3.39-1.29a2.85,2.85,0,0,0-3.19.86l-2.85,2.43a11.89,11.89,0,0,0-7.38-.05c-4.34,1.24-8.15,3.76-12.81,3.43s-9.62,1.66-12.43,1-5.94,1.34-10.07-1.39-2.85-5.08-3.3-10-1.59-4.89-2.54-5.78-.25-1.53-1.62-3.81-.73-6-.79-8.19-3.11-9.72-5-14-10.38-6.54-10.38-6.54.54-10.86-3.84-14.35-5.4-26.54-5.4-26.54l-2-7.89-3.75-4.17a13.18,13.18,0,0,1,6,2.28c2.82,2,1.86,5.72,2.15,7.07s1.31,1.6,1.79,3.6-.2,9.81,4.66,15.43,14.64,5.08,19,4.89,21.34,9.33,21.34,9.33,9.08,5.08,11.49,5.84,9.4,10.54,14.35,12.64,4.57-1.85,7.87-1.59,3.75,4.89,6.28,8.25S250,385,250,385h.1s8-.41,10.53-3.78,3-8,6.28-8.25,2.92,3.68,7.87,1.59,11.94-11.88,14.35-12.64,11.49-5.84,11.49-5.84,17-9.52,21.34-9.33,14.09.73,18.95-4.89,4.19-13.43,4.66-15.43,1.5-2.24,1.79-3.6-.67-5,2.15-7.07a13.18,13.18,0,0,1,6-2.28l-3.75,4.17-2,7.89s-1,23.05-5.4,26.54-3.84,14.35-3.84,14.35S332,368.69,330.1,373s-5,11.81-5,14,.57,5.9-.79,8.19-.67,2.92-1.62,3.81-2.1.82-2.54,5.78.82,7.3-3.3,10-7.26.77-10.07,1.39-7.76-1.38-12.43-1-8.47-2.19-12.81-3.43a11.89,11.89,0,0,0-7.38.05l-2.85-2.43a2.85,2.85,0,0,0-3.19-.86c-2,.71-1.67,1.95-3.39,1.29s-2.38-2.72-4.95-2.81-1.76,1-3.51.57-4.88-2.44-5.57-2.53l-.62-.06Z" transform="translate(-0.45 -1.31)"/>
    </g>
    <g id="Mouth" class="cls-5">
      <path d="M249.92,403.36c-11.23,0-15.3,2.24-20.25,3.67s-15,4.17-15,4.17-.18.51-6.75,1.43-11.8-2.84-17.08-5.93c-15.24-12.2-10.38-11.53-16.67-27.34s-14-18.95-20.67-24.76-4.38-28.29-4.38-32.1-4.57-9-4.57-9,4.57,3.62,5.91,7.62,1.23,13.23,4.66,18.76,10.64,7.84,16.29,8.85,7,6.86,22.92,9.78,18.32,8,22.41,12.7,18.29,13.53,23.53,15.91a16.16,16.16,0,0,0,9.63,1.33h.16a16.16,16.16,0,0,0,9.63-1.33c5.24-2.38,19.43-11.24,23.53-15.91s6.54-9.78,22.41-12.7,17.27-8.76,22.92-9.78,12.86-3.33,16.29-8.85,3.33-14.76,4.66-18.76,5.91-7.62,5.91-7.62-4.57,5.23-4.57,9,2.28,26.29-4.38,32.1-14.38,8.95-20.67,24.76-1.43,15.14-16.67,27.34c-5.28,3.09-10.5,6.85-17.08,5.93s-6.75-1.43-6.75-1.43-10-2.74-15-4.17-9-3.67-20.25-3.67Z" transform="translate(-0.45 -1.31)"/>
    </g>
    <g id="Right_eyes" data-name="Right eyes" class="cls-5">
      <path id="Right_lower_eye_bg" data-name="Right lower eye bg" d="M349,266.12a20.92,20.92,0,0,1-4.26,6.19c-2.66,2.48-7.28,5.43-9.95,8.29s-4.29,6.52-8.52,9.62-9.34,7.38-18.43,8.9-8.67-2.76-12.57-2.66-4.43.66-4.43.66a30.51,30.51,0,0,0,3.43-3.09c2-2.1,6.52-6.43,15.47-10.57s24.72-8.67,29.34-10.91A66,66,0,0,0,349,266.12Z" transform="translate(-0.45 -1.31)"/>
      <path id="Right_top_eye_bg" data-name="Right top eye bg" d="M349,251s-15.75,10.28-20.57,14-6.48,9.39-21,14.09-11.81-1.14-18.66-2.66-14.1,1.39-14.1,1.39S319.56,244.27,349,251Z" transform="translate(-0.45 -1.31)"/>
    </g>
    <g id="Eyeballs" class="cls-3">
      <g id="Left_upper_eyeball" data-name="Left upper eyeball">
        <g>
          <path class="cls-1" d="M194.73,273.4a6.3,6.3,0,1,1,6.29-6.29A6.29,6.29,0,0,1,194.73,273.4Z" transform="translate(-0.45 -1.31)"/>
          <path d="M194.73,261.31a5.8,5.8,0,1,1-5.79,5.8,5.8,5.8,0,0,1,5.79-5.8m0-1a6.8,6.8,0,1,0,6.79,6.8,6.79,6.79,0,0,0-6.79-6.8Z" transform="translate(-0.45 -1.31)"/>
        </g>
        <g>
          <path class="cls-1" d="M194.35,271a5.09,5.09,0,1,1,5.09-5.09A5.09,5.09,0,0,1,194.35,271Z" transform="translate(-0.45 -1.31)"/>
          <path d="M194.35,261.31a4.59,4.59,0,1,1-4.59,4.59,4.6,4.6,0,0,1,4.59-4.59m0-1a5.59,5.59,0,1,0,5.59,5.59,5.59,5.59,0,0,0-5.59-5.59Z" transform="translate(-0.45 -1.31)"/>
        </g>
        <g>
          <path class="cls-1" d="M193.94,267.62a3.41,3.41,0,1,1,3.4-3.4A3.41,3.41,0,0,1,193.94,267.62Z" transform="translate(-0.45 -1.31)"/>
          <path d="M193.94,261.31a2.91,2.91,0,1,1-2.91,2.91,2.91,2.91,0,0,1,2.91-2.91m0-1a3.91,3.91,0,1,0,3.9,3.91,3.91,3.91,0,0,0-3.9-3.91Z" transform="translate(-0.45 -1.31)"/>
        </g>
      </g>
      <g id="left_lower_eyeball" data-name="left lower eyeball">
        <g>
          <path class="cls-1" d="M185.71,291.21a6.3,6.3,0,1,1,6.3-6.29A6.29,6.29,0,0,1,185.71,291.21Z" transform="translate(-0.45 -1.31)"/>
          <path d="M185.71,279.12a5.8,5.8,0,1,1-5.79,5.8,5.8,5.8,0,0,1,5.79-5.8m0-1a6.8,6.8,0,1,0,6.8,6.8,6.79,6.79,0,0,0-6.8-6.8Z" transform="translate(-0.45 -1.31)"/>
        </g>
        <g>
          <circle class="cls-1" cx="184.89" cy="282.4" r="5.09"/>
          <path d="M185.33,279.12a4.59,4.59,0,1,1-4.58,4.59,4.6,4.6,0,0,1,4.58-4.59m0-1a5.59,5.59,0,1,0,5.59,5.59,5.58,5.58,0,0,0-5.59-5.59Z" transform="translate(-0.45 -1.31)"/>
        </g>
        <g>
          <path class="cls-1" d="M184.92,285.43a3.41,3.41,0,1,1,3.4-3.4A3.4,3.4,0,0,1,184.92,285.43Z" transform="translate(-0.45 -1.31)"/>
          <path d="M184.92,279.12A2.91,2.91,0,1,1,182,282a2.91,2.91,0,0,1,2.9-2.91m0-1a3.91,3.91,0,1,0,3.9,3.91,3.9,3.9,0,0,0-3.9-3.91Z" transform="translate(-0.45 -1.31)"/>
        </g>
      </g>
      <g id="Right_top_eye" data-name="Right top eye">
        <g>
          <circle class="cls-1" cx="304.82" cy="265.79" r="6.29"/>
          <path d="M305.27,261.31a5.8,5.8,0,1,1-5.79,5.8,5.8,5.8,0,0,1,5.79-5.8m0-1a6.8,6.8,0,1,0,6.79,6.8,6.79,6.79,0,0,0-6.79-6.8Z" transform="translate(-0.45 -1.31)"/>
        </g>
        <g>
          <path class="cls-1" d="M305.65,271a5.09,5.09,0,1,1,5.09-5.09A5.1,5.1,0,0,1,305.65,271Z" transform="translate(-0.45 -1.31)"/>
          <path d="M305.65,261.31a4.59,4.59,0,1,1-4.59,4.59,4.6,4.6,0,0,1,4.59-4.59m0-1a5.59,5.59,0,1,0,5.59,5.59,5.59,5.59,0,0,0-5.59-5.59Z" transform="translate(-0.45 -1.31)"/>
        </g>
        <g>
          <path class="cls-1" d="M306.06,267.62a3.41,3.41,0,1,1,3.41-3.4A3.41,3.41,0,0,1,306.06,267.62Z" transform="translate(-0.45 -1.31)"/>
          <path d="M306.06,261.31a2.91,2.91,0,1,1-2.9,2.91,2.91,2.91,0,0,1,2.9-2.91m0-1a3.91,3.91,0,1,0,3.91,3.91,3.91,3.91,0,0,0-3.91-3.91Z" transform="translate(-0.45 -1.31)"/>
        </g>
      </g>
      <g id="Right_lower_eye" data-name="Right lower eye">
        <g>
          <path class="cls-1" d="M314.29,291.21a6.3,6.3,0,1,1,6.29-6.29A6.3,6.3,0,0,1,314.29,291.21Z" transform="translate(-0.45 -1.31)"/>
          <path d="M314.29,279.12a5.8,5.8,0,1,1-5.8,5.8,5.8,5.8,0,0,1,5.8-5.8m0-1a6.8,6.8,0,1,0,6.79,6.8,6.79,6.79,0,0,0-6.79-6.8Z" transform="translate(-0.45 -1.31)"/>
        </g>
        <g>
          <path class="cls-1" d="M314.67,288.8a5.09,5.09,0,1,1,5.08-5.09A5.1,5.1,0,0,1,314.67,288.8Z" transform="translate(-0.45 -1.31)"/>
          <path d="M314.67,279.12a4.59,4.59,0,1,1-4.59,4.59,4.59,4.59,0,0,1,4.59-4.59m0-1a5.59,5.59,0,1,0,5.58,5.59,5.59,5.59,0,0,0-5.58-5.59Z" transform="translate(-0.45 -1.31)"/>
        </g>
        <g>
          <path class="cls-1" d="M315.08,285.43a3.41,3.41,0,1,1,3.41-3.4A3.41,3.41,0,0,1,315.08,285.43Z" transform="translate(-0.45 -1.31)"/>
          <path d="M315.08,279.12a2.91,2.91,0,1,1-2.9,2.91,2.91,2.91,0,0,1,2.9-2.91m0-1A3.91,3.91,0,1,0,319,282a3.9,3.9,0,0,0-3.9-3.91Z" transform="translate(-0.45 -1.31)"/>
        </g>
      </g>
    </g>
    <g id="Nose">
      <path class="cls-3" d="M249.92,165.88l0,199.37s-7.29.78-11.17-1.38-2.6-4.25-6.6-5.91-11.43-.44-13.4-6.73,14.81-18.6,14.81-41.71S212.19,271.68,191,262.79s-37.08-7-47-12.57S127.62,236,129.78,227.49,148.57,181,148.57,181s4.52-12.29,27.59-32.24S233,123.49,233,123.49c-22.35,19.17-14.35,38.85,16.9,42.39h.16c31.25-3.54,39.25-23.22,16.9-42.39,0,0,33.78,5.33,56.86,25.28S351.43,181,351.43,181s16.63,38,18.79,46.48-4.31,17.14-14.22,22.73-25.78,3.68-47,12.57-42.62,23.62-42.62,46.73,16.77,35.43,14.81,41.71-9.4,5.08-13.4,6.73-2.73,3.75-6.6,5.91S250,365.25,250,365.25" transform="translate(-0.45 -1.31)"/>
    </g>
    <g id="Forehead_patches" data-name="Forehead patches" class="cls-5">
      <path id="Right_forehead_cover" data-name="Right forehead cover" d="M350.79,252s-46.22,17.27-64.12-7.24,15.11-64.51,14.85-87.88c-.25-23.09-35.17-32.71-34.54-33.39,11.75,2.69,11.24,1,35,11.33s36.88,28.43,38.75,30.64,18.86,22.06,19,39.3C367.55,210.93,383.13,240.86,350.79,252Z" transform="translate(-0.45 -1.31)"/>
      <path id="Left_forehead_cover" data-name="Left forehead cover" d="M149.21,252s46.22,17.27,64.12-7.24-14.85-64.51-14.85-87.88c0-23.16,34.27-32.71,34.29-33.19-16.68,4.24-10.88.7-34.69,11.08s-37.3,29.3-39.16,31.51-18.55,21.24-18.73,38.48C132.36,211.1,116.76,241.16,149.21,252Z" transform="translate(-0.45 -1.31)"/>
    </g>
    <g id="Eyelids" class="cls-6">
      <path id="Left_eyelid" data-name="Left eyelid" d="M175.23,277.73c-.4-.1,16,5.28,22,9.51,5,3.47,7.27-3.53,7.27-3.53S172.56,271.21,175.23,277.73Z" transform="translate(-0.45 -1.31)"/>
      <path id="Right_lower_eyelid" data-name="Right lower eyelid" d="M324.77,277.73c.4-.1-16,5.28-22,9.51-5,3.47-7.27-3.53-7.27-3.53S327.44,271.21,324.77,277.73Z" transform="translate(-0.45 -1.31)"/>
    </g>
    <g id="Stroke">
      <g id="Tusks" class="cls-3">
        <g id="Outer_Tooth" data-name="Outer Tooth">
          <path class="cls-1" d="M141.94,378.63c-10.23,0-23.34-3.05-28.73-4.43,6-.84,21.11-3.44,28.68-9.29,6.67-5.14,10.9-17.24,13-24.69a13,13,0,0,0,3.92,4.16,26,26,0,0,0,7.16,3.49,44.75,44.75,0,0,0,4.35,1.07c.63.13,1.28.27,1.4.31l.05,0h.06a9,9,0,0,1,2.44,1c-1.67,3.09-12.41,22.4-22.58,26.86C149.39,378.13,146.12,378.63,141.94,378.63Z" transform="translate(-0.45 -1.31)"/>
          <path d="M155.05,341.41a13.77,13.77,0,0,0,3.43,3.37,26.14,26.14,0,0,0,7.29,3.55,39.6,39.6,0,0,0,4.42,1.1c.57.12,1.21.25,1.33.29l.11,0,.12,0a7.76,7.76,0,0,1,1.82.69c-2.26,4.13-12.47,22-22.1,26.2-2.22,1-5.42,1.46-9.53,1.46-8.86,0-19.91-2.31-26.16-3.81,7-1.13,19.66-3.79,26.42-9,6.47-5,10.66-16.34,12.85-23.9m-.38-2.39c-1.73,6.51-6.06,20.08-13.08,25.5-9.4,7.25-31,9.51-31,9.51s18,5.1,31.34,5.1a25.7,25.7,0,0,0,9.93-1.55c11.3-4.95,23-27.5,23-27.5a9.8,9.8,0,0,0-3-1.29c-.42-.16-4.22-.84-5.77-1.4a26.35,26.35,0,0,1-7-3.41,14.78,14.78,0,0,1-4.41-5Z" transform="translate(-0.45 -1.31)"/>
        </g>
        <g id="Tusk">
          <path class="cls-1" d="M205.8,412.27a14.29,14.29,0,0,1-4.56-.76,46.09,46.09,0,0,1-15.55-9.84h0s-2.35-2.83-5.4-12.46c-.57-1.79-1.07-3.29-1.51-4.59-2-5.92-2.57-7.7-2.57-15.73,0-12.32,6-26.74,18.36-44.1,11.78-16.56,24.77-24.94,29.27-27.52-3.94,6.52-17.94,31.68-16.09,57.24,2.06,28.31,11.56,39.31,12.74,40.58l2.6,13.26c-1.38.34-5.57,1.42-9.58,2.77A35.92,35.92,0,0,1,205.8,412.27Z" transform="translate(-0.45 -1.31)"/>
          <path d="M222.42,298.71c-4.9,8.49-16.9,32-15.16,55.84,2,27.76,11.19,39,12.77,40.78L222.5,408c-1.7.43-5.47,1.43-9.1,2.65a35.22,35.22,0,0,1-7.6,1.14,13.74,13.74,0,0,1-4.39-.73,45.59,45.59,0,0,1-15.33-9.68c-.23-.29-2.45-3.27-5.32-12.3-.57-1.8-1.06-3.28-1.5-4.59-2-5.87-2.55-7.63-2.55-15.58,0-12.21,6-26.54,18.26-43.81a98,98,0,0,1,27.45-26.37m2.85-2.78s-16.38,7.88-31.11,28.57S175.71,359,175.71,368.89s1,10.57,4.1,20.47S185.33,402,185.33,402a46.87,46.87,0,0,0,15.76,10,14.77,14.77,0,0,0,4.71.78,37.06,37.06,0,0,0,7.87-1.17c4.9-1.66,10-2.88,10-2.88L221,394.85s-10.54-10.66-12.7-40.38,17-58.54,17-58.54Z" transform="translate(-0.45 -1.31)"/>
        </g>
        <g id="Inner_Tooth" data-name="Inner Tooth">
          <path class="cls-1" d="M232.29,415.42a18.59,18.59,0,0,1-14.94-7.6c-6.07-7.86-11.75-24.73-1.54-36.95a28,28,0,0,0,6.11,5.35l.77.54c1.52,1.07,5.43,3.82,7.76,5.32a33.4,33.4,0,0,0-3.08,17c.73,9,4.6,14.41,6.2,16.29C233.23,415.39,232.79,415.42,232.29,415.42Z" transform="translate(-0.45 -1.31)"/>
          <path d="M215.82,371.65a29,29,0,0,0,5.82,5l.42.3.38.27c1.58,1.1,5.05,3.54,7.37,5.06a33.93,33.93,0,0,0-2.93,16.86,29.72,29.72,0,0,0,5.69,15.79h-.28a18.13,18.13,0,0,1-14.55-7.41c-5.9-7.64-11.43-23.9-1.92-35.86m0-1.57c-10.9,12.42-5.36,29.65,1.12,38a19.1,19.1,0,0,0,15.34,7.8,12.71,12.71,0,0,0,2.31-.18s-5.84-5.58-6.73-16.7a33,33,0,0,1,3.22-17.14c-2.42-1.54-7.17-4.89-8.46-5.79a28.35,28.35,0,0,1-6.8-6Z" transform="translate(-0.45 -1.31)"/>
        </g>
        <g id="Outer_Tooth-2" data-name="Outer Tooth">
          <path class="cls-1" d="M358.06,378.63c-4.18,0-7.45-.5-9.73-1.5-10.17-4.46-20.91-23.77-22.58-26.86a9,9,0,0,1,2.44-1h.06l.05,0c.12,0,.77-.18,1.4-.31a42.75,42.75,0,0,0,4.36-1.08,26,26,0,0,0,7.16-3.48,13.08,13.08,0,0,0,3.91-4.16c2.08,7.45,6.31,19.55,13,24.69,7.57,5.85,22.64,8.45,28.68,9.29-5.39,1.38-18.5,4.43-28.73,4.43Z" transform="translate(-0.45 -1.31)"/>
          <path d="M345,341.41c2.19,7.56,6.38,18.91,12.85,23.9,6.76,5.22,19.38,7.88,26.42,9-6.25,1.5-17.3,3.81-26.16,3.81-4.11,0-7.31-.49-9.53-1.46-9.63-4.22-19.84-22.07-22.1-26.2a7.76,7.76,0,0,1,1.82-.69h.1l.11,0c.14-.05.78-.18,1.35-.3a40.42,40.42,0,0,0,4.4-1.09,26.35,26.35,0,0,0,7.3-3.55,13.85,13.85,0,0,0,3.44-3.38m.38-2.39a14.78,14.78,0,0,1-4.41,5,26.35,26.35,0,0,1-7,3.41c-1.55.56-5.35,1.24-5.77,1.4a9.8,9.8,0,0,0-3,1.29s11.75,22.55,23.05,27.5a25.7,25.7,0,0,0,9.93,1.55c13.36,0,31.34-5.1,31.34-5.1s-21.59-2.26-31-9.51c-7-5.42-11.35-19-13.08-25.5Z" transform="translate(-0.45 -1.31)"/>
        </g>
        <g id="Tusk-2" data-name="Tusk">
          <path class="cls-1" d="M294.2,412.27a36.36,36.36,0,0,1-7.77-1.16c-4-1.35-8.14-2.42-9.52-2.76l2.6-13.26c1.18-1.27,10.68-12.27,12.74-40.58,1.85-25.56-12.15-50.72-16.09-57.24,4.5,2.58,17.49,11,29.27,27.52,12.35,17.36,18.36,31.78,18.36,44.1,0,8-.6,9.81-2.58,15.74-.43,1.29-.93,2.79-1.5,4.58-3,9.63-5.4,12.47-5.42,12.49a46.31,46.31,0,0,1-15.54,9.82,14.45,14.45,0,0,1-4.55.75Z" transform="translate(-0.45 -1.31)"/>
          <path d="M277.58,298.71A98,98,0,0,1,305,325.08c12.28,17.27,18.26,31.6,18.26,43.81,0,7.95-.59,9.71-2.55,15.58-.44,1.31-.93,2.79-1.5,4.59-2.88,9.06-5.11,12-5.31,12.3A45.78,45.78,0,0,1,298.6,411a13.84,13.84,0,0,1-4.4.73,35.22,35.22,0,0,1-7.6-1.14c-3.63-1.22-7.4-2.22-9.1-2.65L280,395.33c1.58-1.74,10.76-13,12.77-40.78,1.74-23.85-10.26-47.35-15.16-55.84m-2.85-2.78s19.18,28.83,17,58.54-12.7,40.38-12.7,40.38l-2.72,13.87s5.1,1.22,10,2.88a37.06,37.06,0,0,0,7.87,1.17,14.77,14.77,0,0,0,4.71-.78,46.87,46.87,0,0,0,15.76-10s2.38-2.76,5.52-12.67,4.1-10.57,4.1-20.47-3.72-23.69-18.45-44.39-31.11-28.57-31.11-28.57Z" transform="translate(-0.45 -1.31)"/>
        </g>
        <g id="Inner_Tooth-2" data-name="Inner Tooth">
          <path class="cls-1" d="M267.71,415.42c-.5,0-.94,0-1.28-.05,1.6-1.88,5.47-7.27,6.2-16.29a33.4,33.4,0,0,0-3.08-17c2.33-1.5,6.24-4.25,7.76-5.32l.77-.54a28.25,28.25,0,0,0,6.11-5.35c10.22,12.22,4.53,29.09-1.54,36.95a18.59,18.59,0,0,1-14.94,7.6Z" transform="translate(-0.45 -1.31)"/>
          <path d="M284.18,371.65c9.51,12,4,28.22-1.92,35.86a18.13,18.13,0,0,1-14.55,7.41h-.28a29.72,29.72,0,0,0,5.69-15.79,33.93,33.93,0,0,0-2.93-16.86c2.32-1.52,5.8-4,7.37-5.07l.38-.26.42-.3a29,29,0,0,0,5.82-5m0-1.57a28.35,28.35,0,0,1-6.8,6c-1.29.9-6,4.25-8.46,5.79A33,33,0,0,1,272.13,399c-.89,11.12-6.73,16.7-6.73,16.7a12.71,12.71,0,0,0,2.31.18,19.1,19.1,0,0,0,15.34-7.8c6.48-8.39,12-25.62,1.12-38Z" transform="translate(-0.45 -1.31)"/>
        </g>
      </g>
      <g id="Bottom_teeth" data-name="Bottom teeth">
        <path class="cls-3" d="M238,399.61s-1.68.67-1.79.41-1.06,1.1-1.39,1-.79-.29-1,.21a2.36,2.36,0,0,0,.7,2.05,2.77,2.77,0,0,1,.73,1.38s1.69-.15,1.93-.65,1.62-.05,2.32-.73" transform="translate(-0.45 -1.31)"/>
        <path class="cls-3" d="M242.31,400a3.55,3.55,0,0,1-2.48-1.06,2.91,2.91,0,0,1-.64-2.14,4.18,4.18,0,0,0-1.06,3.43,6.07,6.07,0,0,0,1.29,2.42c.2.48.1,1,.63,1s2.66-.51,2.88-1.09" transform="translate(-0.45 -1.31)"/>
        <path class="cls-3" d="M246.29,399.45a2.51,2.51,0,0,0-1.86-.19c-.88.33-1.67-.31-2,.31a2.73,2.73,0,0,0,.19,2.23,2.06,2.06,0,0,1,.31,1.05,4.8,4.8,0,0,0,1.48-.19c.62-.21,2.11-.1,2.42-1" transform="translate(-0.45 -1.31)"/>
        <path class="cls-3" d="M248.71,402.38c.52-.1.53-.46.4-1.77a10.58,10.58,0,0,1,0-2.12,7.16,7.16,0,0,1-1.65.36c-.38-.05-1.33.53-1.22.88s.72,2,.71,2.19S246.88,402.71,248.71,402.38Z" transform="translate(-0.45 -1.31)"/>
        <path class="cls-3" d="M262,399.61s1.68.67,1.79.41,1.06,1.1,1.39,1,.79-.29,1,.21a2.36,2.36,0,0,1-.7,2.05,2.77,2.77,0,0,0-.73,1.38s-1.69-.15-1.93-.65-1.62-.05-2.32-.73" transform="translate(-0.45 -1.31)"/>
        <path class="cls-3" d="M257.69,400a3.55,3.55,0,0,0,2.48-1.06,2.91,2.91,0,0,0,.64-2.14,4.18,4.18,0,0,1,1.06,3.43,6.07,6.07,0,0,1-1.29,2.42c-.2.48-.1,1-.63,1s-2.66-.51-2.88-1.09" transform="translate(-0.45 -1.31)"/>
        <path class="cls-3" d="M253.71,399.45a2.51,2.51,0,0,1,1.86-.19c.88.33,1.67-.31,2,.31a2.73,2.73,0,0,1-.19,2.23,2.06,2.06,0,0,0-.31,1.05,4.8,4.8,0,0,1-1.48-.19c-.62-.21-2.11-.1-2.42-1" transform="translate(-0.45 -1.31)"/>
        <path class="cls-3" d="M251.29,402.38c-.52-.1-.53-.46-.4-1.77a10.58,10.58,0,0,0,0-2.12,7.16,7.16,0,0,0,1.65.36c.38-.05,1.33.53,1.22.88s-.72,2-.71,2.19S253.12,402.71,251.29,402.38Z" transform="translate(-0.45 -1.31)"/>
      </g>
      <g id="Top_teeth" data-name="Top teeth">
        <path class="cls-3" d="M235.05,386.17s-1.07-.15-1-.33-.67-.43-.67-.43-1.43,1.47-1.19,2.06-.21,1.37.31,1.47l1.93.32" transform="translate(-0.45 -1.31)"/>
        <path class="cls-3" d="M238.13,387.65s-.87-1.19-1.39-1.24-1.55-.86-1.67-.45.22,1.57,0,2.26-.93.88-.62,1.64a1.76,1.76,0,0,0,1.6,1.05c.43-.05.61,1,1.37,1.12" transform="translate(-0.45 -1.31)"/>
        <path class="cls-3" d="M241.15,391.73a3,3,0,0,0-1.94,1,17.7,17.7,0,0,0-1,1.83,4.08,4.08,0,0,1-.81-2,7.82,7.82,0,0,1,.33-2.53c.31-1.5-.07-2.11.53-2.47s2.16,1,2.52.86.6,1.28.6,1.28" transform="translate(-0.45 -1.31)"/>
        <path class="cls-3" d="M244.79,389.21s-1.22-.67-2-.38-.78-.43-1.21.38a4,4,0,0,0-.47,2.52.48.48,0,0,0,.35.3c.81.17,2.14.33,2.48.36a4,4,0,0,0,.86-.1" transform="translate(-0.45 -1.31)"/>
        <path class="cls-3" d="M249.08,392.7s.23-3.43-.58-3.48a7.64,7.64,0,0,0-1.95.12c-.51.09-1.43-.43-1.76-.13-.67.6.31.63.33,1.72s-.83,1.6.33,1.77S248.54,393.27,249.08,392.7Z" transform="translate(-0.45 -1.31)"/>
        <path class="cls-3" d="M265,386.17s1.07-.15,1-.33.67-.43.67-.43,1.43,1.47,1.19,2.06.21,1.37-.31,1.47l-1.93.32" transform="translate(-0.45 -1.31)"/>
        <path class="cls-3" d="M261.87,387.65s.87-1.19,1.39-1.24,1.55-.86,1.67-.45-.22,1.57,0,2.26.93.88.62,1.64a1.76,1.76,0,0,1-1.6,1.05c-.43-.05-.61,1-1.37,1.12" transform="translate(-0.45 -1.31)"/>
        <path class="cls-3" d="M258.85,391.73a3,3,0,0,1,1.94,1,17.7,17.7,0,0,1,1,1.83,4.08,4.08,0,0,0,.81-2,7.82,7.82,0,0,0-.33-2.53c-.31-1.5.07-2.11-.53-2.47s-2.16,1-2.52.86-.6,1.28-.6,1.28" transform="translate(-0.45 -1.31)"/>
        <path class="cls-3" d="M255.21,389.21s1.22-.67,2-.38.78-.43,1.21.38a4,4,0,0,1,.47,2.52.48.48,0,0,1-.35.3c-.81.17-2.14.33-2.48.36a4,4,0,0,1-.86-.1" transform="translate(-0.45 -1.31)"/>
        <path class="cls-3" d="M250.92,392.7s-.23-3.43.58-3.48a7.64,7.64,0,0,1,1.95.12c.51.09,1.43-.43,1.76-.13.67.6-.31.63-.33,1.72s.83,1.6-.33,1.77S251.46,393.27,250.92,392.7Z" transform="translate(-0.45 -1.31)"/>
      </g>
      <g id="Right_horn" data-name="Right horn">
        <path class="cls-1" d="M356.22,241.26c-16.3-1.53-34.12-3.93-35.18-5.37-1.23-1.67-2.35-17.51-2.81-27.94C339.35,194.7,364,170.73,374.69,156c10.5-14.36-9-72-27.82-119.31,6.75,9.22,26.9,37.3,42.41,64.59,19.13,33.67,24.53,51.55,22.22,73.61C409.28,196.16,359.44,238.54,356.22,241.26Z" transform="translate(-0.45 -1.31)"/>
        <path d="M348.79,40.23c8.29,11.45,26.07,36.72,40.06,61.34,19.07,33.56,24.45,51.37,22.16,73.3-2.17,20.75-50.54,62.14-54.95,65.87-15.85-1.5-33-3.82-34.64-5.17-1-1.54-2.12-15-2.68-27.36,21.12-13.31,45.63-37.21,56.35-51.88,10.36-14.16-7.87-69.41-26.3-116.1M345,33.3C361.72,75,385.33,140.63,374.29,155.74s-36.07,39.14-56.57,51.94c0,0,1.14,26.09,2.92,28.51s35.74,5.58,35.74,5.58S409.67,197.26,412,175s-3.24-40.38-22.28-73.91S345,33.3,345,33.3Z" transform="translate(-0.45 -1.31)"/>
      </g>
      <g id="Left_horn" data-name="Left horn">
        <path class="cls-1" d="M143.78,241.26c-3.22-2.72-53.06-45.1-55.28-66.33-2.31-22.06,3.09-39.94,22.22-73.61C126.23,74,146.38,46,153.13,36.73c-18.86,47.32-38.32,105-27.82,119.31,10.74,14.69,35.34,38.66,56.46,51.91-.46,10.43-1.58,26.27-2.81,27.94C177.9,237.33,160.08,239.73,143.78,241.26Z" transform="translate(-0.45 -1.31)"/>
        <path d="M151.21,40.23c-18.43,46.69-36.66,101.94-26.3,116.1,10.72,14.67,35.23,38.57,56.35,51.88-.56,12.4-1.7,25.82-2.68,27.36-1.65,1.35-18.79,3.67-34.64,5.17C139.53,237,91.16,195.62,89,174.87c-2.29-21.93,3.09-39.74,22.16-73.3,14-24.62,31.77-49.89,40.06-61.34m3.84-6.93s-25.72,34.25-44.77,67.77S85.67,152.69,88,175s55.62,66.79,55.62,66.79,34-3.17,35.74-5.58,2.93-28.51,2.93-28.51c-20.51-12.8-45.53-36.83-56.58-51.94S138.28,75,155.05,33.3Z" transform="translate(-0.45 -1.31)"/>
      </g>
      <path class="cls-4" d="M212.7,138.6s-9.65,7.36-9.65,19.81,18.54,41.14,19.55,53.08,3.81,33-4.57,41.39-16.51,7.43-16.51,7.43,17.4,7.61,24.64,16.41,18.67,8.2,18.67,8.2V172.69S226,167.74,220.7,160.88s-5.65-16.38-5.65-16.38-9,7.24-5.91,16.57S225,193.65,227.43,211s.82,40.19-4.26,44.19a40.39,40.39,0,0,1-7.74,5.14s9.9,7.3,14.09,11.18S241,275.85,241,275.85V178.41s-14.47-5.34-18.86-9.34S213.52,157,213.52,157s15.81,37.36,18.23,53.36,2.66,40-2.67,44.2-7.49,5.77-7.49,5.77,9,6.92,11.18,7.81a7.7,7.7,0,0,0,4.06.51V181.14s-6.42-2.61-9.08-4.57-4.58-3.5-4.58-3.5,9.72,30.67,10.93,29.78.38-9.59-.13-15.87-6.22-5.14-3.37.38" transform="translate(-0.45 -1.31)"/>
      <path class="cls-4" d="M286.64,138.6s9.65,7.36,9.65,19.81-18.54,41.14-19.56,53.08-3.81,33,4.57,41.39,16.51,7.43,16.51,7.43-17.4,7.61-24.64,16.41-18.66,8.2-18.66,8.2V172.69s18.86-4.95,24.13-11.81,5.65-16.38,5.65-16.38,8.95,7.24,5.9,16.57S274.38,193.65,271.91,211s-.83,40.19,4.25,44.19a40.19,40.19,0,0,0,7.75,5.14s-9.91,7.3-14.1,11.18-11.43,4.36-11.43,4.36V178.41s14.48-5.34,18.86-9.34S285.81,157,285.81,157,270,194.34,267.59,210.34s-2.67,40,2.66,44.2,7.5,5.77,7.5,5.77-9,6.92-11.19,7.81a7.66,7.66,0,0,1-4.05.51V181.14s6.41-2.61,9.08-4.57,4.57-3.5,4.57-3.5-9.72,30.67-10.92,29.78-.38-9.59.13-15.87,6.22-5.14,3.36.38" transform="translate(-0.45 -1.31)"/>
      <path class="cls-4" d="M254.51,289.3v73.81s4.41.12,6.7-2.67,2.5-6,5.19-6.09,12.33-.13,12.9-3.18-15.55-15.49-15.55-36.06,5.71-25.81,5.71-25.81H257.4v69.78s3.81-2.58,4.25-5.56,14.79-1.9,14.54-2.86-15.43-12.44-15.43-35.49,4.64-23.46,4.64-23.46h-5.78v5.84" transform="translate(-0.45 -1.31)"/>
      <path class="cls-4" d="M259.9,330.59v18.28H271s-1.58-.51-4.63-5.2a46.29,46.29,0,0,1-4.07-7.31v9.78h3.18" transform="translate(-0.45 -1.31)"/>
      <path class="cls-4" d="M244.85,289.3v73.81s-4.41.12-6.7-2.67-2.51-6-5.19-6.09-12.33-.13-12.91-3.18,15.56-15.49,15.56-36.06-5.71-25.81-5.71-25.81H242v69.78s-3.81-2.58-4.25-5.56-14.8-1.9-14.54-2.86,15.42-12.44,15.42-35.49S234,291.71,234,291.71h5.78v5.84" transform="translate(-0.45 -1.31)"/>
      <path class="cls-4" d="M239.45,330.59v18.28h-11s1.59-.51,4.64-5.2a45.52,45.52,0,0,0,4.06-7.31v9.78h-3.17" transform="translate(-0.45 -1.31)"/>
      <path class="cls-4" d="M138.92,257.9s12.73,9.94,22,14.65,17.47,5.72,28.23,10.48,15,9.47,16.77,11.19,4.53,4.81,9.39,5.47,8.8-11.49,8.8-11.49" transform="translate(-0.45 -1.31)"/>
      <path class="cls-4" d="M360.62,257.9s-12.73,9.94-22,14.65-17.46,5.72-28.23,10.48-15,9.47-16.77,11.19-4.52,4.81-9.38,5.47-8.81-11.49-8.81-11.49" transform="translate(-0.45 -1.31)"/>
      <path class="cls-4" d="M315.08,241.77s76.54-54.79,80-75.36S346.38,31,345,33.3" transform="translate(-0.45 -1.31)"/>
      <path class="cls-4" d="M184.64,241.77s-76.54-54.79-80-75.36S153.34,31,154.76,33.3" transform="translate(-0.45 -1.31)"/>
    </g>
  </g>
</svg>
