<svg id="Layer_1" data-name="Layer 1" xmlns="http://www.w3.org/2000/svg" xmlns:xlink="http://www.w3.org/1999/xlink" viewBox="0 0 497.37 497.37">
  <defs>
    <style>
      .cls-1, .cls-4 {
        fill: none;
      }

      .cls-2, .cls-3, .cls-5 {
        fill: #fff;
      }

      .cls-3, .cls-4, .cls-5, .cls-6 {
        stroke: "currentColor";
        stroke-miterlimit: 10;
      }

      .cls-3 {
        stroke-width: 5px;
      }

      .cls-6 {
        fill: #f9f9f9;
      }

      .cls-7 {
        clip-path: url(#clip-path);
      }

      .fill {
        fill: "currentColor";
      }
    </style>
    <clipPath id="clip-path" transform="translate(-0.45 -1.31)">
      <path class="cls-1" d="M341.31,177c-3.33-29.19,12.51-22.52,5-64.21S313.81,26.11,250,26.09H250c-63.78,0-88.78,45-96.29,86.73s8.34,35,5,64.21S132.84,231.24,147,333.81s65.88,140.06,103,140.1H250c37.08,0,88.79-37.57,103-140.1S344.65,206.22,341.31,177Z"/>
    </clipPath>
  </defs>
  <g>
    <path class="cls-2" d="M249.13,8.38,490.75,250,249.13,491.62,7.52,250,249.13,8.38m0-7.07L.45,250,249.13,498.69,497.82,250,249.13,1.31Z" transform="translate(-0.45 -1.31)"/>
    <path class="cls-2" d="M420,79.15v341.7H78.29V79.15H420m5-5H73.29v351.7H425V74.15Z" transform="translate(-0.45 -1.31)"/>
  </g>
  <path class="cls-3" d="M341.31,177c-3.33-29.19,12.51-22.52,5-64.21S313.81,26.11,250,26.09H250c-63.78,0-88.78,45-96.29,86.73s8.34,35,5,64.21S132.84,231.24,147,333.81s65.88,140.06,103,140.1H250c37.08,0,88.79-37.57,103-140.1S344.65,206.22,341.31,177ZM183.5,301.45c0-3.27,19.07-17,40.05-.83,6.49,5-16.63,11.58-20.28,11.58S183.5,304.71,183.5,301.45ZM283.56,416.86l-8.13,4.79-13.05-2.29L250,418.94l-22.7-.42-7.11,2.09-10.61-8.13,14.9-16,14.71,2.48L250,398.3l4.2-1.11,13.65,1.95,9.65-1.95,12.35,11.33ZM296.73,312.2c-3.65,0-26.77-6.58-20.28-11.58,21-16.19,40.05-2.44,40.05.83S300.38,312.2,296.73,312.2Z" transform="translate(-0.45 -1.31)"/>
  <polygon id="NoseBGFill" points="291.67 353.15 267.59 329.07 267.59 328.85 231.69 328.85 231.69 328.85 207.56 352.98 231.69 377.1 231.69 377.28 267.59 377.28 267.59 377.24 291.67 353.15" class="fill"/>
  <path class="cls-4" d="M257.61,329.51" transform="translate(-0.45 -1.31)"/>
  <polyline class="cls-5" points="261.94 333.96 281.11 353.14 262.08 372.17"/>
  <polyline class="cls-5" points="237.3 372.17 218.12 353 237.16 333.96"/>
  <polygon class="cls-5" points="267.37 377.1 256.74 366.01 249.53 370.12 242.25 366.06 231.69 377.1 249.51 395.73 267.37 377.1"/>
  <polygon class="cls-5" points="231.69 328.85 242.32 339.94 249.53 335.83 256.8 339.89 267.37 328.85 249.54 310.23 231.69 328.85"/>
  <polygon class="cls-4" points="242.84 328.85 249.53 335.83 256.22 328.85 249.53 321.87 242.84 328.85"/>
  <polygon class="cls-4" points="242.84 377.86 249.53 384.85 256.22 377.86 249.53 370.88 242.84 377.86"/>
  <g id="NodeSideFill" class="fill">
    <polygon points="264.25 360.34 270.93 353.36 264.25 346.37 264.25 360.34"/>
    <polygon points="234.98 345.79 228.3 352.77 234.98 359.76 234.98 345.79"/>
  </g>
  <polygon class="cls-5" points="264.25 361.66 264.25 344.66 249.53 336.16 234.8 344.66 234.8 361.66 249.53 370.16 264.25 361.66"/>
  <g id="NoseTipFill" class="fill">
    <polygon points="242.84 353.36 249.53 360.34 256.22 353.36 249.53 346.37 242.84 353.36"/>
  </g>
  <polygon class="cls-4" points="259.15 43.71 271.75 34.33 259.15 34.33 259.15 43.71"/>
  <g id="BottomArrowFill" class="fill">
    <polyline points="259.15 154.73 259.15 127.42 303.35 154.73 259.15 182.06 259.15 154.75"/>
    <polyline points="239.96 154.73 239.96 127.42 195.75 154.73 239.96 182.06 239.96 154.75"/>
  </g>
  <g>
    <polyline class="cls-6" points="259.15 154.73 259.15 133.88 292.89 154.73 259.15 175.6 259.15 154.75"/>
    <polyline class="cls-6" points="239.96 154.73 239.96 133.88 206.21 154.73 239.96 175.6 239.96 154.75"/>
  </g>
  <g id="TopArrowFill" class="fill">
    <polyline points="259.15 154.73 259.15 141.07 281.25 154.73 259.15 168.41 259.15 154.75"/>
    <polyline points="239.96 154.73 239.96 141.07 217.86 154.73 239.96 168.41 239.96 154.75"/>
  </g>
  <path class="cls-4" d="M242.39,329.51" transform="translate(-0.45 -1.31)"/>
  <polygon class="cls-4" points="239.96 43.71 227.35 34.33 239.96 34.33 239.96 43.71"/>
  <g>
    <polygon class="cls-4" points="259.15 289.91 259.15 25.13 249.53 24.77 249.53 281.49 259.15 289.91"/>
    <polyline class="cls-4" points="302.1 97.7 302.1 147.36 259.15 122.21"/>
    <polyline class="cls-4" points="306.26 155.77 306.26 101.08 320.85 113.55 320.85 78.98 279.17 44.18 259.15 57.99"/>
    <polygon class="cls-4" points="295.46 277.08 249.58 301.23 295.46 325.37 341.33 301.23 295.46 277.08"/>
    <polyline class="cls-4" points="302.1 97.7 302.1 147.36 259.15 122.21"/>
    <polyline class="cls-4" points="306.26 155.77 306.26 101.08 320.85 113.55 320.85 78.98 279.17 44.18 259.15 57.99"/>
    <polyline class="cls-4" points="302.1 211.78 302.1 162.12 259.15 187.28"/>
    <polyline class="cls-4" points="306.26 153.71 306.26 208.4 320.85 195.93 320.85 230.5 279.17 265.3 259.15 251.49"/>
    <polygon class="cls-4" points="259.15 266.11 271.75 275.49 259.15 275.49 259.15 266.11"/>
    <polygon class="cls-4" points="239.96 289.91 239.96 25.13 249.58 24.77 249.58 281.49 239.96 289.91"/>
    <polyline class="cls-4" points="197.01 97.7 197.01 147.36 239.96 122.21"/>
    <polyline class="cls-4" points="192.85 155.77 192.85 101.08 178.25 113.55 178.25 78.98 219.94 44.18 239.96 57.99"/>
    <polygon class="cls-4" points="203.65 277.08 249.53 301.23 203.65 325.37 157.77 301.23 203.65 277.08"/>
    <polyline class="cls-4" points="197.01 97.7 197.01 147.36 239.96 122.21"/>
    <polyline class="cls-4" points="192.85 155.77 192.85 101.08 178.25 113.55 178.25 78.98 219.94 44.18 239.96 57.99"/>
    <polyline class="cls-4" points="197.01 211.78 197.01 162.12 239.96 187.28"/>
    <polyline class="cls-4" points="192.85 153.71 192.85 208.4 178.25 195.93 178.25 230.5 219.94 265.3 239.96 251.49"/>
    <polygon class="cls-4" points="239.96 266.11 227.35 275.49 239.96 275.49 239.96 266.11"/>
    <g>
      <polyline class="cls-4" points="249.53 301.23 263.57 293.87 249.58 281.49"/>
      <polyline class="cls-4" points="249.53 301.23 235.49 293.87 249.47 281.49"/>
    </g>
  </g>
  <g class="cls-7">
    <g>
      <polygon points="320.73 349.27 307.66 390.27 319.79 416.71 344.99 402.17 358.06 361.17 345.93 334.73 320.73 349.27" class="fill"/>
      <polygon class="cls-5" points="327.94 357.07 317.95 388.4 327.22 408.62 346.48 397.5 356.47 366.16 347.19 345.95 327.94 357.07"/>
      <polygon points="334.76 364.45 327.68 386.67 334.25 401 347.91 393.12 354.99 370.89 348.42 356.56 334.76 364.45" class="fill"/>
      <polygon class="cls-4" points="312.05 339.83 295.27 392.48 310.85 426.45 343.2 407.76 359.99 355.12 344.41 321.15 312.05 339.83"/>
      <polygon points="178.38 349.27 191.44 390.27 179.31 416.71 154.12 402.17 141.05 361.17 153.18 334.73 178.38 349.27" class="fill"/>
      <polygon class="cls-4" points="187.06 339.83 203.84 392.48 188.26 426.45 155.9 407.76 139.12 355.12 154.7 321.15 187.06 339.83"/>
      <polygon class="cls-5" points="171.17 357.07 181.16 388.4 171.89 408.62 152.63 397.5 142.64 366.16 151.91 345.95 171.17 357.07"/>
      <polygon points="164.35 364.45 171.43 386.67 164.86 401 151.2 393.12 144.11 370.89 150.69 356.56 164.35 364.45" class="fill"/>
    </g>
  </g>
  <path class="cls-5" d="M277.62,393.57H253.29L250,397l-3.29-3.44H222.38L203.8,412.15l19,19,4.32-4.33h45.66l4.32,4.33,19.05-19Zm-3.75,18H226.13l-3.33,3.34-6.36-6.36,6.2-6.2,4,4h46.8l4-4,6.2,6.2-6.36,6.36Z" transform="translate(-0.45 -1.31)"/>
  <g id="TopFill" class="fill">
    <polygon points="259.15 70.08 279.57 56.74 306.26 79.54 306.26 101.08 274.57 75.37 274.57 89.82 295.42 108.72 295.42 133.88 259.15 111.36 259.15 70.08"/>
    <polygon points="259.15 43.71 271.75 34.33 259.15 34.33 259.15 43.71"/>
    <polygon points="259.15 239.4 279.57 252.74 306.26 229.95 306.26 208.4 274.57 234.12 274.57 219.66 295.42 200.76 295.42 175.6 259.15 198.12 259.15 239.4"/>
    <polygon points="239.96 70.08 219.53 56.74 192.85 79.54 192.85 101.08 224.54 75.37 224.54 89.82 203.69 108.72 203.69 133.88 239.96 111.36 239.96 70.08"/>
    <polygon points="239.96 43.71 227.35 34.33 239.96 34.33 239.96 43.71"/>
    <polygon points="239.96 239.4 219.53 252.74 192.85 229.95 192.85 208.4 224.54 234.12 224.54 219.66 203.69 200.76 203.69 175.6 239.96 198.12 239.96 239.4"/>
    <path d="M204.1,285.39l-32.59,17.15,32.59,17.15,32.58-17.15Zm-.83,26.81c-3.65,0-19.77-7.49-19.77-10.75s19.07-17,40.05-.83C230,305.62,206.92,312.2,203.27,312.2Z" transform="translate(-0.45 -1.31)"/>
    <path d="M295.9,285.39l-32.58,17.15,32.58,17.15,32.59-17.15Zm.83,26.81c-3.65,0-26.77-6.58-20.28-11.58,21-16.19,40.05-2.44,40.05.83S300.38,312.2,296.73,312.2Z" transform="translate(-0.45 -1.31)"/>
    <path d="M277.47,397.19l-5.6,5.6H228.13l-5.6-5.6L211.12,408.6l11.21,11.54,5.26-5.26h44.82l5.26,5.26,11.21-11.54Zm-.27,17.69-3.33-3.34H226.13l-3.33,3.34-6.36-6.36,6.2-6.2,4,4h46.8l4-4,6.2,6.2Z" transform="translate(-0.45 -1.31)"/>
  </g>
</svg>
