<svg id="Layer_1" data-name="Layer 1" xmlns="http://www.w3.org/2000/svg" xmlns:xlink="http://www.w3.org/1999/xlink" viewBox="0 0 497.37 497.37">
  <defs>
    <style>
      .cls-1,.cls-7,.cls-8 {
        fill:none;
      }
      .cls-2,.cls-3 {
        fill:#fff;
      }
      .cls-3,.cls-7 {
        stroke:#000;
        stroke-width: 3px;
      }
      .cls-3,.cls-5,.cls-7,.cls-8 {
        stroke-miterlimit: 10;
        stroke:"currentColor";
      }
      .cls-4 {
        clip-path:url(#clip-path);
        fill:"currentColor";
      }
      .cls-5,.cls-8 {
        stroke:#fff;
        stroke-width:5px;
        fill:"currentColor";
      }
      .cls-6 {
        clip-path:url(#clip-path-2);
        fill:"currentColor";
      }
    </style>
    <clipPath id="clip-path" transform="translate(-0.45 -1.31)">
      <ellipse id="SVGID" class="cls-1" cx="327.09" cy="235.82" rx="34.92" ry="36.1"/>
    </clipPath>
    <clipPath id="clip-path-2" transform="translate(-0.45 -1.31)">
      <ellipse class="cls-1" cx="221.96" cy="235.82" rx="34.92" ry="36.1"/>
    </clipPath>
  </defs>
  <path class="cls-2" d="M249.13,8.38,490.75,250,249.13,491.62,7.52,250,249.13,8.38m0-7.07L.45,250,249.13,498.69,497.82,250,249.13,1.31Z" transform="translate(-0.45 -1.31)"/>
  <path class="cls-2" d="M420,79.15v341.7H78.29V79.15H420m5-5H73.29v351.7H425V74.15Z" transform="translate(-0.45 -1.31)"/>
  <polygon class="cls-2" points="161.76 132.93 119.27 268.19 183.25 380.73 299.74 395.04 366.11 373.82 401.92 275.59 362.77 110.23 161.76 132.93"/>
  <path d="M393.34,216.74a92.52,92.52,0,0,1-42.43-14.62c-20.77-13.7-39-5.92-46.37,0s-13.25,16.87-12.26,27.5,68.3,4,68.3,4S383.14,237.47,393.34,216.74Z" transform="translate(-0.45 -1.31)"/>
  <path d="M155.29,216.74a92.52,92.52,0,0,0,42.43-14.62c20.77-13.7,39-5.92,46.37,0s13.25,16.87,12.26,27.5-68.3,4-68.3,4S165.49,237.47,155.29,216.74Z" transform="translate(-0.45 -1.31)"/>
  <ellipse class="cls-3" cx="326.64" cy="234.51" rx="34.92" ry="36.1"/>
  <path class="cls-3" d="M384,275.47c-30.42-50.15-92-10.22-61.61,39.93" transform="translate(-0.45 -1.31)"/>
  <g class="cls-4">
    <ellipse cx="307.82" cy="241.13" rx="20.23" ry="20.92"/>
  </g>
  <ellipse class="cls-3" cx="221.51" cy="234.51" rx="34.92" ry="36.1"/>
  <path class="cls-3" d="M165.08,275.47c30.41-50.15,92-10.22,61.6,39.93" transform="translate(-0.45 -1.31)"/>
  <path class="cls-5" d="M381.83,89.82,314,54.28l-27.69,6.91-85-6.91L150.28,79.46,83,167.32S92,194,93.46,194.47l-9.07,81.94L103,331.69l-27.81,36,36.4,45.41,136.55,32.58,117.93-42.45,52-72.07,6.68-81.94ZM312.6,375.13l-31-17.27L261,364.77l-31.51-4.94-27.69,8.39-53.47-81.94V196.44l10-22.9,55.38-15.6,91.2,7.8,43.16-17,13.65,16.09,24.35,108.6Z" transform="translate(-0.45 -1.31)"/>
  <path class="cls-3" d="M267.25,297.45s17.66,19.93,41.53,17.95,31-8.39,34.86-8.39,8.41,13.7,7.28,17.4-20.77,20.12-44.7,21.23-39.57,4.19-42.67,12" transform="translate(-0.45 -1.31)"/>
  <path d="M347.23,316.92c1.37,3.81,1.7,6.86-1.34,8.36s-4.93-1.62-6.3-5.43-2.9-7.3.74-9S345.86,313.11,347.23,316.92Z" transform="translate(-0.45 -1.31)"/>
  <g class="cls-6">
    <ellipse cx="240.33" cy="241.13" rx="20.23" ry="20.92"/>
  </g>
  <path class="cls-3" d="M249.12,273.18c-9.07,5.12-1.19,20.05,7.88,14.93" transform="translate(-0.45 -1.31)"/>
  <path class="cls-3" d="M301.49,273.18c9.07,5.12,1.2,20.05-7.88,14.93" transform="translate(-0.45 -1.31)"/>
  <path class="cls-3" d="M262.35,222.85s10.39,22.4,0,47.39" transform="translate(-0.45 -1.31)"/>
  <path class="cls-3" d="M287.82,222.85s-10.39,22.4,0,47.39" transform="translate(-0.45 -1.31)"/>
  <path class="cls-3" d="M262.35,286.93c0,12.83,25.47,12.83,25.47,0" transform="translate(-0.45 -1.31)"/>
  <path class="cls-3" d="M211.69,191.2s25.91-5.93,39.36,6.11,36,11.29,45.32,4.81,24.56-18.88,46.39-11.11" transform="translate(-0.45 -1.31)"/>
  <path class="cls-7" d="M191.81,191.94s7.7-8,21.49-8.7,28.82.74,39.21,6.11" transform="translate(-0.45 -1.31)"/>
  <path class="cls-7" d="M276.47,198.78s10.92,2.59,19.16-3.15,17.72-15,33.3-13.51,19.45,5.48,19.45,5.48" transform="translate(-0.45 -1.31)"/>
  <path class="cls-7" d="M218.67,177.31a44,44,0,0,1,29.54,0c15.76,5.75,11.32,12.07,26.88,14.63s22.67-8,37.33-13.33,30.34-1.67,30.34-1.67" transform="translate(-0.45 -1.31)"/>
  <line class="cls-8" x1="154.54" y1="180" x2="171.55" y2="139.35"/>
  <line class="cls-5" x1="333.16" y1="128.74" x2="356.27" y2="157.57"/>
</svg>