<svg id="Layer_1" data-name="Layer 1" xmlns="http://www.w3.org/2000/svg" xmlns:xlink="http://www.w3.org/1999/xlink" viewBox="0 0 497.37 497.37">
  <defs>
    <style>
      .cls-1, .cls-5, .cls-8, .cls-9 {
        fill: none;
      }
      .cls-2, .cls-3 {
        fill: #fff;
      }

      .cls-3, .cls-5 {
        stroke: "currentColor";
        stroke-width: 3px;
      }

      .cls-10, .cls-3, .cls-5, .cls-9 {
        stroke-linecap: round;
      }

      .cls-10, .cls-3, .cls-5, .cls-6, .cls-8, .cls-9 {
        stroke-miterlimit: 10;
      }

      .cls-4 {
        clip-path: url(#clip-path);
      }

      .cls-10, .cls-6, .cls-8, .cls-9 {
        stroke: #fff;
        stroke-width: 5px;
      }

      .cls-7 {
        clip-path: url(#clip-path-2);
      }

      .fill {
        fill: "currentColor";
      }
    </style>
    <clipPath id="clip-path" transform="translate(-0.45 -1.31)">
      <ellipse id="SVGID" class="cls-1" cx="327.09" cy="235.82" rx="34.92" ry="36.1"/>
    </clipPath>
    <clipPath id="clip-path-2" transform="translate(-0.45 -1.31)">
      <ellipse class="cls-1" cx="221.96" cy="235.82" rx="34.92" ry="36.1"/>
    </clipPath>
  </defs>
  <g>
    <path class="cls-2" d="M249.13,8.38,490.75,250,249.13,491.62,7.52,250,249.13,8.38m0-7.07L.45,250,249.13,498.69,497.82,250,249.13,1.31Z" transform="translate(-0.45 -1.31)"/>
    <path class="cls-2" d="M420,79.15v341.7H78.29V79.15H420m5-5H73.29v351.7H425V74.15Z" transform="translate(-0.45 -1.31)"/>
  </g>
  <polygon id="Face" class="cls-2" points="161.76 132.93 119.27 268.19 183.25 380.73 299.74 395.04 366.11 373.82 401.92 275.59 362.77 110.23 161.76 132.93"/>
  <g id="Eyelashes" class="fill">
    <path d="M393.34,216.74a92.52,92.52,0,0,1-42.43-14.62c-20.77-13.7-39-5.92-46.37,0s-13.25,16.87-12.26,27.5,68.3,4,68.3,4S383.14,237.47,393.34,216.74Z" transform="translate(-0.45 -1.31)"/>
    <path d="M155.29,216.74a92.52,92.52,0,0,0,42.43-14.62c20.77-13.7,39-5.92,46.37,0s13.25,16.87,12.26,27.5-68.3,4-68.3,4S165.49,237.47,155.29,216.74Z" transform="translate(-0.45 -1.31)"/>
  </g>
  <ellipse id="Right_eyeball" data-name="Right eyeball" class="cls-3" cx="326.64" cy="234.51" rx="34.92" ry="36.1"/>
  <g id="Right_Eyeball-2" data-name="Right Eyeball">
    <g class="cls-4 fill">
      <ellipse cx="346.61" cy="241.13" rx="20.23" ry="20.92"/>
    </g>
  </g>
  <ellipse id="Left_eyeball" data-name="Left eyeball" class="cls-3" cx="221.51" cy="234.51" rx="34.92" ry="36.1"/>
  <g id="Strokes">
    <path class="cls-3" d="M384,275.47c-30.42-50.15-92-10.22-61.61,39.93" transform="translate(-0.45 -1.31)"/>
    <path class="cls-3" d="M165.08,275.47c30.41-50.15,92-10.22,61.6,39.93" transform="translate(-0.45 -1.31)"/>
    <path class="cls-3" d="M249.12,273.18c-9.07,5.12-1.19,20.05,7.88,14.93" transform="translate(-0.45 -1.31)"/>
    <path class="cls-3" d="M301.49,273.18c9.07,5.12,1.2,20.05-7.88,14.93" transform="translate(-0.45 -1.31)"/>
    <path class="cls-3" d="M262.35,222.85s10.39,22.4,0,47.39" transform="translate(-0.45 -1.31)"/>
    <path class="cls-3" d="M287.82,222.85s-10.39,22.4,0,47.39" transform="translate(-0.45 -1.31)"/>
    <path class="cls-3" d="M262.35,286.93c0,12.83,25.47,12.83,25.47,0" transform="translate(-0.45 -1.31)"/>
    <path class="cls-3" d="M211.69,191.2s25.91-5.93,39.36,6.11,36,11.29,45.32,4.81,24.56-18.88,46.39-11.11" transform="translate(-0.45 -1.31)"/>
    <path class="cls-5" d="M191.81,191.94s7.7-8,21.49-8.7,28.82.74,39.21,6.11" transform="translate(-0.45 -1.31)"/>
    <path class="cls-5" d="M276.47,198.78s10.92,2.59,19.16-3.15,17.72-15,33.3-13.51,19.45,5.48,19.45,5.48" transform="translate(-0.45 -1.31)"/>
    <path class="cls-5" d="M218.67,177.31a44,44,0,0,1,29.54,0c15.76,5.75,11.32,12.07,26.88,14.63s22.67-8,37.33-13.33,30.34-1.67,30.34-1.67" transform="translate(-0.45 -1.31)"/>
  </g>
  <g id="Cheeks" class="fill">
    <circle cx="350.65" cy="287.85" r="25.62"/>
    <circle cx="199.54" cy="287.85" r="25.62"/>
  </g>
  <path id="Hood" class="cls-6 fill" d="M381.83,89.82,314,54.28l-27.69,6.91-85-6.91L150.28,79.46,83,167.32S92,194,93.46,194.47l-9.07,81.94L103,331.69l-27.81,36,36.4,45.41,136.55,32.58,117.93-42.45,52-72.07,6.68-81.94ZM312.6,375.13l-31-17.27L261,364.77l-31.51-4.94-27.69,8.39-53.47-81.94V196.44l10-22.9,55.38-15.6,91.2,7.8,43.16-17,13.65,16.09,24.35,108.6Z" transform="translate(-0.45 -1.31)"/>
  <path id="Lips" class="cls-3" d="M263.64,299.77s-.4,15.63,29.47,15.63c14.93,0,28.17,3.51,30.16,5.5s3.86,5.24,3.86,17.41-4.45,15.53-6.72,17.8-9,1.62-16,1.62c-19.19,0-36.4-4.86-43.71,9.44" transform="translate(-0.45 -1.31)"/>
  <g id="Left_eye" data-name="Left eye">
    <g class="cls-7 fill">
      <ellipse cx="240.33" cy="241.13" rx="20.23" ry="20.92"/>
    </g>
  </g>
  <g id="Knot">
    <polyline class="cls-8" points="201.39 366.91 186.59 402.3 195.32 431.91"/>
    <polyline class="cls-8" points="312.16 373.82 337.62 387.8 332 414.06"/>
    <polyline class="cls-8" points="247.7 444.41 240.71 402.3 260.59 363.45"/>
    <line class="cls-8" x1="337.62" y1="387.8" x2="247.48" y2="443.06"/>
    <line class="cls-9" x1="154.54" y1="180" x2="171.55" y2="139.35"/>
    <line class="cls-10" x1="333.16" y1="128.74" x2="356.27" y2="157.57"/>
  </g>
  <ellipse id="Mouth" class="fill" cx="311.44" cy="335.27" rx="11.52" ry="16.31"/>
</svg>
