<svg xmlns="http://www.w3.org/2000/svg" viewBox="0 0 497.37 497.37">
  <defs>
    <style>
      .cls-1, .cls-2 {
        fill: #fff;
      }

      .cls-2, .cls-4 {
        stroke: "currentColor";
      }

      .cls-2, .cls-3, .cls-4 {
        stroke-miterlimit: 10;
      }

      .cls-2 {
        stroke-width: 5px;
      }

      .cls-3, .cls-4 {
        fill: none;
      }

      .cls-3 {
        stroke: #fff;
      }

      .fill {
        fill: "currentColor";
      }
    </style>
  </defs>
  <g id="Layer_1" data-name="Layer 1">
    <path class="cls-1" d="M249.13,8.38,490.75,250,249.13,491.62,7.52,250,249.13,8.38m0-7.07L.45,250,249.13,498.69,497.82,250,249.13,1.31Z" transform="translate(-0.45 -1.31)"/>
    <path class="cls-1" d="M420,79.15v341.7H78.29V79.15H420m5-5H73.29v351.7H425V74.15Z" transform="translate(-0.45 -1.31)"/>
  </g>
  <g id="Layer_3" data-name="Layer 3">
    <g>
      <path id="Face" class="cls-2" d="M390.33,193.83c2.08-17.34-5.26-46.09-12.35-70.88-9.06-31.71-42.92-90.14-49.46-90.14s-26.18,32.72-32.72,48a49.24,49.24,0,0,1-3.21,6.43C277.76,82,264.08,80.79,250,80.79S222.24,82,207.41,87.22a49.24,49.24,0,0,1-3.21-6.43c-6.54-15.26-26.17-48-32.72-48S131.08,91.24,122,123c-7.09,24.79-14.43,53.54-12.35,70.88-6.21,37.9,3.87,78.61,9.47,109.42,8.73,48,15.27,91.6,45.8,117.78s30.54,26.17,50.16,34.89,31.81,11.27,34.9,11.27,15.27-2.54,34.9-11.27,19.62-8.72,50.16-34.89,37.07-69.79,45.8-117.78C386.46,272.44,396.54,231.73,390.33,193.83Z" transform="translate(-0.45 -1.31)"/>
      <g id="Fills" class="fill">
        <path d="M138.05,235s-1.58,1.87,6.18,3.3,30.06-5,44.15,16.54,16.83,45.44,16.83,45.44-1.87-4.17-4.32-3.88-18.55,3.31-32.64-4.46-24.73-21.86-25.88-33.79S134.46,236,138.05,235Z" transform="translate(-0.45 -1.31)"/>
        <path d="M132.08,154.09c6.41,4.81,53.47-21.14,58.86-36.67s-15.1-61.91-21.79-62.12S121.72,146.32,132.08,154.09Z" transform="translate(-0.45 -1.31)"/>
        <path d="M217.79,133s19.63,14,10.57,33.65S196,176,199.67,161.06s18.12-9.92,18.12-9.92-6-1-9.71,3.87-3.45,8.1-3.45,8.1,3.56-7,11-7.87S225,145.1,217.79,133Z" transform="translate(-0.45 -1.31)"/>
        <path d="M154.59,162.36s-9.71,17.54,5.18,30.48,26.38,19.42,42.85,26.53,24,14.06,26.49,25.87-3.85,17.17-7,20.28-12,4.15-15.1,1c-4.94-4.93-3.24-12.67.21-15.1a25.67,25.67,0,0,1,8.44-3.39c1.19-2-21.14-14.93-28.12-15.7-6.47-.71-14.88-4.56-20.06-8.66s-5.9-8.13-5.9-8.13,15.18,7.7,16.36,4.68-29-10.57-32-30.42S154.59,162.36,154.59,162.36Z" transform="translate(-0.45 -1.31)"/>
        <path d="M208.92,291.51s19.13,24.22,25.31,63" transform="translate(-0.45 -1.31)"/>
        <path d="M175.13,310.07c-15-9.49-37.12-32.57-41.75-40.12s-7.59-14-6.08-25.09,11.9-19.56,11.9-19.56c-16,5.31-27.48,21.14-16,45.08s33.72,36.13,51.89,52c2.7,2.35,5.5,4.95,8.26,7.68-.43-.24-23.92-13.2-29.66-15.68s-28.19-11.7-28.48-20.21,10.36-.86,10.36-.86-8.85-8.69-13.92-3.67.65,12.48,8,17.19,31.7,15.12,41.44,21c6.38,3.85,15.47,9.63,23.57,18.25-2-2-9.86-9.44-17.51-9.77-10.33-.43-13.88,8.06-24.2,6.94s-14.77-7.87-15.71-10.6-2-7.79-.57-10.64,5.66-2.38,7.33,0-.86,6.9-.86,6.9a11.81,11.81,0,0,0,4.2-5.56,5.88,5.88,0,0,0-2.42-6.52c-2.27-1.35-8.69-1.89-11.17,1.89s-2.33,10-1.26,13.64,5.33,15.67,21,16.11,16.68-9,24.66-7.19,18.85,8.31,24.44,14.83a65.83,65.83,0,0,1,3.48,6h0c1.63,5.43,2.06,11.18-3,14.61-5.85,4-15,2.37-17.14-4.31s.92-10.53,4.38-12.92c0,0-15.19,2.81-11.43,18.69s31.28,12.59,37.1-6S190.11,319.56,175.13,310.07Z" transform="translate(-0.45 -1.31)"/>
        <path d="M362,235s1.58,1.87-6.18,3.3-30.06-5-44.15,16.54-16.83,45.44-16.83,45.44,1.87-4.17,4.32-3.88,18.55,3.31,32.64-4.46,24.73-21.86,25.88-33.79S365.54,236,362,235Z" transform="translate(-0.45 -1.31)"/>
        <path d="M367.92,154.09c-6.41,4.81-53.47-21.14-58.86-36.67s15.1-61.91,21.79-62.12S378.28,146.32,367.92,154.09Z" transform="translate(-0.45 -1.31)"/>
        <path d="M303.78,143.59c-10.06-2-20.27,2.16-20.27,2.16s16.6-1.51,20.06,11.43.87,21.36-11.75,25.45-27.37-1.43-29.67-18.69,30.63-65,50.19-17.83c0,0,4.35-32.15-26.73-29S250,164.52,250,164.52s-4.53-44.15-35.61-47.36-26.73,29-26.73,29c19.56-47.17,52.49.57,50.19,17.83s-17,22.79-29.67,18.69-15.2-12.51-11.75-25.45,20.06-11.43,20.06-11.43-10.21-4.17-20.27-2.16-21.36,24.09-10.14,40.34,36.53,12.36,46,19.55S250,277.54,250,277.54s8.41-66.87,17.9-74.06,34.8-3.3,46-19.55S313.85,145.61,303.78,143.59Z" transform="translate(-0.45 -1.31)"/>
        <path d="M282.21,133s-19.63,14-10.57,33.65S304,176,300.33,161.06s-18.12-9.92-18.12-9.92,6-1,9.71,3.87,3.45,8.1,3.45,8.1-3.56-7-11-7.87S275,145.1,282.21,133Z" transform="translate(-0.45 -1.31)"/>
        <path d="M345.41,162.36s9.71,17.54-5.18,30.48-26.38,19.42-42.85,26.53-24,14.06-26.49,25.87,3.85,17.17,6.95,20.28,12,4.15,15.1,1c4.94-4.93,3.24-12.67-.21-15.1a25.67,25.67,0,0,0-8.44-3.39c-1.19-2,21.14-14.93,28.12-15.7,6.47-.71,14.88-4.56,20.06-8.66s5.9-8.13,5.9-8.13-15.18,7.7-16.36,4.68,29-10.57,32-30.42S345.41,162.36,345.41,162.36Z" transform="translate(-0.45 -1.31)"/>
        <path d="M280.59,396.29c-.64-1.78-29.71-10.41-29.71-10.41l-.16-11.54a31.46,31.46,0,0,0,7.87-5.77c3-3.29,3.56-6.63,3.18-7.23s-1.72-1.08-5-1.94a25.3,25.3,0,0,0-13.52,0c-3.29.86-4.64,1.35-5,1.94s.21,3.94,3.18,7.23a31.46,31.46,0,0,0,7.87,5.77l-.16,11.54s-29.07,8.63-29.71,10.41.7,3.72,3.72,3.29S250,387.53,250,387.53s23.85,11.61,26.87,12.05S281.24,398.07,280.59,396.29Z" transform="translate(-0.45 -1.31)"/>
        <path d="M291.08,291.51s-19.13,24.22-25.31,63" transform="translate(-0.45 -1.31)"/>
        <path d="M324.87,310.07c15-9.49,37.12-32.57,41.75-40.12s7.59-14,6.08-25.09-11.9-19.56-11.9-19.56c16,5.31,27.48,21.14,16,45.08s-33.72,36.13-51.89,52c-2.7,2.35-5.5,4.95-8.26,7.68.43-.24,23.92-13.2,29.66-15.68s28.19-11.7,28.48-20.21-10.36-.86-10.36-.86,8.85-8.69,13.92-3.67-.65,12.48-8,17.19-31.7,15.12-41.44,21c-6.38,3.85-15.47,9.63-23.57,18.25,2-2,9.86-9.44,17.51-9.77,10.33-.43,13.88,8.06,24.2,6.94s14.77-7.87,15.71-10.6,2-7.79.57-10.64-5.66-2.38-7.33,0,.86,6.9.86,6.9a11.81,11.81,0,0,1-4.2-5.56,5.88,5.88,0,0,1,2.42-6.52c2.27-1.35,8.69-1.89,11.17,1.89s2.33,10,1.26,13.64-5.33,15.67-21,16.11-16.68-9-24.66-7.19-18.85,8.31-24.44,14.83a65.83,65.83,0,0,0-3.48,6h0c-1.63,5.43-2.06,11.18,3,14.61,5.85,4,15,2.37,17.14-4.31s-.92-10.53-4.38-12.92c0,0,15.19,2.81,11.43,18.69s-31.28,12.59-37.1-6S309.89,319.56,324.87,310.07Z" transform="translate(-0.45 -1.31)"/>
      </g>
      <g id="White_strokes" data-name="White strokes">
        <circle class="cls-3" cx="214.57" cy="165" r="6.83"/>
        <circle class="cls-3" cx="214.02" cy="257.15" r="6.29"/>
        <circle class="cls-3" cx="284.54" cy="165" r="6.83"/>
        <circle class="cls-3" cx="285.08" cy="257.15" r="6.29"/>
      </g>
      <g id="Black_strokes" data-name="Black strokes">
        <circle class="cls-4" cx="195.8" cy="366.18" r="6.83"/>
        <circle class="cls-4" cx="139.68" cy="323.27" r="2.34"/>
        <circle class="cls-4" cx="129.45" cy="293.42" r="2.34"/>
        <circle class="cls-4" cx="303.31" cy="366.18" r="6.83"/>
        <circle class="cls-4" cx="359.43" cy="323.27" r="2.34"/>
        <circle class="cls-4" cx="369.65" cy="293.42" r="2.34"/>
      </g>
    </g>
  </g>
</svg>
