<svg id="Layer_1" data-name="Layer 1" xmlns="http://www.w3.org/2000/svg" xmlns:xlink="http://www.w3.org/1999/xlink" viewBox="0 0 497.37 497.37">
  <defs>
    <style>
      .cls-1 {
        fill: none;
      }

      .cls-2, .cls-3 {
        fill: #fff;
      }

      .cls-3 {
        stroke: "currentColor";
        stroke-miterlimit: 10;
        stroke-width: 5px;
      }

      .cls-4 {
        clip-path: url(#clip-path);
      }

      .cls-5 {
        clip-path: url(#clip-path-2);
      }
      .fill {
        fill: "currentColor";
      }
    </style>
    <clipPath id="clip-path" transform="translate(-0.45 -1.31)">
      <path class="cls-1" d="M326.41,117.49c16.74,5.23,32.76,7.2,51.77,20.78,23,16.43,36.13,47.63,46.53,71.17s7.42,74.78,0,72.8c-8.21-2.19-12.59-25.73-42.7-59.12s-55.84-23-79.92,4.38c-4.81,5.46-7.41,12.28-8.59,19.71L267.29,216.5,253,184.27l4.27-31,12.05-15,24.86-5.47,10.62-.88,12.81,1.32,9.86-.77,5.36-4.27-.65-6-5.26-2.51Z"/>
    </clipPath>
    <clipPath id="clip-path-2" transform="translate(-0.45 -1.31)">
      <path id="Face" class="cls-1" d="M424.71,282.24c7.42,2,10.4-49.27,0-72.8s-23.54-54.74-46.53-71.17-41.6-15.87-62.41-24.63S233.12,54.52,170.71,70.4,82,149.22,71.09,190.82s15.32,217.32,48.17,232.65,39.41,16.42,80.46-35.58,14.24-71.16,47.08-85.4,41.6,19.16,52,16.43-20.8-64.05,3.29-91.42,49.81-37.77,79.92-4.38S416.5,280.05,424.71,282.24Z"/>
    </clipPath>
  </defs>
  <g>
    <path class="cls-2" d="M249.13,8.38,490.75,250,249.13,491.62,7.52,250,249.13,8.38m0-7.07L.45,250,249.13,498.69,497.82,250,249.13,1.31Z" transform="translate(-0.45 -1.31)"/>
    <path class="cls-2" d="M420,79.15v341.7H78.29V79.15H420m5-5H73.29v351.7H425V74.15Z" transform="translate(-0.45 -1.31)"/>
  </g>
  <g class="fill">
    <path id="Face-2" data-name="Face" class="cls-3" d="M424.71,282.24c7.42,2,10.4-49.27,0-72.8s-23.54-54.74-46.53-71.17-41.6-15.87-62.41-24.63S233.12,54.52,170.71,70.4,82,149.22,71.09,190.82s15.32,217.32,48.17,232.65,39.41,16.42,80.46-35.58,14.24-71.16,47.08-85.4,41.6,19.16,52,16.43-20.8-64.05,3.29-91.42,49.81-37.77,79.92-4.38S416.5,280.05,424.71,282.24Z" transform="translate(-0.45 -1.31)"/>
    <g class="cls-4">
      <g>
        <polygon points="277.9 211.27 314.12 226.61 350.34 211.27 314.12 195.94 277.9 211.27"/>
        <polygon points="277.9 180.6 314.12 195.94 350.34 180.6 314.18 165.3 350.34 149.99 314.12 134.66 277.9 149.99 314.06 165.3 277.9 180.6"/>
        <polygon points="386.56 195.94 350.34 211.27 386.56 226.61 422.77 211.27 386.56 195.94"/>
        <polygon points="314.12 103.99 277.9 119.32 314.12 134.66 350.34 119.32 314.12 103.99"/>
        <polygon points="386.49 165.3 350.34 180.6 386.56 195.94 422.77 180.6 386.62 165.3 422.77 149.99 386.56 134.66 350.34 149.99 386.49 165.3"/>
        <polygon points="350.34 272.61 386.56 287.94 422.77 272.61 386.56 257.27 350.34 272.61"/>
        <polygon points="386.56 226.61 350.34 241.94 386.56 257.27 422.77 241.94 386.56 226.61"/>
        <polygon points="495.21 211.27 458.99 195.94 422.77 211.27 458.99 226.61 495.21 211.27"/>
        <polygon points="458.99 287.94 495.21 272.61 458.99 257.27 422.77 272.61 458.99 287.94"/>
        <polygon points="458.99 226.61 422.77 241.94 458.99 257.27 495.21 241.94 458.99 226.61"/>
        <polygon points="205.47 211.27 241.69 226.61 277.9 211.27 241.69 195.94 205.47 211.27"/>
        <polygon points="241.75 165.3 277.9 149.99 241.69 134.66 205.47 149.99 241.62 165.3 205.47 180.6 241.69 195.94 277.9 180.6 241.75 165.3"/>
        <polygon points="277.9 241.94 314.12 257.27 350.34 241.94 314.12 226.61 277.9 241.94"/>
      </g>
    </g>
    <g class="cls-5">
      <g>
        <path d="M216,233.52s-8.76-22.19-29.21-30.66-37.08-2.34-47.89,9S117.56,228,117.56,231.48s11.68,15.48,47,14S213.35,238.49,216,233.52Z" transform="translate(-0.45 -1.31)"/>
        <path d="M219,222.26c4.67-2-25.12-64.83-60.16-74.76s-54.9,40.6-62.5,45.56-12.85,0-12.85,0,6.14,21.9,14,19,19.36-40.59,53.78-40.59S214.36,224.31,219,222.26Z" transform="translate(-0.45 -1.31)"/>
        <path d="M289.13,292.92a5,5,0,0,0,2.08.17c2.52-.36,4-2.79,3-6.24s-5.38-3.76-5.81-1.35,2.22,2.93,2.22,2.93l0,0a.88.88,0,0,0,.28.06,1,1,0,1,0-1.05-1.05.87.87,0,0,0,.08.37c-.51-.56-1-1.38,0-2,1.55-1.09,4.73-.09,3.32,4.46-.93,3-3.79,1.82-5.62.67-.48-.65-1-1.31-1.42-2-3.26-6.78-4.11-12-2.41-13.56,2-1.82,5.21.89,3.87,3.21a1.65,1.65,0,0,1-2.25.9h0a1.26,1.26,0,1,0-1.26-1.26,1.24,1.24,0,0,0,.15.57c.28.56,1.64,2.93,3.92,1.32,2.57-1.83-.17-9.49-5.42-6.5-2.25,1.28-2.13,4.38-1.22,7.57a28.74,28.74,0,0,1-2.4-7.22c-2.68-15.61,7.94-14.3,9-10.52a3.15,3.15,0,0,1-.07,2.05,3,3,0,1,0-4.29,3.22h0s4.4,2.49,6.33-2.78c1-2.84-1.73-9.85-8.67-7.88s-8.1,9.71-4.52,22.56,26.21,29.57,26.21,29.57l.43-2.27A119.59,119.59,0,0,1,289.13,292.92Z" transform="translate(-0.45 -1.31)"/>
        <path d="M249.15,263.59c-3-12.48-15.45-14.44-21.69-12.26s-12.85,9.41-8,20.58c1.94,4.42,4.37,7.59,10.45,5.73s5.91-5.11,5.91-5.11h0c0-.06,0-.11,0-.16a3,3,0,1,0-5.33,1.75,6.9,6.9,0,0,1-5.06-2c-4.38-4.27-1.75-12.77,2.74-14.44s15.57-6,15.55,16.41-23.66,25.19-15.11,62,4.17-16.5,3.89-23.37,8.94-12.87,13.19-23.07S250.43,269,249.15,263.59Z" transform="translate(-0.45 -1.31)"/>
        <g>
          <path d="M295.13,249.88c-.82,0-4.54-4-6.76-6.34l.05.11c-.64-1-15.45-11.67-18.27-12.71a6.83,6.83,0,0,0-2.39-.46c-2.57,0-4.51,1.77-5.31,4.86a5.67,5.67,0,0,0,3.67,6.8,3.3,3.3,0,0,0,1.05.17,5.45,5.45,0,0,0,1.93-.41l.59-.22-.59-.24a2.71,2.71,0,1,1,3.71-2.51l0,.21a1.49,1.49,0,0,1,0,.17c0,.1,0,.18,0,.27-.32,1.57-1.51,5.21-5.58,5.21a7.55,7.55,0,0,1-6.57-3.64c-1.51-2.71-1-6.36,1.38-10.29a5.62,5.62,0,0,1,5.09-2.74c2.31,0,5.2.95,8.57,2.8l1.6.89-1.3-1.28c-8.18-8-13.94-11.89-17.62-11.89a3.17,3.17,0,0,0-.44,0c-7.53.67-8.85,7.31-9.91,12.65-.57,2.88-1.06,5.37-2.39,6.32a7.22,7.22,0,0,1-4.09,1.58,5,5,0,0,1-3.08-1.18c-.71-.52-1.11-2-1.11-4.1a3.69,3.69,0,1,1,6.9,1.83l-.62,1.12,1-.8a6.15,6.15,0,0,0,.54-.5c.87-.91,1.23-2.82,1.7-5.24,1.11-5.84,2.65-13.85,12.59-13.85.36,0,.73,0,1.12,0a12.4,12.4,0,0,1,1.78.24l.65.13-.41-.53a91.94,91.94,0,0,1-10.18-17.57c-5.71-12.36-5.42-29,.75-43.53,5.1-12,13.64-20.8,23.42-24.18.87-.3,1.82-.57,3-.85l.51-.14a36.67,36.67,0,0,1,9.13-.93,171.24,171.24,0,0,1,17.32,1.26c5.27.55,10.24,1.08,14.24,1.08,5.33,0,8.18-1,9-3,1.19-3.15-.13-5.81-3.62-7.3a16.56,16.56,0,0,0-6.15-1.09,10,10,0,0,0-4.47.8,4.41,4.41,0,0,0-2.35,3.33,2.77,2.77,0,0,0,1.49,2.43,3.85,3.85,0,0,0,2.1.56,8.52,8.52,0,0,0,3.22-.76l.75-.32-.81-.16a2,2,0,0,1,.38-4,2,2,0,0,1,2,2,2.21,2.21,0,0,1-.08.54l-.06.18s-.06.14-.06.14a5.78,5.78,0,0,1-2.44,2.75,7.46,7.46,0,0,1-3.2.65,10.79,10.79,0,0,1-2.45-.29,4.65,4.65,0,0,1-3.46-3.22c-.26-1.07-.14-2.72,1.91-4.5a14,14,0,0,1,9.22-3.17c5.4,0,10.43,2.5,12.22,6.08,1.3,2.59.83,5.5-1.36,8.43-2.49,3.34-6.88,5-13.06,5h0a49.75,49.75,0,0,1-10.27-1.22l-1.33-.29,1.14.74c10.81,7,15.42,16.95,11.74,25.36-2.54,5.8-9.13,12-17.61,12a18.73,18.73,0,0,1-8.44-2.09c-10.44-5.21-7.58-16.76-6.9-19a8.84,8.84,0,1,1,8.52,11.21,8.75,8.75,0,0,1-4.84-1.45l-.95-.62.6,1a12.83,12.83,0,0,0,6.21,5.34,13.23,13.23,0,0,0,4.78.94,10.93,10.93,0,0,0,8.46-3.91,11.38,11.38,0,0,0,2.54-9.24c-1.46-8.77-12.49-18.58-25.07-18.58-7.15,0-17.41,3.21-25.77,18.5-16.56,30.28,10,64.82,14.21,69.93l-.2-.06.74.71c9.72,9.27,17.74,22.26,17.82,22.39.51,1.37.39,1.62.37,1.65Z" transform="translate(-0.45 -1.31)"/>
          <path class="cls-2" d="M321.57,117.32c5.31,0,10.25,2.44,12,5.94,1.25,2.5.79,5.32-1.34,8.17-2.44,3.27-6.77,4.93-12.86,4.93a49.31,49.31,0,0,1-10.22-1.22l-2.66-.57,2.29,1.48c8.76,5.68,15.76,15.62,11.64,25-2.51,5.73-9,11.89-17.38,11.89a18.5,18.5,0,0,1-8.33-2.06c-10.26-5.13-7.44-16.51-6.77-18.74a8.59,8.59,0,1,1,8.28,10.89,8.53,8.53,0,0,1-4.7-1.41l-1.91-1.25,1.21,1.93a13,13,0,0,0,6.33,5.44,13.31,13.31,0,0,0,4.87,1,11.33,11.33,0,0,0,8.65-4,11.67,11.67,0,0,0,2.6-9.45c-1.48-8.86-12.62-18.78-25.32-18.78-7.21,0-17.57,3.23-26,18.63-9.38,17.15-4.85,35.51.6,47.9a102.76,102.76,0,0,0,13.2,21.77l-.37-.1,1.37,1.31c9.42,9,17.25,21.5,17.75,22.3a7,7,0,0,1,.36,1.19c-1.18-.68-4.6-4.32-6.32-6.16l0,0,0,0c-.59-.46-14.47-11.21-18.25-12.61a7.35,7.35,0,0,0-2.48-.48c-2.69,0-4.72,1.85-5.55,5.06a5.92,5.92,0,0,0,3.83,7.1,3.77,3.77,0,0,0,1.13.18,5.94,5.94,0,0,0,2-.42l1.19-.46-1.19-.47a2.46,2.46,0,1,1,3.36-2.27s0,.07,0,.1v.12s0,.07,0,.12,0,.16,0,.26c-.31,1.5-1.44,5-5.33,5a7.29,7.29,0,0,1-6.35-3.52c-1.47-2.62-1-6.18,1.38-10a5.29,5.29,0,0,1,4.87-2.62c2.27,0,5.11.94,8.45,2.77l3.21,1.77-2.62-2.56c-8.34-8.16-14-12-17.79-12a3.46,3.46,0,0,0-.46,0c-7.72.69-9.06,7.43-10.13,12.85-.56,2.83-1,5.28-2.29,6.17a7.08,7.08,0,0,1-3.95,1.53,4.75,4.75,0,0,1-2.93-1.13c-.63-.47-1-1.93-1-3.9a3.44,3.44,0,1,1,6.88,0,3.53,3.53,0,0,1-.45,1.71l-1.23,2.23,2-1.6a5.48,5.48,0,0,0,.56-.52c.92-1,1.29-2.9,1.76-5.36,1.1-5.76,2.61-13.65,12.35-13.65.35,0,.72,0,1.1,0a12.05,12.05,0,0,1,1.75.24l1.31.26-.82-1.06a91.73,91.73,0,0,1-10.15-17.52c-5.68-12.3-5.4-28.91.75-43.33,5.08-11.92,13.56-20.68,23.27-24,.87-.3,1.81-.57,3-.85l.51-.14a36.55,36.55,0,0,1,9.06-.92,171.27,171.27,0,0,1,17.3,1.26c5.27.55,10.24,1.08,14.26,1.08,5.45,0,8.37-1,9.2-3.21,1.24-3.29-.13-6.07-3.76-7.62a16.68,16.68,0,0,0-6.24-1.11,10,10,0,0,0-4.6.83,4.69,4.69,0,0,0-2.48,3.55,3,3,0,0,0,1.61,2.64,4,4,0,0,0,2.23.6,8.77,8.77,0,0,0,3.32-.78l.8-.35a4,4,0,0,1-1.32,1.07,7.3,7.3,0,0,1-3.1.62,10.21,10.21,0,0,1-2.39-.29,4.39,4.39,0,0,1-3.28-3c-.35-1.44.29-2.91,1.84-4.25a13.74,13.74,0,0,1,9.05-3.11m-1.38,4.92a1.76,1.76,0,0,1,1.75,1.75,1.78,1.78,0,0,1-.08.47l0,.17h0v0h0l0,0h0a7,7,0,0,1-.7,1.2l-1.2-.23a1.75,1.75,0,0,1,.33-3.47m1.38-5.42a14.24,14.24,0,0,0-9.38,3.23c-4.08,3.53-1.49,7.4,1.65,8.15a10.79,10.79,0,0,0,2.51.3,7.94,7.94,0,0,0,3.31-.67,6,6,0,0,0,2.55-2.87l.06-.12c.07-.16.12-.29.15-.35a.61.61,0,0,1-.07.1,2.35,2.35,0,0,0,.09-.6,2.25,2.25,0,1,0-2.67,2.21,8.15,8.15,0,0,1-3.12.74,3.58,3.58,0,0,1-2-.52c-2.71-1.75-.9-4.33.85-5.34a9.91,9.91,0,0,1,4.35-.76,16.38,16.38,0,0,1,6,1.07c2.88,1.23,4.79,3.55,3.49,7-.82,2.18-4.11,2.89-8.73,2.89-8.41,0-21.23-2.34-31.56-2.34a37.55,37.55,0,0,0-9.19.94l-.51.14a30.3,30.3,0,0,0-3,.86c-23.43,8.1-35.26,44.33-24.31,68a91.49,91.49,0,0,0,10.22,17.62,11.53,11.53,0,0,0-1.82-.25c-.39,0-.77,0-1.13,0-14.21,0-11.62,16.18-14.47,19.17a4.42,4.42,0,0,1-.52.47,4,4,0,0,0,.52-1.95,3.94,3.94,0,1,0-7.88,0c0,.64,0,3.41,1.21,4.3a5.25,5.25,0,0,0,3.23,1.23,7.38,7.38,0,0,0,4.24-1.63c4-2.83.78-17.9,12.17-18.92a3,3,0,0,1,.42,0c4.29,0,10.94,5.46,17.44,11.81-2.87-1.57-6-2.83-8.69-2.83a5.82,5.82,0,0,0-5.3,2.86c-5.55,9.06.07,14.31,5.4,14.31,4.31,0,5.51-3.9,5.82-5.4a2.5,2.5,0,0,0,.05-.29l.05-.29h0s0-.09,0-.14a3,3,0,1,0-4.05,2.74,5.33,5.33,0,0,1-1.84.39,2.9,2.9,0,0,1-1-.16,5.43,5.43,0,0,1-3.51-6.49c.74-2.86,2.53-4.69,5.07-4.69a6.73,6.73,0,0,1,2.3.45c3.76,1.39,18.13,12.54,18.13,12.54,3.53,3.76,6.12,6.42,6.93,6.42.4,0,.37-.62-.16-2,0,0-8-13.05-17.85-22.44h0s-32.67-37.43-14.71-70.28C269.79,141.86,279.23,137,288,137c12.44,0,23.41,9.86,24.82,18.37A11,11,0,0,1,302,168.25a12.82,12.82,0,0,1-4.69-.93,12.57,12.57,0,0,1-6.09-5.23,9.09,9.09,0,1,0-3.78-10c-1.13,3.79-2.78,14.43,7,19.33a19.12,19.12,0,0,0,8.56,2.11c8.3,0,15.1-5.93,17.84-12.19,4-9.15-1.92-19.26-11.83-25.67a50.11,50.11,0,0,0,10.32,1.23c5.39,0,10.39-1.28,13.26-5.13,6.22-8.32-2.32-14.91-11.06-14.91Zm.87,7.62,0,0a.17.17,0,0,0,0,0Z" transform="translate(-0.45 -1.31)"/>
        </g>
        <g>
          <path d="M197.6,233.92C189,234,179,237.3,179,237.3Z" transform="translate(-0.45 -1.31)"/>
          <path d="M216,242.78c3.27-15.55-6.81-10.95-6.81-10.95l-11.57,2.09c10.51-.09,19,4.58,5.22,25.72-18.51,28.33-37.45,45.12-44.68,71.19s4.67,39.81,23,39.81,29-17.11,27.23-37.26-14.6-19.93-21-16.72-7.19,13.65-6.81,14.68h0a9.43,9.43,0,1,0,9.41-9.94,9.25,9.25,0,0,0-2.19.27,8.33,8.33,0,0,1,3.45-1.49c6.35-1,9.34.8,11,6.79s3.5,23.36-11.25,31.54-24.24-1-27.3-8.91,2.71-28,11.39-42C188.88,285.27,212.71,258.33,216,242.78Z" transform="translate(-0.45 -1.31)"/>
        </g>
        <path d="M148.74,368.84c-3.89-1.17-17.52.43-24.63,9.72s-1.78,21.56,7.18,24,17-3.51,18.65-8.86a8.6,8.6,0,0,0-3.2-9.21,6.75,6.75,0,1,0-4.12,12.12c-3.38,2.74-8.52,3.46-12.42-1.74-7.72-10.33,1.32-20,12.9-19.9s18.76,6,15.26,19.49-16.77,29.57-33.62,25-28.37-36.69-30.12-47.1-1.43-13-.54-18.86c.92-6.09,4-18.65,8.57-25.93s13.63-11,18.82-10.45a7.89,7.89,0,0,1,6.77,9.22c-.85,3.68-3.18,9.22-8.28,12.27a6.45,6.45,0,0,1-9.34-2.3,5.14,5.14,0,0,1,.37-3.85,4.46,4.46,0,1,0,4.11-5h.06s-3.58-.47-5.48,1.93c-2.48,3.16-3.39,7.63.07,10.58,6.14,5.26,17.61-.64,20.8-11.56.95-3.27.22-10.18-4.72-13.3s-23.35.53-28.75,15a130.14,130.14,0,0,0-6.69,24.47c-.24-1.56-.49-3.11-.67-4.69C85.84,316.15,89.41,291,104,289.37c14-1.56,27.55,10.32,16.09,14.76a6.75,6.75,0,0,0-8.45-9.11c-1.45.52-4.22,1.93-5,4.56s-2.22,7.59,4.73,10.88,22.46-4.32,20.86-14.53c-1.09-6.89-7-13.22-16.41-14.58,8.26-4.22,14.93-10.1,12.14-20.13-4.91-17.67-26.09-16.05-31.45-5.44s7.48,22.22,15.9,15.9-.2-12.84-.2-12.84,2.29,7.3-2.36,9.59S99,266.48,99.29,260.64s4.08-8.73,11-9.24,19.47,9,13.22,19.12c-4.17,6.72-12.23,9.06-19.44,11.6a41.67,41.67,0,0,0-4,1.22c-18.43,6.6-22.07,29-18.09,70.41s35,87.62,62.29,66.65c18-13.84,19.72-21.31,20.32-33.6S152.63,370,148.74,368.84Z" transform="translate(-0.45 -1.31)"/>
      </g>
    </g>
  </g>
</svg>
