<svg id="Layer_1" data-name="Layer 1" xmlns="http://www.w3.org/2000/svg" viewBox="0 0 497.37 497.37">
  <defs>
    <style>
    .cls-1 {
      fill:#fff;
    }
    .cls-2{
      stroke:#fff;
      stroke-miterlimit: 10;
      stroke-width:5px;
      fill:"currentColor";
    }
    </style>
  </defs>
  <path class="cls-1" d="M249.13,8.38,490.75,250,249.13,491.62,7.52,250,249.13,8.38m0-7.07L.45,250,249.13,498.69,497.82,250,249.13,1.31Z" transform="translate(-0.45 -1.31)"/>
  <path class="cls-1" d="M420,79.15v341.7H78.29V79.15H420m5-5H73.29v351.7H425V74.15Z" transform="translate(-0.45 -1.31)"/>
  <path class="cls-2" d="M446,137.47s-2.53,48.42-96.74,61.87S250,233,250,233,245,212.8,150.74,199.34,54,137.47,54,137.47,39.71,221.22,80.08,270s80.76,72.34,80.76,72.34,18.5-16.82,42-10.09S250,362.53,250,362.53s23.55-23.55,47.11-30.28,42.05,10.09,42.05,10.09,40.38-23.55,80.76-72.34S446,137.47,446,137.47Z" transform="translate(-0.45 -1.31)"/>
  <path class="cls-1" d="M403.37,240.31A368.51,368.51,0,0,0,425,201s-10.1,8.41-26.92,15.14-52.16,5.05-72.34,11.77-45.43,52.16-45.43,52.16h.15c.84-.06,5.19-.17,5.37,3.58.31,5.63-.95,16.19-.95,16.19a49.43,49.43,0,0,1,3.16-7.8,12.23,12.23,0,0,1,4.59-5.21c.93-.51,3.2-1.33,6.52.39a6.19,6.19,0,0,0,1.27.59c1.27.58,2.59,1.17,4,1.75h0l.1,0,.2.08c1.6.75,6.4,4.4,5.77,7.43a21.94,21.94,0,0,0-.13,6.86c1.34-7.48,3.73-10.18,11.15-9.22l1.26.19.75.12-.1,0a57.1,57.1,0,0,0,6,.55c6.47.92,6.15,2.77,6.15,13.48,0,11.77,3.72,33.27,3.72,33.27s-8.07-44.88,28.59-59.31c1.68-1.33,3.34-2.76,5-4.26l0,0c.26-.2.48-.39.69-.57h0a6.73,6.73,0,0,1,5.06-1.58,12.41,12.41,0,0,1,4.38,1.84,50.48,50.48,0,0,1,6.73,5s-3.67-4.72-6.62-9.18a7.88,7.88,0,0,1,1.25-7.61l.72-.85.1-.12a3.71,3.71,0,0,0,.63-.77c4.19-5.06,8.17-10.46,11.89-15.88,1.71-1,4.84-2.6,7.17-2.6,3.36,0,10.09,1.68,10.09,1.68S407.18,244.71,403.37,240.31Z" transform="translate(-0.45 -1.31)"/>
  <path class="cls-1" d="M96.63,240.31A368.51,368.51,0,0,1,75,201s10.1,8.41,26.92,15.14,52.16,5.05,72.34,11.77,45.43,52.16,45.43,52.16h-.15c-.84-.06-5.19-.17-5.37,3.58-.31,5.63,1,16.19,1,16.19a49.43,49.43,0,0,0-3.16-7.8,12.23,12.23,0,0,0-4.59-5.21c-.93-.51-3.2-1.33-6.52.39a6.19,6.19,0,0,1-1.27.59c-1.27.58-2.59,1.17-4,1.75h0l-.1,0-.2.08c-1.6.75-6.4,4.4-5.77,7.43a21.94,21.94,0,0,1,.13,6.86c-1.34-7.48-3.73-10.18-11.15-9.22l-1.26.19-.75.12.1,0a57.1,57.1,0,0,1-6,.55c-6.47.92-6.15,2.77-6.15,13.48,0,11.77-3.72,33.27-3.72,33.27s8.07-44.88-28.59-59.31c-1.68-1.33-3.34-2.76-5-4.26l0,0c-.26-.2-.48-.39-.69-.57h0a6.73,6.73,0,0,0-5.06-1.58,12.41,12.41,0,0,0-4.38,1.84,50.48,50.48,0,0,0-6.73,5s3.67-4.72,6.62-9.18a7.88,7.88,0,0,0-1.25-7.61l-.72-.85-.1-.12a3.71,3.71,0,0,1-.63-.77c-4.19-5.06-8.17-10.46-11.89-15.88-1.71-1-4.84-2.6-7.17-2.6-3.36,0-10.09,1.68-10.09,1.68S92.82,244.71,96.63,240.31Z" transform="translate(-0.45 -1.31)"/>
</svg>