<svg id="Layer_1" data-name="Layer 1" xmlns="http://www.w3.org/2000/svg" viewBox="0 0 497.37 497.37">
  <defs>
    <style>
      .cls-1 {
        fill: #fff;
      }
      .cls-2 {
        stroke: "currentColor";
        stroke-miterlimit: 10;
        stroke-width: 5px;
      }
    </style>
  </defs>
  <g>
    <path class="cls-1" d="M249.13,8.38,490.75,250,249.13,491.62,7.52,250,249.13,8.38m0-7.07L.45,250,249.13,498.69,497.82,250,249.13,1.31Z" transform="translate(-0.45 -1.31)"/>
    <path class="cls-1" d="M420,79.15v341.7H78.29V79.15H420m5-5H73.29v351.7H425V74.15Z" transform="translate(-0.45 -1.31)"/>
  </g>
  <g>
    <g id="Strokes" class="cls-2">
      <path d="M250,67.7s118.82,22,138,103.49C361.15,414.57,250,432.3,250,432.3V368a66.66,66.66,0,0,1,45.36,18s21.73-45.49,5.56-50.29a29.51,29.51,0,0,0-8.46-1.34c-10.12,0-15.27,6.59-22.37,9.43a24.79,24.79,0,0,1-9.14,1.57A40.82,40.82,0,0,1,250,343.79V67.7m12,131.17c.44,2.1,13,60.56,52.44,60.56,40.18,0,46.25,16.72,46.25,16.72s-6.82-55.73-50.76-55.73c-42.61,0-47.66-20.32-47.93-21.55v-.06a.28.28,0,0,0,0,.06M250,62.7a5,5,0,0,0-5,5V343.79a5,5,0,0,0,3.5,4.77,46,46,0,0,0,12.45,1.8,29.55,29.55,0,0,0,11-1.93,45.7,45.7,0,0,0,7.64-4.2c4.1-2.61,7.64-4.87,12.88-4.87a24.71,24.71,0,0,1,7,1.13,2.4,2.4,0,0,1,1.65,1.56c2.75,6.19-2.22,22.92-7.61,35.77A72,72,0,0,0,250,363a5,5,0,0,0-5,5V432.3a5,5,0,0,0,5,5,5.25,5.25,0,0,0,.79-.06c1.2-.19,29.91-5.12,61.87-40.89,18.47-20.68,34.32-47.55,47.09-79.85,15.86-40.1,27-88.81,33.2-144.77a4.82,4.82,0,0,0-.1-1.69c-4.59-19.52-15-37.33-31-53C349.21,104.74,333.12,93.75,314,84.41a272,272,0,0,0-63.09-21.63,5.59,5.59,0,0,0-.91-.08ZM352,261.6c-7.63-3.9-19.42-7.17-37.53-7.17-14.45,0-26.72-9-36.46-26.89a102.62,102.62,0,0,1-4.49-9.34c7.86,4.08,19.44,7.22,36.44,7.22,25.13,0,36.86,21,42,36.18Z" transform="translate(-0.45 -1.31)"/>
      <path d="M250,67.7V225.8s-12-58.93-25.39-119.29a7.93,7.93,0,0,0-2.11-.25c-17.9,0-80.15,40.11-87.49,64-10.1,29-6.18,66.2,1,123.61-10.54-38.33-17.25-56.54-24-122.65C128.31,90.7,250,67.7,250,67.7m0-5a4.88,4.88,0,0,0-.93.09,281.53,281.53,0,0,0-64.14,22c-19.34,9.42-35.48,20.43-48,32.74-15.87,15.61-25.91,33.34-29.82,52.69a5,5,0,0,0-.08,1.5c6,58.69,12.06,80.45,20.51,110.57,1.16,4.11,2.35,8.36,3.6,12.9a5,5,0,0,0,4.82,3.68,4.73,4.73,0,0,0,1-.1,5,5,0,0,0,4-5.52c-7.09-57-10.94-93.38-1.19-121.35,0-.05,0-.11,0-.17,2.89-9.4,17.4-24.07,37.86-38.29,18.88-13.12,35.4-20.73,42.93-22,12.27,55.4,23.26,109.18,24.42,114.87v32.34a5,5,0,0,0,10,0V67.7a5,5,0,0,0-5-5Z" transform="translate(-0.45 -1.31)"/>
    </g>
    <path class="cls-1" d="M245,73.93V177.19c-4.39-20.79-9.83-46.22-15.51-71.77l-.66-3-2.93-.78a13,13,0,0,0-3.41-.42c-11.9,0-34.67,12.9-50.55,23.94-10.8,7.51-36.46,26.76-41.68,43.47-5.57,16-7,34.16-6.11,56.45-2.47-14-4.76-30.93-7.08-53.67,3.61-17,12.63-32.78,26.8-46.74,11.71-11.54,26.92-21.92,45.24-30.86A282.19,282.19,0,0,1,245,73.93m5-6.23s-121.69,23-138,103.49c6.7,66.11,13.41,84.32,24,122.65-7.14-57.41-11.06-94.61-1-123.61,7.34-23.86,69.59-64,87.49-64a7.93,7.93,0,0,1,2.11.25C238,166.87,250,225.8,250,225.8V67.7Z" transform="translate(-0.45 -1.31)"/>
    <path class="cls-1" d="M250,67.7V343.79s11.24,3.54,20.09,0,14.65-12.89,30.83-8.09S295.36,386,295.36,386A66.66,66.66,0,0,0,250,368V432.3s111.15-17.73,138-261.11C368.82,89.74,250,67.7,250,67.7Zm64.43,191.73c-40.18,0-52.45-60.62-52.45-60.62s4,21.61,47.94,21.61,50.76,55.73,50.76,55.73S354.61,259.43,314.43,259.43Z" transform="translate(-0.45 -1.31)"/>
  </g>
</svg>
